SplineFontDB: 3.0
FontName: MacondoSwashCaps-Regular
FullName: Macondo Swash Caps
FamilyName: Macondo Swash Caps
Weight: Book
Copyright: Copyright (c) 1997 - 2011, John Vargas Beltran. (www.johnvargasbeltran.com|john.vargasbeltran@gmail.com), with Reserved Font Name "Macondo"
Version: 2.001
ItalicAngle: 0
UnderlinePosition: -50
UnderlineWidth: 50
Ascent: 800
Descent: 200
sfntRevision: 0x00020042
LayerCount: 2
Layer: 0 1 "Back"  1
Layer: 1 1 "Fore"  0
XUID: [1021 259 1248220900 3695471]
FSType: 0
OS2Version: 2
OS2_WeightWidthSlopeOnly: 0
OS2_UseTypoMetrics: 1
CreationTime: 1326325470
ModificationTime: 1326322698
PfmFamily: 17
TTFWeight: 400
TTFWidth: 5
LineGap: 0
VLineGap: 0
Panose: 2 0 0 0 0 0 0 0 0 0
OS2TypoAscent: 88
OS2TypoAOffset: 1
OS2TypoDescent: -92
OS2TypoDOffset: 1
OS2TypoLinegap: 0
OS2WinAscent: 0
OS2WinAOffset: 1
OS2WinDescent: 0
OS2WinDOffset: 1
HheadAscent: 0
HheadAOffset: 1
HheadDescent: 0
HheadDOffset: 1
OS2SubXSize: 700
OS2SubYSize: 650
OS2SubXOff: 0
OS2SubYOff: 140
OS2SupXSize: 700
OS2SupYSize: 650
OS2SupXOff: 0
OS2SupYOff: 477
OS2StrikeYSize: 50
OS2StrikeYPos: 250
OS2Vendor: 'PYRS'
OS2CodePages: 00000001.00000000
OS2UnicodeRanges: 00000023.00000000.00000000.00000000
Lookup: 258 0 0 "'kern' Horizontal Kerning in Latin lookup 0"  {"'kern' Horizontal Kerning in Latin lookup 0 subtable"  } ['kern' ('DFLT' <'dflt' > 'latn' <'dflt' > ) ]
DEI: 91125
TtTable: prep
PUSHW_1
 511
SCANCTRL
PUSHB_1
 4
SCANTYPE
EndTTInstrs
ShortTable: maxp 16
  1
  0
  247
  116
  5
  117
  4
  2
  0
  1
  1
  0
  64
  0
  2
  1
EndShort
LangName: 1033 "" "" "" "JohnVargasBeltran: Macondo Regular: 1997" "" "Version 2.001" "" "Macondo is a trademark of John Vargas Beltran." "John Vargas Beltran" "John Vargas Beltran" "" "" "www.johnvargasbeltran.com" "This Font Software is licensed under the SIL Open Font License, Version 1.1. This license is available with a FAQ at: http://scripts.sil.org/OFL" "http://scripts.sil.org/OFL" 
GaspTable: 1 65535 15 1
Encoding: UnicodeBmp

StartChar: exclam
Encoding: 33 33 4
Width: 239
GlyphClass: 2
Flags: W
LayerCount: 2
Fore
SplineSet
74.5 7.5 m 128,-1,1
 60 21 60 21 60 47.5 c 128,-1,2
 60 74 60 74 78.5 93.5 c 128,-1,3
 97 113 97 113 122.5 113 c 128,-1,4
 148 113 148 113 163.5 98.5 c 128,-1,5
 179 84 179 84 179 57.5 c 128,-1,6
 179 31 179 31 159.5 12.5 c 128,-1,7
 140 -6 140 -6 114.5 -6 c 128,-1,0
 89 -6 89 -6 74.5 7.5 c 128,-1,1
124 696 m 128,-1,9
 145 696 145 696 159 681 c 128,-1,10
 173 666 173 666 173 649 c 128,-1,11
 173 632 173 632 162 501 c 128,-1,12
 151 370 151 370 151 226 c 0,13,14
 151 214 151 214 143 205.5 c 128,-1,15
 135 197 135 197 124 197 c 128,-1,16
 113 197 113 197 105.5 205.5 c 128,-1,17
 98 214 98 214 98 226 c 0,18,19
 98 370 98 370 87 501 c 128,-1,20
 76 632 76 632 76 649 c 128,-1,21
 76 666 76 666 89.5 681 c 128,-1,8
 103 696 103 696 124 696 c 128,-1,9
EndSplineSet
EndChar

StartChar: quotedbl
Encoding: 34 34 5
Width: 353
GlyphClass: 2
Flags: W
LayerCount: 2
Fore
SplineSet
66 492 m 0,0,1
 56 492 56 492 56 503 c 0,2,3
 56 511 56 511 66 529.5 c 128,-1,4
 76 548 76 548 76 567 c 128,-1,5
 76 586 76 586 65.5 607 c 128,-1,6
 55 628 55 628 55 650 c 128,-1,7
 55 672 55 672 68 684 c 128,-1,8
 81 696 81 696 103 696 c 0,9,10
 141 696 141 696 141 648.5 c 128,-1,11
 141 601 141 601 113 546.5 c 128,-1,12
 85 492 85 492 66 492 c 0,0,1
226 492 m 0,13,14
 216 492 216 492 216 503 c 0,15,16
 216 511 216 511 226 529.5 c 128,-1,17
 236 548 236 548 236 567 c 128,-1,18
 236 586 236 586 225.5 607 c 128,-1,19
 215 628 215 628 215 650 c 128,-1,20
 215 672 215 672 228 684 c 128,-1,21
 241 696 241 696 263 696 c 0,22,23
 301 696 301 696 301 648.5 c 128,-1,24
 301 601 301 601 273 546.5 c 128,-1,25
 245 492 245 492 226 492 c 0,13,14
EndSplineSet
EndChar

StartChar: numbersign
Encoding: 35 35 6
Width: 693
GlyphClass: 2
Flags: W
LayerCount: 2
Fore
SplineSet
236 417 m 1,0,1
 136 412 136 412 134 412 c 0,2,3
 95 412 95 412 95 449 c 128,-1,4
 95 486 95 486 134 486 c 0,5,6
 140 486 140 486 248 480 c 1,7,-1
 256 520 l 2,8,9
 260 544 260 544 262.5 558 c 128,-1,10
 265 572 265 572 269 591 c 128,-1,11
 273 610 273 610 276 621.5 c 128,-1,12
 279 633 279 633 283 646.5 c 128,-1,13
 287 660 287 660 291.5 668 c 128,-1,14
 296 676 296 676 301 683 c 0,15,16
 310 696 310 696 326 696 c 0,17,18
 364 696 364 696 364 652 c 0,19,20
 364 630 364 630 340.5 571 c 128,-1,21
 317 512 317 512 306 478 c 1,22,-1
 371 478 l 2,23,24
 425 478 425 478 448 479 c 1,25,-1
 456 519 l 2,26,27
 460 543 460 543 462.5 557 c 128,-1,28
 465 571 465 571 469 590 c 128,-1,29
 473 609 473 609 476 620.5 c 128,-1,30
 479 632 479 632 483 646 c 128,-1,31
 487 660 487 660 491.5 667.5 c 128,-1,32
 496 675 496 675 501 682 c 0,33,34
 510 696 510 696 526 696 c 0,35,36
 564 696 564 696 564 652 c 0,37,38
 564 628 564 628 541 570.5 c 128,-1,39
 518 513 518 513 507 481 c 1,40,41
 602 486 602 486 609 486 c 0,42,43
 648 486 648 486 648 449 c 128,-1,44
 648 412 648 412 609 412 c 0,45,46
 603 412 603 412 487 418 c 1,47,48
 478 390 478 390 468 343 c 2,49,-1
 456 291 l 1,50,51
 556 296 556 296 559 296 c 0,52,53
 598 296 598 296 598 259 c 128,-1,54
 598 222 598 222 559 222 c 1,55,-1
 444 227 l 1,56,57
 432 165 432 165 428.5 142 c 128,-1,58
 425 119 425 119 421 98 c 128,-1,59
 417 77 417 77 414 65.5 c 128,-1,60
 411 54 411 54 407 40.5 c 128,-1,61
 403 27 403 27 398.5 20 c 128,-1,62
 394 13 394 13 389 6 c 0,63,64
 380 -6 380 -6 363 -6 c 0,65,66
 325 -6 325 -6 325 33 c 0,67,68
 325 49 325 49 331 67.5 c 128,-1,69
 337 86 337 86 353.5 133 c 128,-1,70
 370 180 370 180 385 229 c 1,71,72
 366 230 366 230 321 230 c 2,73,-1
 244 229 l 1,74,75
 232 165 232 165 228.5 142.5 c 128,-1,76
 225 120 225 120 221 99 c 128,-1,77
 217 78 217 78 214 66.5 c 128,-1,78
 211 55 211 55 207 41 c 128,-1,79
 203 27 203 27 198.5 20 c 128,-1,80
 194 13 194 13 189 6 c 0,81,82
 180 -6 180 -6 163 -6 c 0,83,84
 125 -6 125 -6 125 33 c 0,85,86
 125 49 125 49 130.5 67.5 c 128,-1,87
 136 86 136 86 153 132.5 c 128,-1,88
 170 179 170 179 185 227 c 1,89,90
 90 222 90 222 84 222 c 0,91,92
 45 222 45 222 45 259 c 128,-1,93
 45 296 45 296 84 296 c 0,94,95
 89 296 89 296 203 290 c 1,96,-1
 236 417 l 1,0,1
371 420 m 2,97,-1
 287 419 l 1,98,99
 260 315 260 315 256 288 c 1,100,-1
 321 288 l 2,101,102
 379 288 379 288 403 289 c 1,103,104
 421 355 421 355 424 366 c 128,-1,105
 427 377 427 377 436 419 c 1,106,107
 417 420 417 420 371 420 c 2,97,-1
EndSplineSet
EndChar

StartChar: dollar
Encoding: 36 36 7
Width: 423
GlyphClass: 2
Flags: W
LayerCount: 2
Fore
SplineSet
73 69 m 128,-1,1
 50 84 50 84 50 106.5 c 128,-1,2
 50 129 50 129 63.5 142.5 c 128,-1,3
 77 156 77 156 90.5 156 c 128,-1,4
 104 156 104 156 135 144 c 128,-1,5
 166 132 166 132 199.5 132 c 128,-1,6
 233 132 233 132 267 153.5 c 128,-1,7
 301 175 301 175 301 205.5 c 128,-1,8
 301 236 301 236 275.5 252.5 c 128,-1,9
 250 269 250 269 214 279.5 c 128,-1,10
 178 290 178 290 142 303 c 128,-1,11
 106 316 106 316 80.5 342 c 128,-1,12
 55 368 55 368 55 408.5 c 128,-1,13
 55 449 55 449 90.5 490 c 128,-1,14
 126 531 126 531 180 555 c 1,15,16
 179 573 179 573 179 598 c 0,17,18
 179 642 179 642 212 642 c 0,19,20
 225 642 225 642 233.5 632.5 c 128,-1,21
 242 623 242 623 242 608 c 2,22,-1
 242 573 l 1,23,24
 258 576 258 576 287 576 c 128,-1,25
 316 576 316 576 337.5 561.5 c 128,-1,26
 359 547 359 547 359 524 c 128,-1,27
 359 501 359 501 345.5 487.5 c 128,-1,28
 332 474 332 474 318.5 474 c 128,-1,29
 305 474 305 474 274 486 c 128,-1,30
 243 498 243 498 209.5 498 c 128,-1,31
 176 498 176 498 151.5 479.5 c 128,-1,32
 127 461 127 461 127 438 c 128,-1,33
 127 415 127 415 152.5 400.5 c 128,-1,34
 178 386 178 386 214 375.5 c 128,-1,35
 250 365 250 365 286 351.5 c 128,-1,36
 322 338 322 338 347.5 310 c 128,-1,37
 373 282 373 282 373 238.5 c 128,-1,38
 373 195 373 195 335 150 c 128,-1,39
 297 105 297 105 240 79 c 1,40,41
 241 60 241 60 241 36.5 c 128,-1,42
 241 13 241 13 232.5 3.5 c 128,-1,43
 224 -6 224 -6 210 -6 c 128,-1,44
 196 -6 196 -6 186.5 4 c 128,-1,45
 177 14 177 14 177 29 c 2,46,-1
 177 58 l 1,47,48
 157 54 157 54 126.5 54 c 128,-1,0
 96 54 96 54 73 69 c 128,-1,1
EndSplineSet
EndChar

StartChar: percent
Encoding: 37 37 8
Width: 773
GlyphClass: 2
Flags: W
LayerCount: 2
Fore
SplineSet
50 443 m 0,0,1
 50 524 50 524 100.5 583 c 128,-1,2
 151 642 151 642 226 642 c 0,3,4
 279 642 279 642 311 605 c 128,-1,5
 343 568 343 568 343 517 c 0,6,7
 343 435 343 435 292.5 376.5 c 128,-1,8
 242 318 242 318 167 318 c 0,9,10
 114 318 114 318 82 354.5 c 128,-1,11
 50 391 50 391 50 443 c 0,0,1
260 406.5 m 128,-1,13
 286 436 286 436 286 479.5 c 128,-1,14
 286 523 286 523 260 553.5 c 128,-1,15
 234 584 234 584 196.5 584 c 128,-1,16
 159 584 159 584 133 553.5 c 128,-1,17
 107 523 107 523 107 479.5 c 128,-1,18
 107 436 107 436 133 406.5 c 128,-1,19
 159 377 159 377 196.5 377 c 128,-1,12
 234 377 234 377 260 406.5 c 128,-1,13
430 119 m 0,20,21
 430 200 430 200 480.5 259 c 128,-1,22
 531 318 531 318 606 318 c 0,23,24
 659 318 659 318 691 281 c 128,-1,25
 723 244 723 244 723 193 c 0,26,27
 723 111 723 111 672.5 52.5 c 128,-1,28
 622 -6 622 -6 547 -6 c 0,29,30
 494 -6 494 -6 462 30.5 c 128,-1,31
 430 67 430 67 430 119 c 0,20,21
640 82.5 m 128,-1,33
 666 112 666 112 666 155.5 c 128,-1,34
 666 199 666 199 640 229.5 c 128,-1,35
 614 260 614 260 576.5 260 c 128,-1,36
 539 260 539 260 513 229.5 c 128,-1,37
 487 199 487 199 487 155.5 c 128,-1,38
 487 112 487 112 513 82.5 c 128,-1,39
 539 53 539 53 576.5 53 c 128,-1,32
 614 53 614 53 640 82.5 c 128,-1,33
638 598 m 0,40,41
 638 577 638 577 616.5 548.5 c 128,-1,42
 595 520 595 520 534.5 450 c 128,-1,43
 474 380 474 380 430.5 323 c 128,-1,44
 387 266 387 266 349 212 c 128,-1,45
 311 158 311 158 287.5 123 c 128,-1,46
 264 88 264 88 240 56 c 0,47,48
 194 -6 194 -6 163 -6 c 0,49,50
 125 -6 125 -6 125 33 c 0,51,52
 125 51 125 51 154.5 88.5 c 128,-1,53
 184 126 184 126 250.5 202.5 c 128,-1,54
 317 279 317 279 364 343 c 128,-1,55
 411 407 411 407 466.5 492 c 128,-1,56
 522 577 522 577 549.5 609.5 c 128,-1,57
 577 642 577 642 600 642 c 0,58,59
 638 642 638 642 638 598 c 0,40,41
EndSplineSet
EndChar

StartChar: ampersand
Encoding: 38 38 9
Width: 772
GlyphClass: 2
Flags: W
LayerCount: 2
Fore
SplineSet
199 -6 m 0,0,1
 124 -6 124 -6 72 40.5 c 128,-1,2
 20 87 20 87 20 168.5 c 128,-1,3
 20 250 20 250 121 335 c 1,4,5
 60 431 60 431 60 496 c 0,6,7
 60 583 60 583 124.5 639.5 c 128,-1,8
 189 696 189 696 268 696 c 0,9,10
 322 696 322 696 364.5 664 c 128,-1,11
 407 632 407 632 407 570 c 0,12,13
 407 480 407 480 322 411 c 0,14,15
 285 380 285 380 222 340 c 1,16,17
 284 255 284 255 381 174 c 1,18,19
 398 196 398 196 428.5 240.5 c 128,-1,20
 459 285 459 285 479 311.5 c 128,-1,21
 499 338 499 338 526 368 c 0,22,23
 581 429 581 429 637 429 c 0,24,25
 672 429 672 429 696.5 399.5 c 128,-1,26
 721 370 721 370 721 331 c 0,27,28
 721 271 721 271 679 229 c 128,-1,29
 637 187 637 187 601 187 c 0,30,31
 583 187 583 187 570.5 199 c 128,-1,32
 558 211 558 211 558 230 c 128,-1,33
 558 249 558 249 572 264 c 128,-1,34
 586 279 586 279 599 279 c 128,-1,35
 612 279 612 279 622 272 c 128,-1,36
 632 265 632 265 643 265 c 128,-1,37
 654 265 654 265 665 278.5 c 128,-1,38
 676 292 676 292 676 310 c 128,-1,39
 676 328 676 328 661.5 344.5 c 128,-1,40
 647 361 647 361 619.5 361 c 128,-1,41
 592 361 592 361 565.5 331.5 c 128,-1,42
 539 302 539 302 497 236 c 128,-1,43
 455 170 455 170 430 138 c 1,44,45
 548 57 548 57 617 57 c 0,46,47
 643 57 643 57 659 68.5 c 128,-1,48
 675 80 675 80 686 91 c 128,-1,49
 697 102 697 102 707 102 c 128,-1,50
 717 102 717 102 722 96 c 128,-1,51
 727 90 727 90 727 80.5 c 128,-1,52
 727 71 727 71 709.5 51 c 128,-1,53
 692 31 692 31 653.5 12.5 c 128,-1,54
 615 -6 615 -6 568 -6 c 0,55,56
 488 -6 488 -6 375 74 c 1,57,58
 292 -6 292 -6 199 -6 c 0,0,1
332 532 m 0,59,60
 332 584 332 584 304 610 c 128,-1,61
 276 636 276 636 237 636 c 128,-1,62
 198 636 198 636 169.5 606 c 128,-1,63
 141 576 141 576 141 534 c 0,64,65
 141 469 141 469 189 385 c 1,66,67
 237 416 237 416 261 433 c 128,-1,68
 285 450 285 450 308.5 478 c 128,-1,69
 332 506 332 506 332 532 c 0,59,60
102 197 m 0,70,71
 102 134 102 134 140.5 95 c 128,-1,72
 179 56 179 56 228.5 56 c 128,-1,73
 278 56 278 56 329 110 c 1,74,75
 235 187 235 187 155 289 c 1,76,77
 102 243 102 243 102 197 c 0,70,71
EndSplineSet
EndChar

StartChar: quotesingle
Encoding: 39 39 10
Width: 193
GlyphClass: 2
Flags: W
LayerCount: 2
Fore
SplineSet
66 492 m 0,0,1
 56 492 56 492 56 503 c 0,2,3
 56 511 56 511 66 529.5 c 128,-1,4
 76 548 76 548 76 567 c 128,-1,5
 76 586 76 586 65.5 607 c 128,-1,6
 55 628 55 628 55 650 c 128,-1,7
 55 672 55 672 68 684 c 128,-1,8
 81 696 81 696 103 696 c 0,9,10
 141 696 141 696 141 648.5 c 128,-1,11
 141 601 141 601 113 546.5 c 128,-1,12
 85 492 85 492 66 492 c 0,0,1
EndSplineSet
EndChar

StartChar: parenleft
Encoding: 40 40 11
Width: 340
GlyphClass: 2
Flags: W
LayerCount: 2
Fore
SplineSet
258 750 m 0,0,1
 275 750 275 750 275 734 c 0,2,3
 275 727 275 727 267 717 c 0,4,5
 232 674 232 674 205 622.5 c 128,-1,6
 178 571 178 571 154.5 475 c 128,-1,7
 131 379 131 379 131 274 c 0,8,9
 131 -27 131 -27 238 -188 c 1,10,11
 267 -229 267 -229 267 -248 c 128,-1,12
 267 -267 267 -267 257.5 -278.5 c 128,-1,13
 248 -290 248 -290 232 -290 c 0,14,15
 167 -290 167 -290 116 -147 c 128,-1,16
 65 -4 65 -4 65 216 c 0,17,18
 65 305 65 305 81.5 392 c 128,-1,19
 98 479 98 479 122.5 541.5 c 128,-1,20
 147 604 147 604 174 652.5 c 128,-1,21
 201 701 201 701 223.5 725.5 c 128,-1,22
 246 750 246 750 258 750 c 0,0,1
EndSplineSet
EndChar

StartChar: parenright
Encoding: 41 41 12
Width: 320
GlyphClass: 2
Flags: W
LayerCount: 2
Fore
SplineSet
52 -291 m 0,0,1
 35 -291 35 -291 35 -275 c 0,2,3
 35 -268 35 -268 43 -258 c 0,4,5
 78 -214 78 -214 105 -163 c 128,-1,6
 132 -112 132 -112 155.5 -16 c 128,-1,7
 179 80 179 80 179 185 c 0,8,9
 179 486 179 486 72 647 c 1,10,11
 43 688 43 688 43 707 c 128,-1,12
 43 726 43 726 52.5 737.5 c 128,-1,13
 62 749 62 749 78 749 c 0,14,15
 143 749 143 749 194 606 c 128,-1,16
 245 463 245 463 245 243 c 0,17,18
 245 154 245 154 228.5 67 c 128,-1,19
 212 -20 212 -20 187.5 -82.5 c 128,-1,20
 163 -145 163 -145 136 -193.5 c 128,-1,21
 109 -242 109 -242 86.5 -266.5 c 128,-1,22
 64 -291 64 -291 52 -291 c 0,0,1
EndSplineSet
EndChar

StartChar: asterisk
Encoding: 42 42 13
Width: 349
GlyphClass: 2
Flags: W
LayerCount: 2
Fore
SplineSet
111 430 m 0,0,1
 97 430 97 430 86.5 440 c 128,-1,2
 76 450 76 450 76 458.5 c 128,-1,3
 76 467 76 467 77 470.5 c 128,-1,4
 78 474 78 474 80 477.5 c 128,-1,5
 82 481 82 481 84 484.5 c 128,-1,6
 86 488 86 488 90 493 c 128,-1,7
 94 498 94 498 98 502 c 0,8,9
 118 522 118 522 138 542 c 1,10,11
 130 544 130 544 112.5 546.5 c 128,-1,12
 95 549 95 549 84.5 551 c 128,-1,13
 74 553 74 553 62 558 c 0,14,15
 36 567 36 567 36 587 c 0,16,17
 36 599 36 599 44 609.5 c 128,-1,18
 52 620 52 620 65 620 c 128,-1,19
 78 620 78 620 107.5 603.5 c 128,-1,20
 137 587 137 587 151 582 c 1,21,22
 142 651 142 651 142 657 c 0,23,24
 142 696 142 696 175 696 c 128,-1,25
 208 696 208 696 208 657 c 0,26,27
 208 651 208 651 199 582 c 1,28,29
 213 587 213 587 242.5 603.5 c 128,-1,30
 272 620 272 620 285 620 c 128,-1,31
 298 620 298 620 306 609.5 c 128,-1,32
 314 599 314 599 314 588 c 128,-1,33
 314 577 314 577 307.5 569.5 c 128,-1,34
 301 562 301 562 288.5 557.5 c 128,-1,35
 276 553 276 553 265.5 551 c 128,-1,36
 255 549 255 549 237.5 546.5 c 128,-1,37
 220 544 220 544 212 542 c 1,38,39
 232 522 232 522 244 510 c 128,-1,40
 256 498 256 498 260 493 c 128,-1,41
 264 488 264 488 266 484.5 c 128,-1,42
 268 481 268 481 270 478 c 0,43,44
 274 470 274 470 274 460 c 128,-1,45
 274 450 274 450 263.5 440 c 128,-1,46
 253 430 253 430 239 430 c 0,47,48
 209 430 209 430 175 517 c 1,49,50
 141 430 141 430 111 430 c 0,0,1
EndSplineSet
EndChar

StartChar: plus
Encoding: 43 43 14
Width: 470
GlyphClass: 2
Flags: W
LayerCount: 2
Fore
SplineSet
202 268 m 1,0,-1
 86 263 l 2,1,2
 70 263 70 263 60 273.5 c 128,-1,3
 50 284 50 284 50 300 c 128,-1,4
 50 316 50 316 60 326 c 128,-1,5
 70 336 70 336 86 336 c 2,6,-1
 202 330 l 1,7,-1
 197 449 l 2,8,9
 197 465 197 465 207 475 c 128,-1,10
 217 485 217 485 233 485 c 128,-1,11
 249 485 249 485 259.5 475 c 128,-1,12
 270 465 270 465 270 449 c 2,13,-1
 265 330 l 1,14,15
 265 330 265 330 384 336 c 0,16,17
 400 336 400 336 410 326 c 128,-1,18
 420 316 420 316 420 300 c 128,-1,19
 420 284 420 284 410 273.5 c 128,-1,20
 400 263 400 263 384 263 c 2,21,-1
 265 268 l 1,22,-1
 270 151 l 2,23,24
 270 135 270 135 259.5 125 c 128,-1,25
 249 115 249 115 233 115 c 128,-1,26
 217 115 217 115 207 125 c 128,-1,27
 197 135 197 135 197 151 c 2,28,-1
 202 268 l 1,0,-1
EndSplineSet
EndChar

StartChar: comma
Encoding: 44 44 15
Width: 194
GlyphClass: 2
Flags: W
LayerCount: 2
Fore
SplineSet
55 -133 m 0,0,1
 41 -133 41 -133 41 -118 c 0,2,3
 41 -107 41 -107 61 -83 c 128,-1,4
 81 -59 81 -59 81 -35.5 c 128,-1,5
 81 -12 81 -12 60.5 9.5 c 128,-1,6
 40 31 40 31 40 52.5 c 128,-1,7
 40 74 40 74 58 90.5 c 128,-1,8
 76 107 76 107 99.5 107 c 128,-1,9
 123 107 123 107 138.5 93 c 128,-1,10
 154 79 154 79 154 35.5 c 128,-1,11
 154 -8 154 -8 117 -70.5 c 128,-1,12
 80 -133 80 -133 55 -133 c 0,0,1
EndSplineSet
EndChar

StartChar: hyphen
Encoding: 45 45 16
Width: 390
GlyphClass: 2
Flags: W
LayerCount: 2
Fore
SplineSet
195 330 m 128,-1,1
 234 330 234 330 266.5 333 c 128,-1,2
 299 336 299 336 309.5 336 c 128,-1,3
 320 336 320 336 330 326 c 128,-1,4
 340 316 340 316 340 300 c 128,-1,5
 340 284 340 284 330 273.5 c 128,-1,6
 320 263 320 263 309.5 263 c 128,-1,7
 299 263 299 263 266.5 265.5 c 128,-1,8
 234 268 234 268 195 268 c 128,-1,9
 156 268 156 268 123.5 265.5 c 128,-1,10
 91 263 91 263 80.5 263 c 128,-1,11
 70 263 70 263 60 273.5 c 128,-1,12
 50 284 50 284 50 300 c 128,-1,13
 50 316 50 316 60 326 c 128,-1,14
 70 336 70 336 80.5 336 c 128,-1,15
 91 336 91 336 123.5 333 c 128,-1,0
 156 330 156 330 195 330 c 128,-1,1
EndSplineSet
EndChar

StartChar: period
Encoding: 46 46 17
Width: 193
GlyphClass: 2
Flags: W
LayerCount: 2
Fore
SplineSet
54 7 m 128,-1,1
 40 20 40 20 40 45.5 c 128,-1,2
 40 71 40 71 57.5 89 c 128,-1,3
 75 107 75 107 99.5 107 c 128,-1,4
 124 107 124 107 138.5 93.5 c 128,-1,5
 153 80 153 80 153 54.5 c 128,-1,6
 153 29 153 29 135 11.5 c 128,-1,7
 117 -6 117 -6 92.5 -6 c 128,-1,0
 68 -6 68 -6 54 7 c 128,-1,1
EndSplineSet
EndChar

StartChar: slash
Encoding: 47 47 18
Width: 496
GlyphClass: 2
Flags: W
LayerCount: 2
Fore
SplineSet
67 -6 m 0,0,1
 29 -6 29 -6 29 33 c 0,2,3
 29 53 29 53 51 88.5 c 128,-1,4
 73 124 73 124 130 207 c 128,-1,5
 187 290 187 290 225.5 355.5 c 128,-1,6
 264 421 264 421 292.5 476 c 128,-1,7
 321 531 321 531 338.5 566.5 c 128,-1,8
 356 602 356 602 374 634 c 0,9,10
 409 696 409 696 440 696 c 0,11,12
 478 696 478 696 478 657 c 0,13,14
 478 637 478 637 456 601.5 c 128,-1,15
 434 566 434 566 377 483 c 128,-1,16
 320 400 320 400 281.5 334.5 c 128,-1,17
 243 269 243 269 214.5 214 c 128,-1,18
 186 159 186 159 168.5 123.5 c 128,-1,19
 151 88 151 88 133 56 c 0,20,21
 98 -6 98 -6 67 -6 c 0,0,1
EndSplineSet
EndChar

StartChar: zero
Encoding: 48 48 19
Width: 617
GlyphClass: 2
Flags: W
LayerCount: 2
Fore
SplineSet
45 244 m 0,0,1
 45 408 45 408 136.5 525 c 128,-1,2
 228 642 228 642 367 642 c 0,3,4
 458 642 458 642 515 568 c 128,-1,5
 572 494 572 494 572 392 c 0,6,7
 572 228 572 228 480.5 111 c 128,-1,8
 389 -6 389 -6 250 -6 c 0,9,10
 159 -6 159 -6 102 68 c 128,-1,11
 45 142 45 142 45 244 c 0,0,1
500 317 m 128,-1,13
 500 425 500 425 445.5 500.5 c 128,-1,14
 391 576 391 576 309 576 c 128,-1,15
 227 576 227 576 172 500.5 c 128,-1,16
 117 425 117 425 117 317 c 128,-1,17
 117 209 117 209 171.5 135.5 c 128,-1,18
 226 62 226 62 308.5 62 c 128,-1,19
 391 62 391 62 445.5 135.5 c 128,-1,12
 500 209 500 209 500 317 c 128,-1,13
201 237 m 0,20,21
 201 255 201 255 223 270 c 0,22,23
 277 305 277 305 340 380 c 0,24,25
 362 407 362 407 372.5 417 c 128,-1,26
 383 427 383 427 392 427 c 0,27,28
 417 427 417 427 417 403 c 0,29,30
 417 385 417 385 395 370 c 0,31,32
 341 335 341 335 278 260 c 0,33,34
 256 233 256 233 245.5 223 c 128,-1,35
 235 213 235 213 226 213 c 0,36,37
 201 213 201 213 201 237 c 0,20,21
EndSplineSet
EndChar

StartChar: one
Encoding: 49 49 20
Width: 312
GlyphClass: 2
Flags: W
LayerCount: 2
Fore
SplineSet
265 607 m 2,0,-1
 261 331 l 1,1,2
 261 242 261 242 264 161 c 128,-1,3
 267 80 267 80 267 58.5 c 128,-1,4
 267 37 267 37 252.5 15.5 c 128,-1,5
 238 -6 238 -6 214 -6 c 128,-1,6
 190 -6 190 -6 175 10.5 c 128,-1,7
 160 27 160 27 160 48 c 128,-1,8
 160 69 160 69 174.5 97 c 128,-1,9
 189 125 189 125 194 155.5 c 128,-1,10
 199 186 199 186 199 343 c 128,-1,11
 199 500 199 500 193 559 c 0,12,13
 191 573 191 573 175.5 573 c 128,-1,14
 160 573 160 573 131 560.5 c 128,-1,15
 102 548 102 548 87 548 c 128,-1,16
 72 548 72 548 58.5 560 c 128,-1,17
 45 572 45 572 45 592 c 128,-1,18
 45 612 45 612 59.5 624 c 128,-1,19
 74 636 74 636 92 636 c 2,20,-1
 226 642 l 1,21,22
 265 642 265 642 265 607 c 2,0,-1
EndSplineSet
EndChar

StartChar: two
Encoding: 50 50 21
Width: 539
GlyphClass: 2
Flags: W
LayerCount: 2
Fore
SplineSet
45 25 m 0,0,1
 45 57 45 57 91 92 c 0,2,3
 270 225 270 225 350 322 c 0,4,5
 394 375 394 375 394 435.5 c 128,-1,6
 394 496 394 496 358 533.5 c 128,-1,7
 322 571 322 571 263.5 571 c 128,-1,8
 205 571 205 571 164 532 c 128,-1,9
 123 493 123 493 123 450 c 0,10,11
 123 439 123 439 114.5 430 c 128,-1,12
 106 421 106 421 95.5 421 c 128,-1,13
 85 421 85 421 78 429.5 c 128,-1,14
 71 438 71 438 71 450 c 0,15,16
 71 520 71 520 148 581 c 128,-1,17
 225 642 225 642 303.5 642 c 128,-1,18
 382 642 382 642 427.5 598 c 128,-1,19
 473 554 473 554 473 492 c 0,20,21
 473 382 473 382 370 276 c 0,22,23
 305 209 305 209 174 99 c 1,24,-1
 133 64 l 1,25,26
 245 66 245 66 340 79.5 c 128,-1,27
 435 93 435 93 448.5 93 c 128,-1,28
 462 93 462 93 478 80.5 c 128,-1,29
 494 68 494 68 494 45.5 c 128,-1,30
 494 23 494 23 479 8.5 c 128,-1,31
 464 -6 464 -6 444 -6 c 128,-1,32
 424 -6 424 -6 368 -3 c 128,-1,33
 312 0 312 0 258 0 c 128,-1,34
 204 0 204 0 152.5 -3 c 128,-1,35
 101 -6 101 -6 86 -6 c 128,-1,36
 71 -6 71 -6 58 3 c 128,-1,37
 45 12 45 12 45 25 c 0,0,1
EndSplineSet
EndChar

StartChar: three
Encoding: 51 51 22
Width: 521
GlyphClass: 2
Flags: W
LayerCount: 2
Fore
SplineSet
268 358 m 1,0,-1
 223 353 l 1,1,2
 213 353 213 353 206.5 360.5 c 128,-1,3
 200 368 200 368 200 382 c 128,-1,4
 200 396 200 396 225 419 c 0,5,6
 331 518 331 518 368 572 c 1,7,8
 275 572 275 572 202 557.5 c 128,-1,9
 129 543 129 543 108 543 c 128,-1,10
 87 543 87 543 71 555.5 c 128,-1,11
 55 568 55 568 55 590.5 c 128,-1,12
 55 613 55 613 70 627.5 c 128,-1,13
 85 642 85 642 105.5 642 c 128,-1,14
 126 642 126 642 168 639 c 128,-1,15
 210 636 210 636 258 636 c 1,16,-1
 401 642 l 2,17,18
 418 642 418 642 431 630.5 c 128,-1,19
 444 619 444 619 444 597 c 0,20,21
 444 553 444 553 317 434 c 1,22,23
 381 423 381 423 428.5 366.5 c 128,-1,24
 476 310 476 310 476 240 c 0,25,26
 476 136 476 136 404.5 65 c 128,-1,27
 333 -6 333 -6 229 -6 c 0,28,29
 154 -6 154 -6 99.5 32.5 c 128,-1,30
 45 71 45 71 45 116 c 0,31,32
 45 140 45 140 59.5 157.5 c 128,-1,33
 74 175 74 175 95.5 175 c 128,-1,34
 117 175 117 175 133.5 157 c 128,-1,35
 150 139 150 139 161.5 118 c 128,-1,36
 173 97 173 97 200 79 c 128,-1,37
 227 61 227 61 266 61 c 0,38,39
 321 61 321 61 363.5 102.5 c 128,-1,40
 406 144 406 144 406 216 c 0,41,42
 406 253 406 253 389.5 282.5 c 128,-1,43
 373 312 373 312 350 328 c 1,44,45
 303 358 303 358 268 358 c 1,0,-1
EndSplineSet
EndChar

StartChar: four
Encoding: 52 52 23
Width: 566
GlyphClass: 2
Flags: W
LayerCount: 2
Fore
SplineSet
308 219 m 1,0,-1
 81 214 l 2,1,2
 65 214 65 214 55 224.5 c 128,-1,3
 45 235 45 235 45 255.5 c 128,-1,4
 45 276 45 276 93.5 354 c 128,-1,5
 142 432 142 432 195 496 c 128,-1,6
 248 560 248 560 310.5 603 c 128,-1,7
 373 646 373 646 423 646 c 0,8,9
 463 646 463 646 463 610 c 0,10,11
 463 592 463 592 451 579.5 c 128,-1,12
 439 567 439 567 420 567 c 2,13,-1
 412 567 l 1,14,15
 407 504 407 504 407 331 c 2,16,-1
 407 283 l 1,17,18
 479 287 479 287 490 287 c 128,-1,19
 501 287 501 287 511 277 c 128,-1,20
 521 267 521 267 521 251 c 128,-1,21
 521 235 521 235 511 224.5 c 128,-1,22
 501 214 501 214 485 214 c 2,23,-1
 408 217 l 1,24,25
 410 165 410 165 413.5 145 c 128,-1,26
 417 125 417 125 431.5 97 c 128,-1,27
 446 69 446 69 446 48 c 128,-1,28
 446 27 446 27 431 10.5 c 128,-1,29
 416 -6 416 -6 392 -6 c 128,-1,30
 368 -6 368 -6 353.5 15.5 c 128,-1,31
 339 37 339 37 339 67 c 2,32,-1
 344 219 l 1,33,-1
 308 219 l 1,0,-1
106 286 m 1,34,-1
 308 281 l 1,35,-1
 345 281 l 1,36,-1
 345 331 l 2,37,38
 345 409 345 409 341 549 c 1,39,40
 220 494 220 494 106 286 c 1,34,-1
EndSplineSet
EndChar

StartChar: five
Encoding: 53 53 24
Width: 480
GlyphClass: 2
Flags: W
LayerCount: 2
Fore
SplineSet
169 565 m 1,0,1
 169 565 169 565 168 528 c 0,2,3
 168 512 168 512 168 465.5 c 128,-1,4
 168 419 168 419 172 395 c 1,5,6
 213 429 213 429 276.5 429 c 128,-1,7
 340 429 340 429 387.5 381.5 c 128,-1,8
 435 334 435 334 435 266 c 0,9,10
 435 160 435 160 343.5 77 c 128,-1,11
 252 -6 252 -6 133 -6 c 0,12,13
 94 -6 94 -6 69.5 8.5 c 128,-1,14
 45 23 45 23 45 49 c 128,-1,15
 45 75 45 75 62 92 c 128,-1,16
 79 109 79 109 99 109 c 128,-1,17
 119 109 119 109 152.5 89.5 c 128,-1,18
 186 70 186 70 213 70 c 0,19,20
 279 70 279 70 322.5 112 c 128,-1,21
 366 154 366 154 366 214.5 c 128,-1,22
 366 275 366 275 323 317.5 c 128,-1,23
 280 360 280 360 220 360 c 0,24,25
 189 360 189 360 160 344 c 128,-1,26
 131 328 131 328 121.5 328 c 128,-1,27
 112 328 112 328 104.5 335.5 c 128,-1,28
 97 343 97 343 97 354 c 2,29,-1
 100 476 l 2,30,31
 100 514 100 514 95.5 554 c 128,-1,32
 91 594 91 594 91 607.5 c 128,-1,33
 91 621 91 621 105.5 631.5 c 128,-1,34
 120 642 120 642 139 642 c 2,35,-1
 254 636 l 1,36,-1
 370 642 l 2,37,38
 386 642 386 642 398.5 631.5 c 128,-1,39
 411 621 411 621 411 603 c 128,-1,40
 411 585 411 585 398.5 574.5 c 128,-1,41
 386 564 386 564 370 564 c 2,42,-1
 254 570 l 1,43,44
 226 570 226 570 169 565 c 1,0,1
EndSplineSet
EndChar

StartChar: six
Encoding: 54 54 25
Width: 538
GlyphClass: 2
Flags: W
LayerCount: 2
Fore
SplineSet
278 67 m 128,-1,1
 339 67 339 67 381.5 109.5 c 128,-1,2
 424 152 424 152 424 213 c 128,-1,3
 424 274 424 274 381.5 316.5 c 128,-1,4
 339 359 339 359 278 359 c 128,-1,5
 217 359 217 359 174.5 316.5 c 128,-1,6
 132 274 132 274 132 213 c 128,-1,7
 132 152 132 152 174.5 109.5 c 128,-1,0
 217 67 217 67 278 67 c 128,-1,1
424 564 m 128,-1,9
 410 550 410 550 396.5 550 c 128,-1,10
 383 550 383 550 362 557 c 128,-1,11
 341 564 341 564 317 564 c 0,12,13
 241 564 241 564 180 479 c 128,-1,14
 119 394 119 394 114 302 c 1,15,16
 143 353 143 353 205.5 390 c 128,-1,17
 268 427 268 427 333.5 427 c 128,-1,18
 399 427 399 427 445.5 381 c 128,-1,19
 492 335 492 335 492 268 c 0,20,21
 492 158 492 158 408 76 c 128,-1,22
 324 -6 324 -6 216 -6 c 0,23,24
 133 -6 133 -6 89 61 c 128,-1,25
 45 128 45 128 45 223.5 c 128,-1,26
 45 319 45 319 91.5 415 c 128,-1,27
 138 511 138 511 217.5 576.5 c 128,-1,28
 297 642 297 642 381 642 c 0,29,30
 408 642 408 642 423 630 c 128,-1,31
 438 618 438 618 438 598 c 128,-1,8
 438 578 438 578 424 564 c 128,-1,9
EndSplineSet
EndChar

StartChar: seven
Encoding: 55 55 26
Width: 496
GlyphClass: 2
Flags: W
LayerCount: 2
Fore
SplineSet
248 636 m 1,0,-1
 410 642 l 1,1,2
 451 642 451 642 451 603 c 0,3,4
 451 586 451 586 431.5 554 c 128,-1,5
 412 522 412 522 367 450.5 c 128,-1,6
 322 379 322 379 281 300 c 0,7,8
 218 176 218 176 195 41 c 0,9,10
 192 23 192 23 180 8.5 c 128,-1,11
 168 -6 168 -6 150 -6 c 128,-1,12
 132 -6 132 -6 119.5 8.5 c 128,-1,13
 107 23 107 23 107 50.5 c 128,-1,14
 107 78 107 78 132.5 133.5 c 128,-1,15
 158 189 158 189 203.5 267.5 c 128,-1,16
 249 346 249 346 284 402 c 1,17,18
 355 520 355 520 373 565 c 1,19,-1
 248 570 l 1,20,-1
 86 564 l 2,21,22
 70 564 70 564 57.5 574.5 c 128,-1,23
 45 585 45 585 45 603 c 128,-1,24
 45 621 45 621 57.5 631.5 c 128,-1,25
 70 642 70 642 86 642 c 2,26,27
 86 642 86 642 248 636 c 1,0,-1
EndSplineSet
EndChar

StartChar: eight
Encoding: 56 56 27
Width: 521
GlyphClass: 2
Flags: W
LayerCount: 2
Fore
SplineSet
293 642 m 0,0,1
 347 642 347 642 389.5 613.5 c 128,-1,2
 432 585 432 585 432 530 c 0,3,4
 432 437 432 437 334 375 c 1,5,6
 401 349 401 349 438.5 314 c 128,-1,7
 476 279 476 279 476 215 c 0,8,9
 476 122 476 122 403.5 58 c 128,-1,10
 331 -6 331 -6 224 -6 c 0,11,12
 149 -6 149 -6 97 36.5 c 128,-1,13
 45 79 45 79 45 148.5 c 128,-1,14
 45 218 45 218 81 261 c 128,-1,15
 117 304 117 304 180 340 c 1,16,17
 135 361 135 361 110 390.5 c 128,-1,18
 85 420 85 420 85 466 c 0,19,20
 85 543 85 543 149.5 592.5 c 128,-1,21
 214 642 214 642 293 642 c 0,0,1
411 182 m 0,22,23
 411 207 411 207 399.5 228 c 128,-1,24
 388 249 388 249 375 261 c 128,-1,25
 362 273 362 273 332 286 c 1,26,27
 294 304 294 304 234 321 c 1,28,29
 182 292 182 292 154.5 260.5 c 128,-1,30
 127 229 127 229 127 176 c 128,-1,31
 127 123 127 123 171.5 86.5 c 128,-1,32
 216 50 216 50 272.5 50 c 128,-1,33
 329 50 329 50 370 88.5 c 128,-1,34
 411 127 411 127 411 182 c 0,22,23
336 563.5 m 128,-1,36
 305 587 305 587 261.5 587 c 128,-1,37
 218 587 218 587 187 562 c 128,-1,38
 156 537 156 537 156 504 c 128,-1,39
 156 471 156 471 175.5 450 c 128,-1,40
 195 429 195 429 217.5 418.5 c 128,-1,41
 240 408 240 408 282 393 c 1,42,43
 323 416 323 416 345 439 c 128,-1,44
 367 462 367 462 367 492 c 0,45,35
 367 540 367 540 336 563.5 c 128,-1,36
EndSplineSet
EndChar

StartChar: nine
Encoding: 57 57 28
Width: 517
GlyphClass: 2
Flags: W
LayerCount: 2
Fore
SplineSet
249 579 m 128,-1,1
 192 579 192 579 152.5 539.5 c 128,-1,2
 113 500 113 500 113 442.5 c 128,-1,3
 113 385 113 385 153 341 c 128,-1,4
 193 297 193 297 249 297 c 128,-1,5
 305 297 305 297 345 341 c 128,-1,6
 385 385 385 385 385 442.5 c 128,-1,7
 385 500 385 500 345.5 539.5 c 128,-1,0
 306 579 306 579 249 579 c 128,-1,1
93 72 m 128,-1,9
 107 86 107 86 120.5 86 c 128,-1,10
 134 86 134 86 155 79 c 128,-1,11
 176 72 176 72 200 72 c 0,12,13
 275 72 275 72 336.5 166 c 128,-1,14
 398 260 398 260 403 354 c 1,15,16
 383 303 383 303 322 266 c 128,-1,17
 261 229 261 229 197.5 229 c 128,-1,18
 134 229 134 229 89.5 273.5 c 128,-1,19
 45 318 45 318 45 383 c 0,20,21
 45 492 45 492 122 567 c 128,-1,22
 199 642 199 642 301 642 c 0,23,24
 379 642 379 642 425.5 582.5 c 128,-1,25
 472 523 472 523 472 427.5 c 128,-1,26
 472 332 472 332 425.5 231.5 c 128,-1,27
 379 131 379 131 299.5 62.5 c 128,-1,28
 220 -6 220 -6 136 -6 c 0,29,30
 109 -6 109 -6 94 6 c 128,-1,31
 79 18 79 18 79 38 c 128,-1,8
 79 58 79 58 93 72 c 128,-1,9
EndSplineSet
EndChar

StartChar: semicolon
Encoding: 59 59 30
Width: 194
GlyphClass: 2
Flags: W
LayerCount: 2
Fore
SplineSet
54 313 m 128,-1,1
 40 326 40 326 40 351.5 c 128,-1,2
 40 377 40 377 57.5 395 c 128,-1,3
 75 413 75 413 99.5 413 c 128,-1,4
 124 413 124 413 138.5 399.5 c 128,-1,5
 153 386 153 386 153 360.5 c 128,-1,6
 153 335 153 335 135 317.5 c 128,-1,7
 117 300 117 300 92.5 300 c 128,-1,0
 68 300 68 300 54 313 c 128,-1,1
55 -133 m 0,8,9
 41 -133 41 -133 41 -118 c 0,10,11
 41 -107 41 -107 61 -83 c 128,-1,12
 81 -59 81 -59 81 -35.5 c 128,-1,13
 81 -12 81 -12 60.5 9.5 c 128,-1,14
 40 31 40 31 40 52.5 c 128,-1,15
 40 74 40 74 58 90.5 c 128,-1,16
 76 107 76 107 99.5 107 c 128,-1,17
 123 107 123 107 138.5 93 c 128,-1,18
 154 79 154 79 154 35.5 c 128,-1,19
 154 -8 154 -8 117 -70.5 c 128,-1,20
 80 -133 80 -133 55 -133 c 0,8,9
EndSplineSet
EndChar

StartChar: less
Encoding: 60 60 31
Width: 429
GlyphClass: 2
Flags: W
LayerCount: 2
Fore
SplineSet
232.5 452 m 128,-1,1
 301 494 301 494 327.5 494 c 128,-1,2
 354 494 354 494 369 482 c 128,-1,3
 384 470 384 470 384 450 c 0,4,5
 384 416 384 416 332 401 c 0,6,7
 183 358 183 358 109 288 c 1,8,9
 183 218 183 218 332 175 c 0,10,11
 384 160 384 160 384 126 c 0,12,13
 384 106 384 106 369 94 c 128,-1,14
 354 82 354 82 327.5 82 c 128,-1,15
 301 82 301 82 232.5 124 c 128,-1,16
 164 166 164 166 106 216 c 128,-1,17
 48 266 48 266 45 288 c 1,18,19
 48 310 48 310 106 360 c 128,-1,0
 164 410 164 410 232.5 452 c 128,-1,1
EndSplineSet
EndChar

StartChar: equal
Encoding: 61 61 32
Width: 410
GlyphClass: 2
Flags: W
LayerCount: 2
Fore
SplineSet
205 405 m 128,-1,1
 244 405 244 405 276.5 408 c 128,-1,2
 309 411 309 411 319.5 411 c 128,-1,3
 330 411 330 411 340 401 c 128,-1,4
 350 391 350 391 350 375 c 128,-1,5
 350 359 350 359 340 348.5 c 128,-1,6
 330 338 330 338 319.5 338 c 128,-1,7
 309 338 309 338 276.5 340.5 c 128,-1,8
 244 343 244 343 205 343 c 128,-1,9
 166 343 166 343 133.5 340.5 c 128,-1,10
 101 338 101 338 90.5 338 c 128,-1,11
 80 338 80 338 70 348.5 c 128,-1,12
 60 359 60 359 60 375 c 128,-1,13
 60 391 60 391 70 401 c 128,-1,14
 80 411 80 411 90.5 411 c 128,-1,15
 101 411 101 411 133.5 408 c 128,-1,0
 166 405 166 405 205 405 c 128,-1,1
205 255 m 128,-1,17
 244 255 244 255 276.5 258 c 128,-1,18
 309 261 309 261 319.5 261 c 128,-1,19
 330 261 330 261 340 251 c 128,-1,20
 350 241 350 241 350 225 c 128,-1,21
 350 209 350 209 340 198.5 c 128,-1,22
 330 188 330 188 319.5 188 c 128,-1,23
 309 188 309 188 276.5 190.5 c 128,-1,24
 244 193 244 193 205 193 c 128,-1,25
 166 193 166 193 133.5 190.5 c 128,-1,26
 101 188 101 188 90.5 188 c 128,-1,27
 80 188 80 188 70 198.5 c 128,-1,28
 60 209 60 209 60 225 c 128,-1,29
 60 241 60 241 70 251 c 128,-1,30
 80 261 80 261 90.5 261 c 128,-1,31
 101 261 101 261 133.5 258 c 128,-1,16
 166 255 166 255 205 255 c 128,-1,17
EndSplineSet
EndChar

StartChar: greater
Encoding: 62 62 33
Width: 429
GlyphClass: 2
Flags: W
LayerCount: 2
Fore
SplineSet
196.5 124 m 128,-1,1
 128 82 128 82 101.5 82 c 128,-1,2
 75 82 75 82 60 94 c 128,-1,3
 45 106 45 106 45 126 c 0,4,5
 45 160 45 160 97 175 c 0,6,7
 246 218 246 218 320 288 c 1,8,9
 246 358 246 358 97 401 c 0,10,11
 45 416 45 416 45 450 c 0,12,13
 45 470 45 470 60 482 c 128,-1,14
 75 494 75 494 101.5 494 c 128,-1,15
 128 494 128 494 196.5 452 c 128,-1,16
 265 410 265 410 323 360 c 128,-1,17
 381 310 381 310 384 288 c 1,18,19
 381 266 381 266 323 216 c 128,-1,0
 265 166 265 166 196.5 124 c 128,-1,1
EndSplineSet
EndChar

StartChar: question
Encoding: 63 63 34
Width: 454
GlyphClass: 2
Flags: W
LayerCount: 2
Fore
SplineSet
145.5 7.5 m 128,-1,1
 131 21 131 21 131 47.5 c 128,-1,2
 131 74 131 74 149.5 93.5 c 128,-1,3
 168 113 168 113 193.5 113 c 128,-1,4
 219 113 219 113 234.5 98.5 c 128,-1,5
 250 84 250 84 250 57.5 c 128,-1,6
 250 31 250 31 230.5 12.5 c 128,-1,7
 211 -6 211 -6 185.5 -6 c 128,-1,0
 160 -6 160 -6 145.5 7.5 c 128,-1,1
210 220 m 0,8,9
 210 210 210 210 203.5 203.5 c 128,-1,10
 197 197 197 197 189 197 c 128,-1,11
 181 197 181 197 174.5 203.5 c 128,-1,12
 168 210 168 210 168 220 c 0,13,14
 168 296 168 296 223 348 c 0,15,16
 246 369 246 369 269 390 c 0,17,18
 324 439 324 439 324 499.5 c 128,-1,19
 324 560 324 560 296 595 c 128,-1,20
 268 630 268 630 227 630 c 128,-1,21
 186 630 186 630 157 611 c 128,-1,22
 128 592 128 592 114 569.5 c 128,-1,23
 100 547 100 547 87.5 528 c 128,-1,24
 75 509 75 509 68 509 c 0,25,26
 50 509 50 509 50 527 c 0,27,28
 50 560 50 560 98 623 c 0,29,30
 121 653 121 653 163 674.5 c 128,-1,31
 205 696 205 696 257.5 696 c 128,-1,32
 310 696 310 696 357 648.5 c 128,-1,33
 404 601 404 601 404 542 c 128,-1,34
 404 483 404 483 384 443.5 c 128,-1,35
 364 404 364 404 335.5 380 c 128,-1,36
 307 356 307 356 278 334 c 0,37,38
 210 281 210 281 210 220 c 0,8,9
EndSplineSet
EndChar

StartChar: at
Encoding: 64 64 35
Width: 782
GlyphClass: 2
Flags: W
LayerCount: 2
Fore
SplineSet
583 402 m 1,0,-1
 578 282 l 1,1,2
 578 248 578 248 588.5 224.5 c 128,-1,3
 599 201 599 201 617 201 c 0,4,5
 651 201 651 201 664.5 246 c 128,-1,6
 678 291 678 291 678 336 c 0,7,8
 678 463 678 463 590.5 553 c 128,-1,9
 503 643 503 643 381.5 643 c 128,-1,10
 260 643 260 643 182 558 c 128,-1,11
 104 473 104 473 104 349.5 c 128,-1,12
 104 226 104 226 191.5 137.5 c 128,-1,13
 279 49 279 49 401 49 c 2,14,-1
 419 49 l 2,15,16
 431 49 431 49 439 42 c 128,-1,17
 447 35 447 35 447 23 c 0,18,19
 447 0 447 0 419 -5 c 0,20,21
 410 -6 410 -6 391 -6 c 0,22,23
 247 -6 247 -6 148.5 91 c 128,-1,24
 50 188 50 188 50 334.5 c 128,-1,25
 50 481 50 481 148 588.5 c 128,-1,26
 246 696 246 696 390 696 c 128,-1,27
 534 696 534 696 633 595 c 128,-1,28
 732 494 732 494 732 356 c 0,29,30
 732 282 732 282 706 212 c 0,31,32
 693 175 693 175 667 152 c 128,-1,33
 641 129 641 129 609 129 c 128,-1,34
 577 129 577 129 552 159 c 128,-1,35
 527 189 527 189 527 229 c 2,36,-1
 527 239 l 1,37,38
 488 188 488 188 432 158.5 c 128,-1,39
 376 129 376 129 319.5 129 c 128,-1,40
 263 129 263 129 223 175 c 128,-1,41
 183 221 183 221 183 290.5 c 128,-1,42
 183 360 183 360 226 425 c 128,-1,43
 269 490 269 490 327.5 522.5 c 128,-1,44
 386 555 386 555 444.5 555 c 128,-1,45
 503 555 503 555 543 509 c 128,-1,46
 583 463 583 463 583 402 c 1,0,-1
244 342 m 128,-1,48
 244 283 244 283 285 242 c 128,-1,49
 326 201 326 201 385 201 c 128,-1,50
 444 201 444 201 483 241.5 c 128,-1,51
 522 282 522 282 522 342 c 128,-1,52
 522 402 522 402 483 442 c 128,-1,53
 444 482 444 482 385 482 c 128,-1,54
 326 482 326 482 285 441.5 c 128,-1,47
 244 401 244 401 244 342 c 128,-1,48
EndSplineSet
EndChar

StartChar: A
Encoding: 65 65 36
Width: 679
GlyphClass: 2
Flags: W
LayerCount: 2
Fore
SplineSet
507 300 m 1,0,-1
 339 305 l 2,1,2
 311 305 311 305 179 301 c 1,3,4
 159 259 159 259 126 186 c 0,5,6
 29 -30 29 -30 -66 -174 c 0,7,8
 -143 -290 -143 -290 -182 -290 c 0,9,10
 -199 -290 -199 -290 -210 -278.5 c 128,-1,11
 -221 -267 -221 -267 -221 -247 c 128,-1,12
 -221 -227 -221 -227 -199.5 -200 c 128,-1,13
 -178 -173 -178 -173 -145.5 -141.5 c 128,-1,14
 -113 -110 -113 -110 -60.5 -37 c 128,-1,15
 -8 36 -8 36 40 131 c 0,16,17
 48 146 48 146 121 300 c 1,18,-1
 116 300 l 2,19,20
 100 300 100 300 88.5 309.5 c 128,-1,21
 77 319 77 319 77 336 c 128,-1,22
 77 353 77 353 89 364 c 128,-1,23
 101 375 101 375 120.5 375 c 128,-1,24
 140 375 140 375 158 374 c 1,25,26
 250 562 250 562 326 634 c 1,27,28
 148 620 148 620 133.5 620 c 128,-1,29
 119 620 119 620 106.5 630 c 128,-1,30
 94 640 94 640 94 656.5 c 128,-1,31
 94 673 94 673 106.5 684.5 c 128,-1,32
 119 696 119 696 134 696 c 2,33,-1
 352 690 l 1,34,-1
 589 696 l 2,35,36
 607 696 607 696 618 685 c 128,-1,37
 629 674 629 674 629 656.5 c 128,-1,38
 629 639 629 639 617.5 629.5 c 128,-1,39
 606 620 606 620 588 620 c 2,40,-1
 564 620 l 1,41,42
 564 460 564 460 577 331 c 128,-1,43
 590 202 590 202 603 132 c 128,-1,44
 616 62 616 62 616 43.5 c 128,-1,45
 616 25 616 25 604.5 9.5 c 128,-1,46
 593 -6 593 -6 574 -6 c 128,-1,47
 555 -6 555 -6 541 8 c 128,-1,48
 527 22 527 22 525 48 c 2,49,-1
 507 300 l 1,0,-1
489 632 m 1,50,-1
 459 633 l 1,51,52
 340 618 340 618 215 373 c 1,53,54
 321 371 321 371 349.5 371 c 128,-1,55
 378 371 378 371 502 375 c 1,56,57
 489 547 489 547 489 632 c 1,50,-1
EndSplineSet
EndChar

StartChar: B
Encoding: 66 66 37
Width: 604
GlyphClass: 2
Flags: W
LayerCount: 2
Fore
SplineSet
-7 488 m 0,0,1
 -7 556 -7 556 79 626 c 128,-1,2
 165 696 165 696 272 696 c 0,3,4
 351 696 351 696 401 650.5 c 128,-1,5
 451 605 451 605 451 546 c 128,-1,6
 451 487 451 487 397 440 c 1,7,8
 480 417 480 417 523.5 358 c 128,-1,9
 567 299 567 299 567 230 c 0,10,11
 567 137 567 137 494 65.5 c 128,-1,12
 421 -6 421 -6 307 -6 c 2,13,-1
 101 -6 l 2,14,15
 85 -6 85 -6 72.5 4.5 c 128,-1,16
 60 15 60 15 60 32 c 128,-1,17
 60 49 60 49 72.5 59.5 c 128,-1,18
 85 70 85 70 101 70 c 2,19,-1
 120 70 l 1,20,21
 120 81 120 81 124.5 165 c 128,-1,22
 129 249 129 249 129 330.5 c 128,-1,23
 129 412 129 412 127 466 c 128,-1,24
 125 520 125 520 122.5 553.5 c 128,-1,25
 120 587 120 587 120 598 c 1,26,27
 66 552 66 552 66 488 c 0,28,29
 66 471 66 471 56 460.5 c 128,-1,30
 46 450 46 450 29 450 c 0,31,32
 -7 450 -7 450 -7 488 c 0,0,1
216 66 m 1,33,34
 282 59 282 59 336.5 59 c 128,-1,35
 391 59 391 59 435.5 99.5 c 128,-1,36
 480 140 480 140 480 216.5 c 128,-1,37
 480 293 480 293 433 335 c 128,-1,38
 386 377 386 377 318.5 377 c 128,-1,39
 251 377 251 377 207 350 c 1,40,41
 207 289 207 289 211 196.5 c 128,-1,42
 215 104 215 104 216 66 c 1,33,34
211 628 m 1,43,44
 216 616 216 616 216 607.5 c 128,-1,45
 216 599 216 599 212 537 c 128,-1,46
 208 475 208 475 207 396 c 1,47,48
 265 447 265 447 350 447 c 1,49,50
 380 472 380 472 380 521.5 c 128,-1,51
 380 571 380 571 341.5 600 c 128,-1,52
 303 629 303 629 233 629 c 0,53,54
 229 629 229 629 221.5 628.5 c 128,-1,55
 214 628 214 628 211 628 c 1,43,44
EndSplineSet
EndChar

StartChar: C
Encoding: 67 67 38
Width: 656
GlyphClass: 2
Flags: W
LayerCount: 2
Fore
SplineSet
487 438 m 1,0,-1
 529 429 l 1,1,2
 561 429 561 429 561 475.5 c 128,-1,3
 561 522 561 522 501.5 575 c 128,-1,4
 442 628 442 628 351 628 c 0,5,6
 237 628 237 628 172 556.5 c 128,-1,7
 107 485 107 485 107 362.5 c 128,-1,8
 107 240 107 240 179 151 c 128,-1,9
 251 62 251 62 363 62 c 128,-1,10
 475 62 475 62 563 168 c 0,11,12
 582 192 582 192 592 192 c 128,-1,13
 602 192 602 192 607.5 185.5 c 128,-1,14
 613 179 613 179 613 166 c 128,-1,15
 613 153 613 153 592.5 124.5 c 128,-1,16
 572 96 572 96 537.5 66.5 c 128,-1,17
 503 37 503 37 447.5 15.5 c 128,-1,18
 392 -6 392 -6 332 -6 c 0,19,20
 200 -6 200 -6 112.5 88 c 128,-1,21
 25 182 25 182 25 330.5 c 128,-1,22
 25 479 25 479 125.5 587.5 c 128,-1,23
 226 696 226 696 376 696 c 0,24,25
 481 696 481 696 548.5 641.5 c 128,-1,26
 616 587 616 587 616 504 c 0,27,28
 616 438 616 438 575.5 394.5 c 128,-1,29
 535 351 535 351 490 351 c 0,30,31
 466 351 466 351 454.5 364 c 128,-1,32
 443 377 443 377 443 394 c 128,-1,33
 443 411 443 411 456.5 424.5 c 128,-1,34
 470 438 470 438 487 438 c 1,0,-1
EndSplineSet
EndChar

StartChar: D
Encoding: 68 68 39
Width: 691
GlyphClass: 2
Flags: W
LayerCount: 2
Fore
SplineSet
204 690 m 1,0,-1
 360 696 l 1,1,2
 434 696 434 696 508 660 c 0,3,4
 552 639 552 639 586 608 c 128,-1,5
 620 577 620 577 643 523.5 c 128,-1,6
 666 470 666 470 666 393 c 128,-1,7
 666 316 666 316 633 237.5 c 128,-1,8
 600 159 600 159 547 107 c 128,-1,9
 494 55 494 55 428.5 24.5 c 128,-1,10
 363 -6 363 -6 297 -6 c 0,11,12
 203 -6 203 -6 133 49 c 128,-1,13
 63 104 63 104 63 196 c 0,14,15
 63 322 63 322 209 392 c 1,16,17
 209 492 209 492 204.5 545 c 128,-1,18
 200 598 200 598 200 607 c 128,-1,19
 200 616 200 616 203 625 c 1,20,21
 103 620 103 620 94 620 c 128,-1,22
 85 620 85 620 72.5 630.5 c 128,-1,23
 60 641 60 641 60 658 c 128,-1,24
 60 675 60 675 72.5 685.5 c 128,-1,25
 85 696 85 696 101 696 c 2,26,-1
 204 690 l 1,0,-1
287 352 m 1,27,-1
 296 205 l 1,28,29
 296 186 296 186 282.5 171 c 128,-1,30
 269 156 269 156 248 156 c 128,-1,31
 227 156 227 156 213.5 171 c 128,-1,32
 200 186 200 186 200 201.5 c 128,-1,33
 200 217 200 217 203.5 261.5 c 128,-1,34
 207 306 207 306 208 348 c 1,35,36
 177 333 177 333 157 297.5 c 128,-1,37
 137 262 137 262 137 216 c 0,38,39
 137 150 137 150 185.5 107.5 c 128,-1,40
 234 65 234 65 322 65 c 0,41,42
 437 65 437 65 515 151.5 c 128,-1,43
 593 238 593 238 593 362 c 128,-1,44
 593 486 593 486 516 556.5 c 128,-1,45
 439 627 439 627 297 627 c 2,46,-1
 292 627 l 1,47,48
 296 613 296 613 296 608.5 c 128,-1,49
 296 604 296 604 291.5 547 c 128,-1,50
 287 490 287 490 287 413 c 1,51,52
 358 413 358 413 397.5 374 c 128,-1,53
 437 335 437 335 437 285 c 0,54,55
 437 264 437 264 424.5 249 c 128,-1,56
 412 234 412 234 391 234 c 128,-1,57
 370 234 370 234 356.5 249 c 128,-1,58
 343 264 343 264 343 283 c 0,59,60
 343 334 343 334 287 352 c 1,27,-1
EndSplineSet
EndChar

StartChar: E
Encoding: 69 69 40
Width: 599
GlyphClass: 2
Flags: W
LayerCount: 2
Fore
SplineSet
101 696 m 2,0,-1
 303 690 l 1,1,-1
 505 696 l 2,2,3
 521 696 521 696 533.5 685.5 c 128,-1,4
 546 675 546 675 546 657 c 128,-1,5
 546 639 546 639 533.5 628.5 c 128,-1,6
 521 618 521 618 505 618 c 2,7,-1
 303 624 l 2,8,9
 277 624 277 624 219 622 c 1,10,11
 219 610 219 610 217 579 c 0,12,13
 211 486 211 486 211 405 c 1,14,15
 231 403 231 403 279 401 c 1,16,17
 306 458 306 458 359 493.5 c 128,-1,18
 412 529 412 529 459 529 c 0,19,20
 519 529 519 529 519 480 c 0,21,22
 519 464 519 464 507.5 452.5 c 128,-1,23
 496 441 496 441 483.5 441 c 128,-1,24
 471 441 471 441 452.5 453 c 128,-1,25
 434 465 434 465 407 465 c 128,-1,26
 380 465 380 465 353 447 c 128,-1,27
 326 429 326 429 313 401 c 1,28,29
 353 401 353 401 401 404 c 128,-1,30
 449 407 449 407 459.5 407 c 128,-1,31
 470 407 470 407 480 397 c 128,-1,32
 490 387 490 387 490 371 c 128,-1,33
 490 355 490 355 480 344.5 c 128,-1,34
 470 334 470 334 454 334 c 2,35,-1
 315 339 l 1,36,-1
 305 339 l 1,37,38
 312 300 312 300 342 274.5 c 128,-1,39
 372 249 372 249 407 249 c 128,-1,40
 442 249 442 249 472 270.5 c 128,-1,41
 502 292 502 292 505 292 c 0,42,43
 519 292 519 292 519 278 c 0,44,45
 519 268 519 268 502.5 249.5 c 128,-1,46
 486 231 486 231 449.5 213 c 128,-1,47
 413 195 413 195 367 195 c 128,-1,48
 321 195 321 195 289.5 230.5 c 128,-1,49
 258 266 258 266 258 310 c 0,50,51
 258 320 258 320 260 338 c 1,52,-1
 211 335 l 1,53,54
 211 213 211 213 215.5 144 c 128,-1,55
 220 75 220 75 220 66 c 1,56,-1
 518 72 l 2,57,58
 534 72 534 72 546.5 61.5 c 128,-1,59
 559 51 559 51 559 33 c 128,-1,60
 559 15 559 15 546.5 4.5 c 128,-1,61
 534 -6 534 -6 518 -6 c 2,62,-1
 326 0 l 1,63,64
 286 0 286 0 231 -3 c 128,-1,65
 176 -6 176 -6 172 -6 c 0,66,67
 151 -6 151 -6 137.5 10 c 128,-1,68
 124 26 124 26 124 42 c 128,-1,69
 124 58 124 58 128.5 153 c 128,-1,70
 133 248 133 248 133 336.5 c 128,-1,71
 133 425 133 425 124 618 c 1,72,-1
 101 618 l 2,73,74
 85 618 85 618 72.5 628.5 c 128,-1,75
 60 639 60 639 60 657 c 128,-1,76
 60 675 60 675 72.5 685.5 c 128,-1,77
 85 696 85 696 101 696 c 2,0,-1
EndSplineSet
EndChar

StartChar: F
Encoding: 70 70 41
Width: 586
GlyphClass: 2
Flags: W
LayerCount: 2
Fore
SplineSet
101 696 m 2,0,-1
 303 690 l 1,1,-1
 505 696 l 2,2,3
 521 696 521 696 533.5 685.5 c 128,-1,4
 546 675 546 675 546 657 c 128,-1,5
 546 639 546 639 533.5 628.5 c 128,-1,6
 521 618 521 618 505 618 c 2,7,-1
 303 624 l 2,8,9
 277 624 277 624 219 622 c 1,10,11
 219 620 219 620 215.5 555 c 128,-1,12
 212 490 212 490 211 425 c 1,13,14
 249 421 249 421 298 396.5 c 128,-1,15
 347 372 347 372 369.5 372 c 128,-1,16
 392 372 392 372 410 380.5 c 128,-1,17
 428 389 428 389 434 400 c 0,18,19
 448 427 448 427 468 427 c 0,20,21
 492 427 492 427 492 397.5 c 128,-1,22
 492 368 492 368 455 329.5 c 128,-1,23
 418 291 418 291 368.5 291 c 128,-1,24
 319 291 319 291 273.5 322 c 128,-1,25
 228 353 228 353 211 356 c 1,26,27
 211 251 211 251 215.5 154 c 128,-1,28
 220 57 220 57 220 41.5 c 128,-1,29
 220 26 220 26 206.5 10 c 128,-1,30
 193 -6 193 -6 172 -6 c 128,-1,31
 151 -6 151 -6 137.5 10 c 128,-1,32
 124 26 124 26 124 43.5 c 128,-1,33
 124 61 124 61 128 149 c 128,-1,34
 132 237 132 237 133 327 c 1,35,36
 131 325 131 325 127 320.5 c 128,-1,37
 123 316 123 316 121 314 c 128,-1,38
 119 312 119 312 115 309 c 128,-1,39
 111 306 111 306 108 304 c 0,40,41
 103 301 103 301 96 301 c 0,42,43
 74 301 74 301 74 328 c 0,44,45
 74 344 74 344 91 366 c 128,-1,46
 108 388 108 388 133 404 c 1,47,48
 133 460 133 460 124 618 c 1,49,-1
 101 618 l 2,50,51
 85 618 85 618 72.5 628.5 c 128,-1,52
 60 639 60 639 60 657 c 128,-1,53
 60 675 60 675 72.5 685.5 c 128,-1,54
 85 696 85 696 101 696 c 2,0,-1
EndSplineSet
EndChar

StartChar: G
Encoding: 71 71 42
Width: 691
GlyphClass: 2
Flags: W
LayerCount: 2
Fore
SplineSet
548 136 m 1,0,-1
 540 281 l 1,1,2
 540 301 540 301 553.5 316.5 c 128,-1,3
 567 332 567 332 588 332 c 128,-1,4
 609 332 609 332 622.5 316.5 c 128,-1,5
 636 301 636 301 636 281 c 0,6,7
 636 278 636 278 631.5 204 c 128,-1,8
 627 130 627 130 627 33.5 c 128,-1,9
 627 -63 627 -63 631.5 -146 c 128,-1,10
 636 -229 636 -229 636 -244 c 128,-1,11
 636 -259 636 -259 622.5 -274 c 128,-1,12
 609 -289 609 -289 588 -289 c 128,-1,13
 567 -289 567 -289 553.5 -274 c 128,-1,14
 540 -259 540 -259 540 -243 c 128,-1,15
 540 -227 540 -227 544 -144.5 c 128,-1,16
 548 -62 548 -62 549 29 c 1,17,-1
 549 71 l 1,18,19
 453 -6 453 -6 347 -6 c 0,20,21
 217 -6 217 -6 128.5 87.5 c 128,-1,22
 40 181 40 181 40 314 c 0,23,24
 40 480 40 480 139.5 588 c 128,-1,25
 239 696 239 696 393 696 c 0,26,27
 482 696 482 696 556.5 660.5 c 128,-1,28
 631 625 631 625 631 579 c 0,29,30
 631 559 631 559 617.5 545 c 128,-1,31
 604 531 604 531 585 531 c 128,-1,32
 566 531 566 531 547 546 c 128,-1,33
 528 561 528 561 510.5 579.5 c 128,-1,34
 493 598 493 598 455.5 613 c 128,-1,35
 418 628 418 628 367 628 c 0,36,37
 252 628 252 628 187 555 c 128,-1,38
 122 482 122 482 122 362 c 128,-1,39
 122 242 122 242 193.5 152 c 128,-1,40
 265 62 265 62 380 62 c 0,41,42
 470 62 470 62 548 136 c 1,0,-1
EndSplineSet
EndChar

StartChar: H
Encoding: 72 72 43
Width: 650
GlyphClass: 2
Flags: W
LayerCount: 2
Fore
SplineSet
195.5 155.5 m 128,-1,1
 200 55 200 55 200 40.5 c 128,-1,2
 200 26 200 26 186.5 10 c 128,-1,3
 173 -6 173 -6 152 -6 c 128,-1,4
 131 -6 131 -6 117.5 10 c 128,-1,5
 104 26 104 26 104 43 c 128,-1,6
 104 60 104 60 108 148 c 128,-1,7
 112 236 112 236 113 326 c 1,8,9
 98 311 98 311 86 311 c 0,10,11
 59 311 59 311 59 338 c 0,12,13
 59 378 59 378 112 413 c 1,14,15
 111 495 111 495 107.5 564 c 128,-1,16
 104 633 104 633 104 648 c 128,-1,17
 104 663 104 663 117.5 679 c 128,-1,18
 131 695 131 695 152 695 c 128,-1,19
 173 695 173 695 186.5 679 c 128,-1,20
 200 663 200 663 200 647.5 c 128,-1,21
 200 632 200 632 196 570.5 c 128,-1,22
 192 509 192 509 191 440 c 1,23,24
 196 441 196 441 218.5 441 c 128,-1,25
 241 441 241 441 276 425.5 c 128,-1,26
 311 410 311 410 334 392 c 0,27,28
 394 342 394 342 428 342 c 128,-1,29
 462 342 462 342 483 361 c 1,30,31
 482 468 482 468 478 552 c 128,-1,32
 474 636 474 636 474 649.5 c 128,-1,33
 474 663 474 663 487.5 679 c 128,-1,34
 501 695 501 695 522 695 c 128,-1,35
 543 695 543 695 556.5 679 c 128,-1,36
 570 663 570 663 570 643 c 0,37,38
 570 640 570 640 565.5 551 c 128,-1,39
 561 462 561 462 561 355 c 128,-1,40
 561 248 561 248 565.5 153 c 128,-1,41
 570 58 570 58 570 42 c 128,-1,42
 570 26 570 26 556.5 10 c 128,-1,43
 543 -6 543 -6 522 -6 c 128,-1,44
 501 -6 501 -6 487.5 10 c 128,-1,45
 474 26 474 26 474 45 c 128,-1,46
 474 64 474 64 477.5 139 c 128,-1,47
 481 214 481 214 482 285 c 1,48,49
 456 271 456 271 420 271 c 128,-1,50
 384 271 384 271 349 286 c 128,-1,51
 314 301 314 301 294 318 c 0,52,53
 239 366 239 366 191 368 c 1,54,0
 191 256 191 256 195.5 155.5 c 128,-1,1
EndSplineSet
EndChar

StartChar: I
Encoding: 73 73 44
Width: 494
GlyphClass: 2
Flags: W
LayerCount: 2
Fore
SplineSet
202 70 m 1,0,-1
 258 65 l 1,1,2
 266 142 266 142 266 346.5 c 128,-1,3
 266 551 266 551 258 627 c 1,4,5
 236 630 236 630 197.5 630 c 128,-1,6
 159 630 159 630 124.5 611.5 c 128,-1,7
 90 593 90 593 90 561 c 0,8,9
 90 509 90 509 127 509 c 0,10,11
 142 509 142 509 151 499 c 128,-1,12
 160 489 160 489 160 474 c 128,-1,13
 160 459 160 459 149 449.5 c 128,-1,14
 138 440 138 440 119 440 c 0,15,16
 84 440 84 440 59.5 469.5 c 128,-1,17
 35 499 35 499 35 543 c 128,-1,18
 35 587 35 587 61.5 620.5 c 128,-1,19
 88 654 88 654 132 669 c 0,20,21
 213 696 213 696 293.5 696 c 128,-1,22
 374 696 374 696 411.5 686 c 128,-1,23
 449 676 449 676 449 647 c 0,24,25
 449 630 449 630 436.5 620 c 128,-1,26
 424 610 424 610 408 610 c 1,27,-1
 350 618 l 1,28,29
 344 551 344 551 344 346.5 c 128,-1,30
 344 142 344 142 352 65 c 1,31,-1
 408 70 l 1,32,33
 424 70 424 70 436.5 60 c 128,-1,34
 449 50 449 50 449 32 c 128,-1,35
 449 14 449 14 436 4 c 128,-1,36
 423 -6 423 -6 406 -6 c 1,37,-1
 305 1 l 1,38,-1
 204 -6 l 1,39,40
 187 -6 187 -6 174 4 c 128,-1,41
 161 14 161 14 161 32 c 128,-1,42
 161 50 161 50 173.5 60 c 128,-1,43
 186 70 186 70 202 70 c 1,0,-1
EndSplineSet
EndChar

StartChar: J
Encoding: 74 74 45
Width: 427
GlyphClass: 2
Flags: W
LayerCount: 2
Fore
SplineSet
255 622 m 1,0,1
 227 626 227 626 193 626 c 128,-1,2
 159 626 159 626 124.5 607 c 128,-1,3
 90 588 90 588 90 557 c 0,4,5
 90 505 90 505 127 505 c 0,6,7
 142 505 142 505 151 495 c 128,-1,8
 160 485 160 485 160 470 c 128,-1,9
 160 455 160 455 149 445.5 c 128,-1,10
 138 436 138 436 119 436 c 0,11,12
 84 436 84 436 59.5 465.5 c 128,-1,13
 35 495 35 495 35 535.5 c 128,-1,14
 35 576 35 576 55 608.5 c 128,-1,15
 75 641 75 641 107 660 c 0,16,17
 170 696 170 696 250 696 c 0,18,19
 347 696 347 696 347 638 c 0,20,21
 347 610 347 610 342.5 492.5 c 128,-1,22
 338 375 338 375 338 279.5 c 128,-1,23
 338 184 338 184 328.5 108 c 128,-1,24
 319 32 319 32 294.5 -43 c 128,-1,25
 270 -118 270 -118 231.5 -171 c 128,-1,26
 193 -224 193 -224 131.5 -257 c 128,-1,27
 70 -290 70 -290 -8.5 -290 c 128,-1,28
 -87 -290 -87 -290 -146.5 -254.5 c 128,-1,29
 -206 -219 -206 -219 -206 -173 c 0,30,31
 -206 -152 -206 -152 -194 -138.5 c 128,-1,32
 -182 -125 -182 -125 -164.5 -125 c 128,-1,33
 -147 -125 -147 -125 -132.5 -135 c 128,-1,34
 -118 -145 -118 -145 -101 -162 c 0,35,36
 -35 -230 -35 -230 45 -230 c 0,37,38
 100 -230 100 -230 143 -188 c 128,-1,39
 186 -146 186 -146 212 -74 c 0,40,41
 263 70 263 70 263 268 c 0,42,43
 263 547 263 547 255 622 c 1,0,1
EndSplineSet
EndChar

StartChar: K
Encoding: 75 75 46
Width: 557
GlyphClass: 2
Flags: W
LayerCount: 2
Fore
SplineSet
147 348 m 1,0,1
 147 348 147 348 151 46 c 0,2,3
 151 25 151 25 139.5 9.5 c 128,-1,4
 128 -6 128 -6 107 -6 c 128,-1,5
 86 -6 86 -6 73 9.5 c 128,-1,6
 60 25 60 25 60 46 c 2,7,-1
 65 348 l 1,8,-1
 60 643 l 2,9,10
 60 664 60 664 73 680 c 128,-1,11
 86 696 86 696 107 696 c 128,-1,12
 128 696 128 696 139.5 680.5 c 128,-1,13
 151 665 151 665 151 638 c 128,-1,14
 151 611 151 611 149.5 532.5 c 128,-1,15
 148 454 148 454 148 434 c 1,16,17
 204 528 204 528 306.5 612 c 128,-1,18
 409 696 409 696 470 696 c 0,19,20
 493 696 493 696 508.5 682 c 128,-1,21
 524 668 524 668 524 646 c 128,-1,22
 524 624 524 624 508.5 610 c 128,-1,23
 493 596 493 596 477 596 c 128,-1,24
 461 596 461 596 444.5 604.5 c 128,-1,25
 428 613 428 613 408 613 c 128,-1,26
 388 613 388 613 347 583 c 128,-1,27
 306 553 306 553 259 503 c 1,28,29
 214 453 214 453 186 409 c 1,30,31
 485 21 485 21 909 -178 c 0,32,33
 974 -208 974 -208 974 -246 c 0,34,35
 974 -266 974 -266 960 -278 c 128,-1,36
 946 -290 946 -290 921 -290 c 0,37,38
 859 -290 859 -290 713.5 -186 c 128,-1,39
 568 -82 568 -82 412 63 c 0,40,41
 341 128 341 128 265.5 210.5 c 128,-1,42
 190 293 190 293 147 348 c 1,0,1
EndSplineSet
EndChar

StartChar: L
Encoding: 76 76 47
Width: 483
GlyphClass: 2
Flags: W
LayerCount: 2
Fore
SplineSet
230 -2 m 1,0,-1
 112 -6 l 2,1,2
 89 -6 89 -6 74.5 9 c 128,-1,3
 60 24 60 24 60 41 c 128,-1,4
 60 58 60 58 64.5 153 c 128,-1,5
 69 248 69 248 69 355 c 128,-1,6
 69 462 69 462 64.5 550.5 c 128,-1,7
 60 639 60 639 60 642 c 0,8,9
 60 663 60 663 73.5 679.5 c 128,-1,10
 87 696 87 696 108 696 c 128,-1,11
 129 696 129 696 142.5 679.5 c 128,-1,12
 156 663 156 663 156 642 c 0,13,14
 156 639 156 639 151.5 550.5 c 128,-1,15
 147 462 147 462 147 371.5 c 128,-1,16
 147 281 147 281 148.5 226 c 128,-1,17
 150 171 150 171 153 123 c 128,-1,18
 156 75 156 75 156 66 c 1,19,-1
 191 66 l 2,20,21
 283 66 283 66 323 69.5 c 128,-1,22
 363 73 363 73 385 91 c 128,-1,23
 407 109 407 109 407 134.5 c 128,-1,24
 407 160 407 160 386.5 178.5 c 128,-1,25
 366 197 366 197 342 197 c 0,26,27
 292 197 292 197 292 236 c 0,28,29
 292 252 292 252 308 264 c 128,-1,30
 324 276 324 276 347 276 c 0,31,32
 400 276 400 276 436.5 241.5 c 128,-1,33
 473 207 473 207 473 160 c 0,34,35
 473 98 473 98 421 46 c 128,-1,36
 369 -6 369 -6 305 -6 c 1,37,-1
 230 -2 l 1,0,-1
EndSplineSet
EndChar

StartChar: M
Encoding: 77 77 48
Width: 907
GlyphClass: 2
Flags: W
LayerCount: 2
Fore
SplineSet
763 614 m 1,0,-1
 751 613 l 1,1,2
 762 303 762 303 774 168 c 0,3,4
 777 135 777 135 802 103 c 128,-1,5
 827 71 827 71 827 48.5 c 128,-1,6
 827 26 827 26 813.5 10 c 128,-1,7
 800 -6 800 -6 777.5 -6 c 128,-1,8
 755 -6 755 -6 739.5 21.5 c 128,-1,9
 724 49 724 49 721 81 c 0,10,11
 697 414 697 414 661 586 c 1,12,13
 570 540 570 540 483 427 c 1,14,15
 562 302 562 302 562 214.5 c 128,-1,16
 562 127 562 127 503 63.5 c 128,-1,17
 444 0 444 0 393 0 c 128,-1,18
 342 0 342 0 314.5 33 c 128,-1,19
 287 66 287 66 287 114.5 c 128,-1,20
 287 163 287 163 319.5 237.5 c 128,-1,21
 352 312 352 312 405 393 c 1,22,23
 359 462 359 462 299 515 c 128,-1,24
 239 568 239 568 182 588 c 1,25,26
 182 585 182 585 174 532 c 0,27,28
 139 313 139 313 126 -44 c 0,29,30
 121 -205 121 -205 118.5 -231 c 128,-1,31
 116 -257 116 -257 102 -271.5 c 128,-1,32
 88 -286 88 -286 69.5 -286 c 128,-1,33
 51 -286 51 -286 35.5 -271.5 c 128,-1,34
 20 -257 20 -257 20 -224.5 c 128,-1,35
 20 -192 20 -192 47 -32 c 0,36,37
 103 300 103 300 107 601 c 1,38,39
 66 610 66 610 66 652 c 0,40,41
 66 671 66 671 84 683.5 c 128,-1,42
 102 696 102 696 128 696 c 0,43,44
 205 696 205 696 294.5 630.5 c 128,-1,45
 384 565 384 565 456 466 c 1,46,47
 532 567 532 567 613 631.5 c 128,-1,48
 694 696 694 696 763 696 c 0,49,50
 810 696 810 696 810 658 c 0,51,52
 810 640 810 640 794.5 627 c 128,-1,53
 779 614 779 614 763 614 c 1,0,-1
483 179 m 0,54,55
 483 255 483 255 430 351 c 1,56,57
 349 221 349 221 349 155 c 0,58,59
 349 119 349 119 367.5 92 c 128,-1,60
 386 65 386 65 414 65 c 128,-1,61
 442 65 442 65 462.5 100.5 c 128,-1,62
 483 136 483 136 483 179 c 0,54,55
EndSplineSet
EndChar

StartChar: N
Encoding: 78 78 49
Width: 731
GlyphClass: 2
Flags: W
LayerCount: 2
Fore
SplineSet
170 602 m 1,0,1
 167 536 167 536 167 392 c 128,-1,2
 167 248 167 248 176.5 153 c 128,-1,3
 186 58 186 58 186 42 c 128,-1,4
 186 26 186 26 172.5 10 c 128,-1,5
 159 -6 159 -6 138 -6 c 128,-1,6
 117 -6 117 -6 103.5 10 c 128,-1,7
 90 26 90 26 90 42 c 128,-1,8
 90 58 90 58 99.5 153 c 128,-1,9
 109 248 109 248 109 340 c 128,-1,10
 109 432 109 432 105 608 c 1,11,12
 85 609 85 609 70 619.5 c 128,-1,13
 55 630 55 630 55 649 c 0,14,15
 55 696 55 696 118 696 c 0,16,17
 169 696 169 696 224.5 670 c 128,-1,18
 280 644 280 644 344.5 575 c 128,-1,19
 409 506 409 506 455 403 c 0,20,21
 470 370 470 370 513 270 c 128,-1,22
 556 170 556 170 578 126 c 1,23,24
 576 418 576 418 561 524 c 0,25,26
 556 559 556 559 551.5 588 c 128,-1,27
 547 617 547 617 547 640.5 c 128,-1,28
 547 664 547 664 561.5 680 c 128,-1,29
 576 696 576 696 596.5 696 c 128,-1,30
 617 696 617 696 630 680 c 128,-1,31
 643 664 643 664 643 632.5 c 128,-1,32
 643 601 643 601 638 517 c 0,33,34
 628 321 628 321 628 45 c 1,35,36
 709 -83 709 -83 763 -129 c 0,37,38
 793 -155 793 -155 825.5 -172.5 c 128,-1,39
 858 -190 858 -190 875 -196 c 0,40,41
 914 -210 914 -210 914 -249 c 0,42,43
 914 -265 914 -265 899 -278 c 128,-1,44
 884 -291 884 -291 861 -291 c 0,45,46
 806 -291 806 -291 744 -236 c 128,-1,47
 682 -181 682 -181 622 -86 c 0,48,49
 510 94 510 94 405 359 c 0,50,51
 322 571 322 571 170 602 c 1,0,1
EndSplineSet
EndChar

StartChar: O
Encoding: 79 79 50
Width: 712
GlyphClass: 2
Flags: W
LayerCount: 2
Fore
SplineSet
292 345 m 128,-1,1
 292 373 292 373 311 393.5 c 128,-1,2
 330 414 330 414 356.5 414 c 128,-1,3
 383 414 383 414 401.5 394 c 128,-1,4
 420 374 420 374 420 345.5 c 128,-1,5
 420 317 420 317 401.5 296.5 c 128,-1,6
 383 276 383 276 356.5 276 c 128,-1,7
 330 276 330 276 311 296.5 c 128,-1,0
 292 317 292 317 292 345 c 128,-1,1
178.5 152 m 128,-1,9
 250 62 250 62 362 62 c 128,-1,10
 474 62 474 62 539.5 133.5 c 128,-1,11
 605 205 605 205 605 326.5 c 128,-1,12
 605 448 605 448 533.5 538 c 128,-1,13
 462 628 462 628 349.5 628 c 128,-1,14
 237 628 237 628 172 556.5 c 128,-1,15
 107 485 107 485 107 363.5 c 128,-1,8
 107 242 107 242 178.5 152 c 128,-1,9
332 -6 m 0,16,17
 202 -6 202 -6 113.5 87.5 c 128,-1,18
 25 181 25 181 25 314 c 0,19,20
 25 480 25 480 125 588 c 128,-1,21
 225 696 225 696 380 696 c 0,22,23
 510 696 510 696 598.5 602.5 c 128,-1,24
 687 509 687 509 687 376 c 0,25,26
 687 210 687 210 587 102 c 128,-1,27
 487 -6 487 -6 332 -6 c 0,16,17
EndSplineSet
EndChar

StartChar: P
Encoding: 80 80 51
Width: 614
GlyphClass: 2
Flags: W
LayerCount: 2
Fore
SplineSet
398 696 m 0,0,1
 488 696 488 696 539 645.5 c 128,-1,2
 590 595 590 595 590 496.5 c 128,-1,3
 590 398 590 398 519 316 c 128,-1,4
 448 234 448 234 340 234 c 0,5,6
 278 234 278 234 260 250 c 1,7,8
 247 263 247 263 247 281.5 c 128,-1,9
 247 300 247 300 259 310.5 c 128,-1,10
 271 321 271 321 286.5 321 c 128,-1,11
 302 321 302 321 328.5 311 c 128,-1,12
 355 301 355 301 381 301 c 0,13,14
 437 301 437 301 478.5 346.5 c 128,-1,15
 520 392 520 392 520 459.5 c 128,-1,16
 520 527 520 527 475.5 577 c 128,-1,17
 431 627 431 627 360 627 c 128,-1,18
 289 627 289 627 228 589 c 1,19,20
 216 283 216 283 216 -204 c 0,21,22
 216 -291 216 -291 161 -291 c 0,23,24
 140 -291 140 -291 123.5 -275 c 128,-1,25
 107 -259 107 -259 107 -234.5 c 128,-1,26
 107 -210 107 -210 128.5 -180 c 128,-1,27
 150 -150 150 -150 150 -117 c 0,28,29
 150 206 150 206 147 306 c 0,30,31
 142 473 142 473 142 516 c 1,32,33
 114 483 114 483 97 448 c 128,-1,34
 80 413 80 413 60 413 c 0,35,36
 33 413 33 413 33 441 c 128,-1,37
 33 469 33 469 64 510.5 c 128,-1,38
 95 552 95 552 143.5 593.5 c 128,-1,39
 192 635 192 635 261.5 665.5 c 128,-1,40
 331 696 331 696 398 696 c 0,0,1
EndSplineSet
EndChar

StartChar: Q
Encoding: 81 81 52
Width: 712
GlyphClass: 2
Flags: W
LayerCount: 2
Fore
SplineSet
343 63 m 0,0,1
 373 63 373 63 437 85 c 128,-1,2
 501 107 501 107 558.5 107 c 128,-1,3
 616 107 616 107 651.5 73.5 c 128,-1,4
 687 40 687 40 687 -28.5 c 128,-1,5
 687 -97 687 -97 641.5 -161 c 128,-1,6
 596 -225 596 -225 540.5 -257.5 c 128,-1,7
 485 -290 485 -290 443 -290 c 0,8,9
 420 -290 420 -290 408 -278 c 128,-1,10
 396 -266 396 -266 396 -247 c 128,-1,11
 396 -228 396 -228 410 -213 c 128,-1,12
 424 -198 424 -198 436.5 -198 c 128,-1,13
 449 -198 449 -198 466.5 -205 c 128,-1,14
 484 -212 484 -212 500 -212 c 0,15,16
 545 -212 545 -212 583 -174 c 128,-1,17
 621 -136 621 -136 621 -82.5 c 128,-1,18
 621 -29 621 -29 589 2 c 128,-1,19
 557 33 557 33 506 33 c 0,20,21
 478 33 478 33 427 13.5 c 128,-1,22
 376 -6 376 -6 329 -6 c 0,23,24
 206 -6 206 -6 115.5 84.5 c 128,-1,25
 25 175 25 175 25 326 c 128,-1,26
 25 477 25 477 124.5 586.5 c 128,-1,27
 224 696 224 696 366.5 696 c 128,-1,28
 509 696 509 696 598 604.5 c 128,-1,29
 687 513 687 513 687 376 c 0,30,31
 687 296 687 296 660 220 c 128,-1,32
 633 144 633 144 595 144 c 0,33,34
 571 144 571 144 571 169 c 0,35,36
 571 173 571 173 588 222 c 128,-1,37
 605 271 605 271 605 325 c 0,38,39
 605 447 605 447 534.5 537.5 c 128,-1,40
 464 628 464 628 344 628 c 0,41,42
 239 628 239 628 173 557 c 128,-1,43
 107 486 107 486 107 364.5 c 128,-1,44
 107 243 107 243 180 153 c 128,-1,45
 253 63 253 63 343 63 c 0,0,1
EndSplineSet
EndChar

StartChar: R
Encoding: 82 82 53
Width: 580
GlyphClass: 2
Flags: W
LayerCount: 2
Fore
SplineSet
206 263 m 1,0,-1
 215 46 l 2,1,2
 215 26 215 26 201.5 10 c 128,-1,3
 188 -6 188 -6 167 -6 c 128,-1,4
 146 -6 146 -6 132.5 10 c 128,-1,5
 119 26 119 26 119 42 c 128,-1,6
 119 58 119 58 123.5 153 c 128,-1,7
 128 248 128 248 128 337 c 128,-1,8
 128 426 128 426 126 483.5 c 128,-1,9
 124 541 124 541 121.5 576 c 128,-1,10
 119 611 119 611 119 621 c 1,11,-1
 101 621 l 2,12,13
 85 621 85 621 72.5 631.5 c 128,-1,14
 60 642 60 642 60 658.5 c 128,-1,15
 60 675 60 675 72.5 685.5 c 128,-1,16
 85 696 85 696 97.5 696 c 128,-1,17
 110 696 110 696 131.5 693 c 128,-1,18
 153 690 153 690 174 690 c 2,19,-1
 322 696 l 1,20,21
 382 696 382 696 442 654 c 0,22,23
 473 632 473 632 492 591 c 128,-1,24
 511 550 511 550 511 496 c 0,25,26
 511 409 511 409 465.5 351.5 c 128,-1,27
 420 294 420 294 356 267 c 1,28,29
 407 242 407 242 458.5 181.5 c 128,-1,30
 510 121 510 121 567.5 36 c 128,-1,31
 625 -49 625 -49 656 -86 c 128,-1,32
 687 -123 687 -123 726 -153.5 c 128,-1,33
 765 -184 765 -184 781 -199.5 c 128,-1,34
 797 -215 797 -215 797 -237 c 128,-1,35
 797 -259 797 -259 780 -274.5 c 128,-1,36
 763 -290 763 -290 735 -290 c 0,37,38
 697 -290 697 -290 651.5 -233 c 128,-1,39
 606 -176 606 -176 559 -95 c 128,-1,40
 512 -14 512 -14 460.5 67.5 c 128,-1,41
 409 149 409 149 342 206 c 128,-1,42
 275 263 275 263 206 263 c 1,0,-1
273 627 m 1,43,-1
 215 626 l 1,44,45
 215 615 215 615 212 580 c 0,46,47
 206 489 206 489 206 348 c 2,48,-1
 206 321 l 1,49,50
 256 307 256 307 276.5 307 c 128,-1,51
 297 307 297 307 315 310.5 c 128,-1,52
 333 314 333 314 356 324.5 c 128,-1,53
 379 335 379 335 397 351 c 128,-1,54
 415 367 415 367 427.5 395 c 128,-1,55
 440 423 440 423 440 459 c 0,56,57
 440 545 440 545 391.5 586 c 128,-1,58
 343 627 343 627 273 627 c 1,43,-1
EndSplineSet
EndChar

StartChar: S
Encoding: 83 83 54
Width: 522
GlyphClass: 2
Flags: W
LayerCount: 2
Fore
SplineSet
395 567 m 0,0,1
 338 636 338 636 278 636 c 0,2,3
 231 636 231 636 199 604 c 128,-1,4
 167 572 167 572 167 528 c 128,-1,5
 167 484 167 484 192.5 455 c 128,-1,6
 218 426 218 426 256 407 c 128,-1,7
 294 388 294 388 338 362.5 c 128,-1,8
 382 337 382 337 420 309.5 c 128,-1,9
 458 282 458 282 483.5 234.5 c 128,-1,10
 509 187 509 187 509 118 c 128,-1,11
 509 49 509 49 482 -19 c 128,-1,12
 455 -87 455 -87 411 -136 c 128,-1,13
 367 -185 367 -185 310 -220 c 0,14,15
 196 -290 196 -290 73 -290 c 0,16,17
 -10 -290 -10 -290 -71.5 -249 c 128,-1,18
 -133 -208 -133 -208 -133 -156 c 128,-1,19
 -133 -104 -133 -104 -84 -104 c 0,20,21
 -65 -104 -65 -104 -7 -157 c 0,22,23
 15 -177 15 -177 53.5 -193.5 c 128,-1,24
 92 -210 92 -210 139.5 -210 c 128,-1,25
 187 -210 187 -210 239 -192 c 128,-1,26
 291 -174 291 -174 336.5 -140.5 c 128,-1,27
 382 -107 382 -107 410 -51.5 c 128,-1,28
 438 4 438 4 438 72.5 c 128,-1,29
 438 141 438 141 402 189 c 128,-1,30
 366 237 366 237 315 264 c 128,-1,31
 264 291 264 291 213 316.5 c 128,-1,32
 162 342 162 342 126 382 c 128,-1,33
 90 422 90 422 90 479.5 c 128,-1,34
 90 537 90 537 115.5 582 c 128,-1,35
 141 627 141 627 180 650 c 1,36,37
 254 696 254 696 327 696 c 128,-1,38
 400 696 400 696 446 662 c 128,-1,39
 492 628 492 628 492 584 c 0,40,41
 492 558 492 558 479 544.5 c 128,-1,42
 466 531 466 531 449 531 c 128,-1,43
 432 531 432 531 420.5 540.5 c 128,-1,44
 409 550 409 550 395 567 c 0,0,1
EndSplineSet
EndChar

StartChar: T
Encoding: 84 84 55
Width: 569
GlyphClass: 2
Flags: W
LayerCount: 2
Fore
SplineSet
263 627 m 1,0,1
 263 627 263 627 210 628 c 1,2,3
 70 628 70 628 70 546 c 0,4,5
 70 490 70 490 127 479 c 0,6,7
 165 472 165 472 165 439 c 0,8,9
 165 421 165 421 152.5 410.5 c 128,-1,10
 140 400 140 400 119 400 c 0,11,12
 75 400 75 400 45 437.5 c 128,-1,13
 15 475 15 475 15 523 c 0,14,15
 15 696 15 696 311 696 c 2,16,-1
 513 696 l 2,17,18
 529 696 529 696 541.5 685.5 c 128,-1,19
 554 675 554 675 554 657 c 128,-1,20
 554 639 554 639 541.5 628.5 c 128,-1,21
 529 618 529 618 513 618 c 2,22,-1
 358 623 l 1,23,24
 350 451 350 451 350 349.5 c 128,-1,25
 350 248 350 248 354.5 153 c 128,-1,26
 359 58 359 58 359 42 c 128,-1,27
 359 26 359 26 345.5 10 c 128,-1,28
 332 -6 332 -6 311 -6 c 128,-1,29
 290 -6 290 -6 276.5 10 c 128,-1,30
 263 26 263 26 263 42 c 128,-1,31
 263 58 263 58 267.5 153 c 128,-1,32
 272 248 272 248 272 341 c 128,-1,33
 272 434 272 434 263 627 c 1,0,1
EndSplineSet
EndChar

StartChar: U
Encoding: 85 85 56
Width: 676
GlyphClass: 2
Flags: W
LayerCount: 2
Fore
SplineSet
262.5 659.5 m 128,-1,1
 296 623 296 623 296 579.5 c 128,-1,2
 296 536 296 536 272.5 491.5 c 128,-1,3
 249 447 249 447 221.5 411 c 128,-1,4
 194 375 194 375 170.5 325 c 128,-1,5
 147 275 147 275 147 228 c 0,6,7
 147 145 147 145 202 104 c 128,-1,8
 257 63 257 63 340 63 c 0,9,10
 383 63 383 63 431.5 82.5 c 128,-1,11
 480 102 480 102 508 125 c 1,12,13
 514 275 514 275 514 368.5 c 128,-1,14
 514 462 514 462 509.5 550.5 c 128,-1,15
 505 639 505 639 505 642 c 0,16,17
 505 663 505 663 518.5 679.5 c 128,-1,18
 532 696 532 696 553 696 c 128,-1,19
 574 696 574 696 587.5 679.5 c 128,-1,20
 601 663 601 663 601 642 c 0,21,22
 601 639 601 639 596.5 550.5 c 128,-1,23
 592 462 592 462 592 355 c 128,-1,24
 592 248 592 248 596.5 153 c 128,-1,25
 601 58 601 58 601 42 c 128,-1,26
 601 26 601 26 587.5 10 c 128,-1,27
 574 -6 574 -6 553 -6 c 128,-1,28
 532 -6 532 -6 518.5 10 c 128,-1,29
 505 26 505 26 505 46 c 2,30,-1
 505 73 l 1,31,32
 410 -6 410 -6 305.5 -6 c 128,-1,33
 201 -6 201 -6 132.5 48 c 128,-1,34
 64 102 64 102 64 194 c 0,35,36
 64 254 64 254 88.5 311 c 128,-1,37
 113 368 113 368 142 404 c 0,38,39
 220 499 220 499 220 552 c 0,40,41
 220 620 220 620 149 620 c 0,42,43
 121 620 121 620 103.5 598 c 128,-1,44
 86 576 86 576 86 538 c 0,45,46
 86 525 86 525 77.5 515.5 c 128,-1,47
 69 506 69 506 57 506 c 128,-1,48
 45 506 45 506 37.5 515.5 c 128,-1,49
 30 525 30 525 30 538 c 0,50,51
 30 605 30 605 72 650.5 c 128,-1,52
 114 696 114 696 171.5 696 c 128,-1,0
 229 696 229 696 262.5 659.5 c 128,-1,1
EndSplineSet
EndChar

StartChar: V
Encoding: 86 86 57
Width: 650
GlyphClass: 2
Flags: W
LayerCount: 2
Fore
SplineSet
537 484 m 0,0,1
 537 612 537 612 432 612 c 0,2,3
 389 612 389 612 359 592 c 128,-1,4
 329 572 329 572 329 535 c 0,5,6
 329 512 329 512 341.5 502.5 c 128,-1,7
 354 493 354 493 377 487.5 c 128,-1,8
 400 482 400 482 409 478.5 c 128,-1,9
 418 475 418 475 425.5 465 c 128,-1,10
 433 455 433 455 433 436 c 128,-1,11
 433 417 433 417 418 404.5 c 128,-1,12
 403 392 403 392 381 392 c 0,13,14
 342 392 342 392 308 426 c 128,-1,15
 274 460 274 460 274 507 c 0,16,17
 274 571 274 571 329.5 633.5 c 128,-1,18
 385 696 385 696 462 696 c 128,-1,19
 539 696 539 696 579.5 649 c 128,-1,20
 620 602 620 602 620 525 c 0,21,22
 620 405 620 405 528.5 244 c 128,-1,23
 437 83 437 83 343 10 c 0,24,25
 322 -6 322 -6 307 -6 c 0,26,27
 274 -6 274 -6 259 33 c 2,28,-1
 147 327 l 2,29,30
 127 378 127 378 104 433.5 c 128,-1,31
 81 489 81 489 70 516 c 128,-1,32
 59 543 59 543 48 571 c 0,33,34
 30 620 30 620 30 642.5 c 128,-1,35
 30 665 30 665 41 680.5 c 128,-1,36
 52 696 52 696 72 696 c 0,37,38
 107 696 107 696 124 655 c 0,39,40
 127 647 127 647 140 606 c 0,41,42
 259 252 259 252 338 84 c 1,43,44
 414 151 414 151 475.5 264.5 c 128,-1,45
 537 378 537 378 537 484 c 0,0,1
EndSplineSet
EndChar

StartChar: W
Encoding: 87 87 58
Width: 874
GlyphClass: 2
Flags: W
LayerCount: 2
Fore
SplineSet
761 488 m 0,0,1
 761 612 761 612 672 612 c 0,2,3
 632 612 632 612 602.5 591.5 c 128,-1,4
 573 571 573 571 573 534 c 0,5,6
 573 511 573 511 585 502.5 c 128,-1,7
 597 494 597 494 625 487 c 128,-1,8
 653 480 653 480 665 471 c 128,-1,9
 677 462 677 462 677 439.5 c 128,-1,10
 677 417 677 417 662 404.5 c 128,-1,11
 647 392 647 392 625 392 c 0,12,13
 586 392 586 392 552 428.5 c 128,-1,14
 518 465 518 465 518 524.5 c 128,-1,15
 518 584 518 584 567 640 c 128,-1,16
 616 696 616 696 692 696 c 128,-1,17
 768 696 768 696 806 650 c 128,-1,18
 844 604 844 604 844 528 c 0,19,20
 844 408 844 408 758 245 c 128,-1,21
 672 82 672 82 587 10 c 0,22,23
 569 -6 569 -6 551 -6 c 0,24,25
 519 -6 519 -6 503 33 c 0,26,27
 500 39 500 39 494 57 c 0,28,29
 471 127 471 127 454 174 c 1,30,31
 385 62 385 62 323 10 c 0,32,33
 305 -6 305 -6 287 -6 c 0,34,35
 254 -6 254 -6 239 33 c 0,36,37
 237 39 237 39 220 88 c 128,-1,38
 203 137 203 137 179 206.5 c 128,-1,39
 155 276 155 276 137 326 c 128,-1,40
 119 376 119 376 99 429.5 c 128,-1,41
 79 483 79 483 68.5 511 c 128,-1,42
 58 539 58 539 48 568 c 0,43,44
 30 619 30 619 30 642 c 128,-1,45
 30 665 30 665 41 680.5 c 128,-1,46
 52 696 52 696 72 696 c 0,47,48
 109 696 109 696 124 655 c 0,49,50
 127 648 127 648 138 608 c 0,51,52
 196 412 196 412 313 84 c 1,53,54
 379 154 379 154 429 248 c 1,55,56
 419 273 419 273 399.5 329.5 c 128,-1,57
 380 386 380 386 359.5 442.5 c 128,-1,58
 339 499 339 499 328.5 526.5 c 128,-1,59
 318 554 318 554 309 580 c 0,60,61
 294 622 294 622 294 644 c 128,-1,62
 294 666 294 666 305 681 c 128,-1,63
 316 696 316 696 336 696 c 0,64,65
 373 696 373 696 388 655 c 0,66,67
 391 648 391 648 402 608 c 0,68,69
 460 412 460 412 577 84 c 1,70,71
 647 158 647 158 704 268.5 c 128,-1,72
 761 379 761 379 761 488 c 0,0,1
EndSplineSet
EndChar

StartChar: X
Encoding: 88 88 59
Width: 579
GlyphClass: 2
Flags: W
LayerCount: 2
Fore
SplineSet
79 -5 m 0,0,1
 57 -5 57 -5 43.5 10.5 c 128,-1,2
 30 26 30 26 30 43 c 128,-1,3
 30 60 30 60 41 82 c 128,-1,4
 52 104 52 104 74.5 135 c 128,-1,5
 97 166 97 166 120 195 c 128,-1,6
 143 224 143 224 179.5 270 c 128,-1,7
 216 316 216 316 242 350 c 1,8,9
 204 401 204 401 142 477 c 128,-1,10
 80 553 80 553 55 589.5 c 128,-1,11
 30 626 30 626 30 646 c 128,-1,12
 30 666 30 666 40.5 681 c 128,-1,13
 51 696 51 696 77 696 c 128,-1,14
 103 696 103 696 130 657 c 1,15,16
 236 485 236 485 288 414 c 1,17,18
 338 482 338 482 391 566.5 c 128,-1,19
 444 651 444 651 449 658 c 0,20,21
 473 696 473 696 495 696 c 0,22,23
 538 696 538 696 538 653 c 0,24,25
 538 624 538 624 490 562 c 1,26,27
 446 507 446 507 397.5 450 c 128,-1,28
 349 393 349 393 326 364 c 1,29,30
 348 336 348 336 400 268.5 c 128,-1,31
 452 201 452 201 476 170.5 c 128,-1,32
 500 140 500 140 543 85 c 128,-1,33
 586 30 586 30 611.5 1 c 128,-1,34
 637 -28 637 -28 670 -63 c 0,35,36
 729 -127 729 -127 765.5 -147 c 128,-1,37
 802 -167 802 -167 845.5 -183 c 128,-1,38
 889 -199 889 -199 906.5 -210 c 128,-1,39
 924 -221 924 -221 924 -240 c 128,-1,40
 924 -259 924 -259 906.5 -274.5 c 128,-1,41
 889 -290 889 -290 857.5 -290 c 128,-1,42
 826 -290 826 -290 788.5 -275 c 128,-1,43
 751 -260 751 -260 719 -239.5 c 128,-1,44
 687 -219 687 -219 646 -178 c 128,-1,45
 605 -137 605 -137 576 -104.5 c 128,-1,46
 547 -72 547 -72 501.5 -12 c 128,-1,47
 456 48 456 48 430 85 c 0,48,49
 357 186 357 186 278 300 c 1,50,51
 181 164 181 164 130 34 c 0,52,53
 115 -5 115 -5 79 -5 c 0,0,1
EndSplineSet
EndChar

StartChar: Y
Encoding: 89 89 60
Width: 629
GlyphClass: 2
Flags: W
LayerCount: 2
Fore
SplineSet
-216 -199 m 1,0,-1
 -163 -207 l 1,1,2
 -103 -207 -103 -207 -8.5 -129.5 c 128,-1,3
 86 -52 86 -52 171 52 c 128,-1,4
 256 156 256 156 307 249 c 1,5,6
 213 388 213 388 149.5 468.5 c 128,-1,7
 86 549 86 549 70 570 c 0,8,9
 30 621 30 621 30 652 c 0,10,11
 30 696 30 696 74 696 c 0,12,13
 93 696 93 696 112 677.5 c 128,-1,14
 131 659 131 659 145 635 c 128,-1,15
 159 611 159 611 185 565 c 0,16,17
 266 422 266 422 353 320 c 1,18,19
 420 429 420 429 492 596 c 0,20,21
 517 655 517 655 518 657 c 0,22,23
 538 696 538 696 565 696 c 0,24,25
 599 696 599 696 599 657 c 0,26,27
 599 633 599 633 573 583 c 128,-1,28
 547 533 547 533 486 429.5 c 128,-1,29
 425 326 425 326 385 252 c 1,30,31
 251 27 251 27 106 -124 c 0,32,33
 31 -202 31 -202 -46.5 -246 c 128,-1,34
 -124 -290 -124 -290 -193 -290 c 0,35,36
 -226 -290 -226 -290 -246 -276.5 c 128,-1,37
 -266 -263 -266 -263 -266 -244 c 128,-1,38
 -266 -225 -266 -225 -253.5 -212 c 128,-1,39
 -241 -199 -241 -199 -216 -199 c 1,0,-1
EndSplineSet
EndChar

StartChar: Z
Encoding: 90 90 61
Width: 612
GlyphClass: 2
Flags: W
LayerCount: 2
Fore
SplineSet
316 690 m 1,0,-1
 518 696 l 2,1,2
 534 696 534 696 546.5 685.5 c 128,-1,3
 559 675 559 675 559 658 c 128,-1,4
 559 641 559 641 553.5 622 c 128,-1,5
 548 603 548 603 533 577.5 c 128,-1,6
 518 552 518 552 506.5 533.5 c 128,-1,7
 495 515 495 515 468 480.5 c 128,-1,8
 441 446 441 446 428.5 429.5 c 128,-1,9
 416 413 416 413 381.5 371 c 128,-1,10
 347 329 347 329 336 315 c 0,11,12
 209 170 209 170 132 44 c 1,13,14
 213 1 213 1 310.5 -32.5 c 128,-1,15
 408 -66 408 -66 464 -66 c 128,-1,16
 520 -66 520 -66 548.5 -47 c 128,-1,17
 577 -28 577 -28 577 0 c 0,18,19
 577 45 577 45 522 55 c 0,20,21
 502 58 502 58 487.5 70.5 c 128,-1,22
 473 83 473 83 473 103.5 c 128,-1,23
 473 124 473 124 488 136.5 c 128,-1,24
 503 149 503 149 524 149 c 0,25,26
 565 149 565 149 598.5 115.5 c 128,-1,27
 632 82 632 82 632 28 c 0,28,29
 632 -42 632 -42 576 -91 c 128,-1,30
 520 -140 520 -140 438 -140 c 128,-1,31
 356 -140 356 -140 246.5 -96 c 128,-1,32
 137 -52 137 -52 79 -5 c 0,33,34
 50 18 50 18 50 46 c 0,35,36
 50 65 50 65 67.5 92.5 c 128,-1,37
 85 120 85 120 96.5 136.5 c 128,-1,38
 108 153 108 153 132 183 c 128,-1,39
 156 213 156 213 172 232 c 0,40,41
 241 317 241 317 273 357 c 0,42,43
 429 549 429 549 455 619 c 1,44,45
 345 624 345 624 316 624 c 2,46,-1
 114 618 l 2,47,48
 98 618 98 618 85.5 628.5 c 128,-1,49
 73 639 73 639 73 657 c 128,-1,50
 73 675 73 675 85.5 685.5 c 128,-1,51
 98 696 98 696 114 696 c 2,52,-1
 316 690 l 1,0,-1
EndSplineSet
EndChar

StartChar: bracketleft
Encoding: 91 91 62
Width: 326
GlyphClass: 2
Flags: W
LayerCount: 2
Fore
SplineSet
137 687 m 1,0,-1
 138 233 l 1,1,-1
 137 -227 l 1,2,3
 157 -229 157 -229 168 -229 c 2,4,-1
 236 -224 l 2,5,6
 247 -224 247 -224 259 -233 c 128,-1,7
 271 -242 271 -242 271 -257 c 128,-1,8
 271 -272 271 -272 259 -281 c 128,-1,9
 247 -290 247 -290 236 -290 c 2,10,-1
 168 -285 l 1,11,-1
 97 -290 l 1,12,13
 78 -290 78 -290 66.5 -275 c 128,-1,14
 55 -260 55 -260 55 -249.5 c 128,-1,15
 55 -239 55 -239 60.5 -72.5 c 128,-1,16
 66 94 66 94 66 218.5 c 128,-1,17
 66 343 66 343 63 449.5 c 128,-1,18
 60 556 60 556 57.5 622 c 128,-1,19
 55 688 55 688 55 704 c 128,-1,20
 55 720 55 720 68.5 735 c 128,-1,21
 82 750 82 750 101 750 c 1,22,-1
 168 745 l 1,23,-1
 236 750 l 2,24,25
 247 750 247 750 259 741 c 128,-1,26
 271 732 271 732 271 717 c 128,-1,27
 271 702 271 702 259 693 c 128,-1,28
 247 684 247 684 236 684 c 2,29,-1
 168 689 l 2,30,31
 157 689 157 689 137 687 c 1,0,-1
EndSplineSet
EndChar

StartChar: backslash
Encoding: 92 92 63
Width: 496
GlyphClass: 2
Flags: W
LayerCount: 2
Fore
SplineSet
440 -6 m 0,0,1
 409 -6 409 -6 374 56 c 0,2,3
 356 88 356 88 338 124 c 0,4,5
 241 322 241 322 130 483 c 0,6,7
 73 566 73 566 51 601.5 c 128,-1,8
 29 637 29 637 29 657 c 0,9,10
 29 696 29 696 67 696 c 0,11,12
 98 696 98 696 133 634 c 0,13,14
 151 602 151 602 168 566 c 0,15,16
 266 368 266 368 377 207 c 0,17,18
 434 124 434 124 456 88.5 c 128,-1,19
 478 53 478 53 478 33 c 0,20,21
 478 -6 478 -6 440 -6 c 0,0,1
EndSplineSet
EndChar

StartChar: bracketright
Encoding: 93 93 64
Width: 326
GlyphClass: 2
Flags: W
LayerCount: 2
Fore
SplineSet
189 -227 m 1,0,-1
 188 227 l 1,1,-1
 189 687 l 1,2,3
 169 689 169 689 158 689 c 2,4,-1
 90 684 l 2,5,6
 79 684 79 684 67 693 c 128,-1,7
 55 702 55 702 55 717 c 128,-1,8
 55 732 55 732 67 741 c 128,-1,9
 79 750 79 750 90 750 c 2,10,-1
 158 745 l 1,11,-1
 229 750 l 1,12,13
 248 750 248 750 259.5 735 c 128,-1,14
 271 720 271 720 271 709.5 c 128,-1,15
 271 699 271 699 265.5 532.5 c 128,-1,16
 260 366 260 366 260 241.5 c 128,-1,17
 260 117 260 117 263 10.5 c 128,-1,18
 266 -96 266 -96 268.5 -162 c 128,-1,19
 271 -228 271 -228 271 -244 c 128,-1,20
 271 -260 271 -260 257.5 -275 c 128,-1,21
 244 -290 244 -290 225 -290 c 1,22,-1
 158 -285 l 1,23,-1
 90 -290 l 2,24,25
 79 -290 79 -290 67 -281 c 128,-1,26
 55 -272 55 -272 55 -257 c 128,-1,27
 55 -242 55 -242 67 -233 c 128,-1,28
 79 -224 79 -224 90 -224 c 2,29,-1
 158 -229 l 2,30,31
 169 -229 169 -229 189 -227 c 1,0,-1
EndSplineSet
EndChar

StartChar: asciicircum
Encoding: 94 94 65
Width: 602
GlyphClass: 2
Flags: W
LayerCount: 2
Fore
SplineSet
557 172 m 0,0,1
 557 148 557 148 545 133 c 128,-1,2
 533 118 533 118 513 118 c 0,3,4
 479 118 479 118 464 170 c 0,5,6
 446 237 446 237 403 313.5 c 128,-1,7
 360 390 360 390 301 453 c 1,8,9
 242 390 242 390 199.5 313 c 128,-1,10
 157 236 157 236 138 170 c 0,11,12
 123 118 123 118 89 118 c 0,13,14
 69 118 69 118 57 133 c 128,-1,15
 45 148 45 148 45 172 c 0,16,17
 45 209 45 209 97.5 297 c 128,-1,18
 150 385 150 385 212.5 459.5 c 128,-1,19
 275 534 275 534 301 537 c 1,20,21
 327 534 327 534 389.5 459.5 c 128,-1,22
 452 385 452 385 504.5 297 c 128,-1,23
 557 209 557 209 557 172 c 0,0,1
EndSplineSet
EndChar

StartChar: underscore
Encoding: 95 95 66
Width: 533
GlyphClass: 2
Flags: W
LayerCount: 2
Fore
SplineSet
83 -109 m 2,0,-1
 267 -114 l 1,1,-1
 451 -109 l 2,2,3
 465 -109 465 -109 474 -118 c 128,-1,4
 483 -127 483 -127 483 -141 c 128,-1,5
 483 -155 483 -155 474 -164.5 c 128,-1,6
 465 -174 465 -174 451 -174 c 2,7,-1
 267 -170 l 1,8,-1
 83 -174 l 2,9,10
 69 -174 69 -174 59.5 -164.5 c 128,-1,11
 50 -155 50 -155 50 -141 c 128,-1,12
 50 -127 50 -127 59.5 -118 c 128,-1,13
 69 -109 69 -109 83 -109 c 2,0,-1
EndSplineSet
EndChar

StartChar: grave
Encoding: 96 96 67
Width: 296
GlyphClass: 2
Flags: W
LayerCount: 2
Fore
SplineSet
246 525 m 0,0,1
 246 513 246 513 234 513 c 0,2,3
 230 513 230 513 222 518 c 0,4,5
 165 552 165 552 87 566 c 0,6,7
 50 573 50 573 50 606 c 0,8,9
 50 621 50 621 61.5 631.5 c 128,-1,10
 73 642 73 642 88 642 c 0,11,12
 135 642 135 642 238 539 c 0,13,14
 246 531 246 531 246 525 c 0,0,1
EndSplineSet
EndChar

StartChar: a
Encoding: 97 97 68
Width: 459
GlyphClass: 2
Flags: W
LayerCount: 2
Fore
SplineSet
411.5 85.5 m 128,-1,1
 434 55 434 55 434 36 c 128,-1,2
 434 17 434 17 424 5.5 c 128,-1,3
 414 -6 414 -6 397 -6 c 0,4,5
 356 -6 356 -6 324 79 c 1,6,-1
 316 101 l 1,7,8
 265 -6 265 -6 163 -6 c 0,9,10
 112 -6 112 -6 78.5 26.5 c 128,-1,11
 45 59 45 59 45 108 c 0,12,13
 45 184 45 184 97 239 c 128,-1,14
 149 294 149 294 233 298 c 1,15,16
 213 333 213 333 188.5 350.5 c 128,-1,17
 164 368 164 368 144 371 c 128,-1,18
 124 374 124 374 106.5 374.5 c 128,-1,19
 89 375 89 375 79 382 c 128,-1,20
 69 389 69 389 69 409.5 c 128,-1,21
 69 430 69 430 85.5 443 c 128,-1,22
 102 456 102 456 125 456 c 0,23,24
 190 456 190 456 253 391 c 128,-1,25
 316 326 316 326 363 187 c 1,26,-1
 382 134 l 2,27,0
 389 116 389 116 411.5 85.5 c 128,-1,1
143.5 221 m 128,-1,29
 115 197 115 197 115 159 c 128,-1,30
 115 121 115 121 140.5 95.5 c 128,-1,31
 166 70 166 70 202 70 c 128,-1,32
 238 70 238 70 264 95.5 c 128,-1,33
 290 121 290 121 290 156 c 0,34,35
 290 181 290 181 281 202.5 c 128,-1,36
 272 224 272 224 270 229 c 1,37,38
 244 245 244 245 208 245 c 128,-1,28
 172 245 172 245 143.5 221 c 128,-1,29
EndSplineSet
EndChar

StartChar: b
Encoding: 98 98 69
Width: 522
GlyphClass: 2
Flags: W
LayerCount: 2
Fore
SplineSet
63 160 m 1,0,1
 63 160 63 160 71 343 c 1,2,3
 71 506 71 506 63 598 c 128,-1,4
 55 690 55 690 55 693 c 0,5,6
 55 750 55 750 99 750 c 0,7,8
 152 750 152 750 152 668 c 0,9,10
 152 619 152 619 141.5 501 c 128,-1,11
 131 383 131 383 130 344 c 1,12,13
 172 396 172 396 230.5 426 c 128,-1,14
 289 456 289 456 348.5 456 c 128,-1,15
 408 456 408 456 452.5 407.5 c 128,-1,16
 497 359 497 359 497 290 c 0,17,18
 497 179 497 179 412 86.5 c 128,-1,19
 327 -6 327 -6 219 -6 c 0,20,21
 152 -6 152 -6 107.5 42.5 c 128,-1,22
 63 91 63 91 63 160 c 1,0,1
128 225 m 128,-1,24
 128 161 128 161 172.5 116.5 c 128,-1,25
 217 72 217 72 280.5 72 c 128,-1,26
 344 72 344 72 387 116.5 c 128,-1,27
 430 161 430 161 430 225 c 128,-1,28
 430 289 430 289 387 333 c 128,-1,29
 344 377 344 377 280.5 377 c 128,-1,30
 217 377 217 377 172.5 333 c 128,-1,23
 128 289 128 289 128 225 c 128,-1,24
EndSplineSet
EndChar

StartChar: c
Encoding: 99 99 70
Width: 396
GlyphClass: 2
Flags: W
LayerCount: 2
Fore
SplineSet
240 378 m 0,0,1
 174 378 174 378 132.5 332.5 c 128,-1,2
 91 287 91 287 91 224 c 128,-1,3
 91 161 91 161 134.5 117 c 128,-1,4
 178 73 178 73 241 73 c 0,5,6
 297 73 297 73 342 114 c 0,7,8
 358 128 358 128 366 128 c 128,-1,9
 374 128 374 128 380 122 c 128,-1,10
 386 116 386 116 386 109 c 0,11,12
 386 80 386 80 329.5 37 c 128,-1,13
 273 -6 273 -6 201.5 -6 c 128,-1,14
 130 -6 130 -6 77.5 52 c 128,-1,15
 25 110 25 110 25 196 c 0,16,17
 25 306 25 306 108 381 c 128,-1,18
 191 456 191 456 291 456 c 0,19,20
 333 456 333 456 359.5 441.5 c 128,-1,21
 386 427 386 427 386 404.5 c 128,-1,22
 386 382 386 382 372.5 368 c 128,-1,23
 359 354 359 354 346 354 c 128,-1,24
 333 354 333 354 301.5 366 c 128,-1,25
 270 378 270 378 240 378 c 0,0,1
EndSplineSet
EndChar

StartChar: d
Encoding: 100 100 71
Width: 545
GlyphClass: 2
Flags: W
LayerCount: 2
Fore
SplineSet
68 44 m 128,-1,1
 25 94 25 94 25 159.5 c 128,-1,2
 25 225 25 225 51 282 c 128,-1,3
 77 339 77 339 117 376 c 128,-1,4
 157 413 157 413 203.5 434.5 c 128,-1,5
 250 456 250 456 299.5 456 c 128,-1,6
 349 456 349 456 391 419 c 1,7,8
 390 494 390 494 384 583.5 c 128,-1,9
 378 673 378 673 378 696 c 128,-1,10
 378 719 378 719 390 734.5 c 128,-1,11
 402 750 402 750 421 750 c 128,-1,12
 440 750 440 750 453.5 733.5 c 128,-1,13
 467 717 467 717 467 689.5 c 128,-1,14
 467 662 467 662 458.5 561.5 c 128,-1,15
 450 461 450 461 450 373 c 128,-1,16
 450 285 450 285 457 220.5 c 128,-1,17
 464 156 464 156 472 133 c 0,18,19
 495 72 495 72 495 51 c 0,20,21
 495 -6 495 -6 451 -6 c 0,22,23
 398 -6 398 -6 389 107 c 1,24,25
 349 54 349 54 293 24 c 128,-1,26
 237 -6 237 -6 174 -6 c 128,-1,0
 111 -6 111 -6 68 44 c 128,-1,1
91 225 m 128,-1,28
 91 161 91 161 135.5 116.5 c 128,-1,29
 180 72 180 72 243.5 72 c 128,-1,30
 307 72 307 72 350 116.5 c 128,-1,31
 393 161 393 161 393 229 c 128,-1,32
 393 297 393 297 354 337 c 128,-1,33
 315 377 315 377 247.5 377 c 128,-1,34
 180 377 180 377 135.5 333 c 128,-1,27
 91 289 91 289 91 225 c 128,-1,28
EndSplineSet
EndChar

StartChar: e
Encoding: 101 101 72
Width: 406
GlyphClass: 2
Flags: W
LayerCount: 2
Fore
SplineSet
238 199 m 1,0,-1
 119 209 l 1,1,2
 102 209 102 209 92 206 c 1,3,4
 98 149 98 149 140.5 111 c 128,-1,5
 183 73 183 73 241 73 c 0,6,7
 297 73 297 73 342 114 c 0,8,9
 358 128 358 128 366 128 c 128,-1,10
 374 128 374 128 380 122 c 128,-1,11
 386 116 386 116 386 109 c 0,12,13
 386 80 386 80 329.5 37 c 128,-1,14
 273 -6 273 -6 201.5 -6 c 128,-1,15
 130 -6 130 -6 77.5 52 c 128,-1,16
 25 110 25 110 25 196 c 0,17,18
 25 306 25 306 108 381 c 128,-1,19
 191 456 191 456 291 456 c 0,20,21
 333 456 333 456 359.5 441.5 c 128,-1,22
 386 427 386 427 386 404.5 c 128,-1,23
 386 382 386 382 372.5 368 c 128,-1,24
 359 354 359 354 346 354 c 128,-1,25
 333 354 333 354 301.5 366 c 128,-1,26
 270 378 270 378 241 378 c 0,27,28
 187 378 187 378 147.5 345.5 c 128,-1,29
 108 313 108 313 95 265 c 1,30,-1
 233 273 l 1,31,32
 279 273 279 273 279 237 c 0,33,34
 279 199 279 199 238 199 c 1,0,-1
EndSplineSet
EndChar

StartChar: f
Encoding: 102 102 73
Width: 358
GlyphClass: 2
Flags: W
LayerCount: 2
Fore
SplineSet
79.5 -58 m 128,-1,1
 89 18 89 18 89 116 c 128,-1,2
 89 214 89 214 80 385 c 1,3,-1
 49 385 l 2,4,5
 10 385 10 385 10 419 c 128,-1,6
 10 453 10 453 49 453 c 0,7,8
 69 453 69 453 79 452 c 1,9,10
 83 577 83 577 173.5 663.5 c 128,-1,11
 264 750 264 750 355 750 c 0,12,13
 391 750 391 750 414.5 737 c 128,-1,14
 438 724 438 724 438 699.5 c 128,-1,15
 438 675 438 675 424.5 661.5 c 128,-1,16
 411 648 411 648 398 648 c 128,-1,17
 385 648 385 648 353 659.5 c 128,-1,18
 321 671 321 671 290 671 c 0,19,20
 228 671 228 671 184 616.5 c 128,-1,21
 140 562 140 562 140 486 c 2,22,-1
 140 448 l 1,23,-1
 172 448 l 1,24,-1
 310 456 l 1,25,26
 349 456 349 456 349 419 c 128,-1,27
 349 382 349 382 310 382 c 1,28,-1
 172 390 l 1,29,30
 150 390 150 390 140 389 c 1,31,32
 142 279 142 279 149.5 142 c 128,-1,33
 157 5 157 5 157 -128 c 0,34,35
 157 -290 157 -290 94 -290 c 0,36,37
 50 -290 50 -290 50 -233 c 0,38,39
 50 -213 50 -213 60 -173.5 c 128,-1,0
 70 -134 70 -134 79.5 -58 c 128,-1,1
EndSplineSet
EndChar

StartChar: g
Encoding: 103 103 74
Width: 530
GlyphClass: 2
Flags: W
LayerCount: 2
Fore
SplineSet
244 377 m 0,0,1
 180 377 180 377 135.5 333 c 128,-1,2
 91 289 91 289 91 225 c 128,-1,3
 91 161 91 161 135.5 116.5 c 128,-1,4
 180 72 180 72 242 72 c 128,-1,5
 304 72 304 72 345.5 111.5 c 128,-1,6
 387 151 387 151 392 210 c 1,7,8
 391 239 391 239 391 276 c 128,-1,9
 391 313 391 313 404.5 329.5 c 128,-1,10
 418 346 418 346 437 346 c 128,-1,11
 456 346 456 346 468 330.5 c 128,-1,12
 480 315 480 315 480 293 c 128,-1,13
 480 271 480 271 478.5 249.5 c 128,-1,14
 477 228 477 228 474 194 c 0,15,16
 464 83 464 83 464 -14 c 128,-1,17
 464 -111 464 -111 378 -200.5 c 128,-1,18
 292 -290 292 -290 186 -290 c 0,19,20
 133 -290 133 -290 94 -260 c 128,-1,21
 55 -230 55 -230 55 -195 c 0,22,23
 55 -177 55 -177 67.5 -163 c 128,-1,24
 80 -149 80 -149 97.5 -149 c 128,-1,25
 115 -149 115 -149 129.5 -159 c 128,-1,26
 144 -169 144 -169 156.5 -181 c 128,-1,27
 169 -193 169 -193 194.5 -203 c 128,-1,28
 220 -213 220 -213 252 -213 c 0,29,30
 315 -213 315 -213 357 -166.5 c 128,-1,31
 399 -120 399 -120 399 -56 c 0,32,33
 399 -48 399 -48 396 111 c 1,34,35
 353 57 353 57 293.5 25.5 c 128,-1,36
 234 -6 234 -6 181 -6 c 0,37,38
 111 -6 111 -6 68 44 c 128,-1,39
 25 94 25 94 25 169.5 c 128,-1,40
 25 245 25 245 72 315.5 c 128,-1,41
 119 386 119 386 182 421 c 128,-1,42
 245 456 245 456 295 456 c 128,-1,43
 345 456 345 456 365.5 440.5 c 128,-1,44
 386 425 386 425 386 403.5 c 128,-1,45
 386 382 386 382 372.5 368 c 128,-1,46
 359 354 359 354 346.5 354 c 128,-1,47
 334 354 334 354 302.5 365.5 c 128,-1,48
 271 377 271 377 244 377 c 0,0,1
EndSplineSet
EndChar

StartChar: h
Encoding: 104 104 75
Width: 531
GlyphClass: 2
Flags: W
LayerCount: 2
Fore
SplineSet
475.5 91.5 m 128,-1,1
 496 69 496 69 496 46 c 128,-1,2
 496 23 496 23 480 8.5 c 128,-1,3
 464 -6 464 -6 445 -6 c 128,-1,4
 426 -6 426 -6 414 1 c 128,-1,5
 402 8 402 8 394 22 c 0,6,7
 383 43 383 43 377 73 c 2,8,-1
 333 282 l 2,9,10
 323 328 323 328 301.5 355 c 128,-1,11
 280 382 280 382 235.5 382 c 128,-1,12
 191 382 191 382 166.5 351.5 c 128,-1,13
 142 321 142 321 141 285 c 1,14,15
 149 48 149 48 149 34.5 c 128,-1,16
 149 21 149 21 137 7.5 c 128,-1,17
 125 -6 125 -6 106 -6 c 128,-1,18
 87 -6 87 -6 73.5 7.5 c 128,-1,19
 60 21 60 21 60 52 c 128,-1,20
 60 83 60 83 65 199.5 c 128,-1,21
 70 316 70 316 70 380 c 128,-1,22
 70 444 70 444 65 552 c 128,-1,23
 60 660 60 660 60 691 c 128,-1,24
 60 722 60 722 73.5 736 c 128,-1,25
 87 750 87 750 106 750 c 128,-1,26
 125 750 125 750 137 736.5 c 128,-1,27
 149 723 149 723 149 692.5 c 128,-1,28
 149 662 149 662 144.5 550.5 c 128,-1,29
 140 439 140 439 140 368 c 1,30,31
 199 456 199 456 276 456 c 0,32,33
 381 456 381 456 411 315 c 1,34,-1
 449 143 l 2,35,0
 455 114 455 114 475.5 91.5 c 128,-1,1
EndSplineSet
EndChar

StartChar: i
Encoding: 105 105 76
Width: 241
GlyphClass: 2
Flags: W
LayerCount: 2
Fore
SplineSet
76 73 m 0,0,1
 76 199 76 199 71 294 c 128,-1,2
 66 389 66 389 66 406 c 128,-1,3
 66 423 66 423 79.5 439.5 c 128,-1,4
 93 456 93 456 112 456 c 128,-1,5
 131 456 131 456 143 440.5 c 128,-1,6
 155 425 155 425 155 395.5 c 128,-1,7
 155 366 155 366 148 296.5 c 128,-1,8
 141 227 141 227 141 152 c 0,9,10
 141 122 141 122 153.5 94.5 c 128,-1,11
 166 67 166 67 166 44.5 c 128,-1,12
 166 22 166 22 153.5 8 c 128,-1,13
 141 -6 141 -6 119.5 -6 c 128,-1,14
 98 -6 98 -6 87 18 c 128,-1,15
 76 42 76 42 76 73 c 0,0,1
73 581 m 128,-1,17
 60 593 60 593 60 616 c 128,-1,18
 60 639 60 639 76 655.5 c 128,-1,19
 92 672 92 672 114 672 c 128,-1,20
 136 672 136 672 149.5 659.5 c 128,-1,21
 163 647 163 647 163 624 c 128,-1,22
 163 601 163 601 146.5 585 c 128,-1,23
 130 569 130 569 108 569 c 128,-1,16
 86 569 86 569 73 581 c 128,-1,17
EndSplineSet
EndChar

StartChar: j
Encoding: 106 106 77
Width: 244
GlyphClass: 2
Flags: W
LayerCount: 2
Fore
SplineSet
160 127 m 2,0,1
 160 127 160 127 157 -128 c 1,2,3
 157 -290 157 -290 94 -290 c 0,4,5
 50 -290 50 -290 50 -233 c 0,6,7
 50 -212 50 -212 76 -136 c 0,8,9
 85 -107 85 -107 93 -38 c 128,-1,10
 101 31 101 31 101 119 c 128,-1,11
 101 207 101 207 92.5 287.5 c 128,-1,12
 84 368 84 368 84 395.5 c 128,-1,13
 84 423 84 423 97.5 439.5 c 128,-1,14
 111 456 111 456 130 456 c 128,-1,15
 149 456 149 456 161 440.5 c 128,-1,16
 173 425 173 425 173 402.5 c 128,-1,17
 173 380 173 380 166.5 292.5 c 128,-1,18
 160 205 160 205 160 127 c 2,0,1
94 581 m 128,-1,20
 81 593 81 593 81 616 c 128,-1,21
 81 639 81 639 97 655.5 c 128,-1,22
 113 672 113 672 135 672 c 128,-1,23
 157 672 157 672 170.5 659.5 c 128,-1,24
 184 647 184 647 184 624 c 128,-1,25
 184 601 184 601 167.5 585 c 128,-1,26
 151 569 151 569 129 569 c 128,-1,19
 107 569 107 569 94 581 c 128,-1,20
EndSplineSet
EndChar

StartChar: k
Encoding: 107 107 78
Width: 495
GlyphClass: 2
Flags: W
LayerCount: 2
Fore
SplineSet
149 702 m 2,0,-1
 140 380 l 1,1,-1
 140 319 l 1,2,3
 182 381 182 381 247 418.5 c 128,-1,4
 312 456 312 456 361 456 c 0,5,6
 453 456 453 456 453 403 c 0,7,8
 453 381 453 381 439.5 367.5 c 128,-1,9
 426 354 426 354 412.5 354 c 128,-1,10
 399 354 399 354 368 366 c 128,-1,11
 337 378 337 378 307 378 c 0,12,13
 226 378 226 378 182 311 c 1,14,15
 281 216 281 216 374 146 c 0,16,17
 451 88 451 88 463 71 c 128,-1,18
 475 54 475 54 475 36 c 128,-1,19
 475 18 475 18 463 6 c 128,-1,20
 451 -6 451 -6 431.5 -6 c 128,-1,21
 412 -6 412 -6 387.5 15.5 c 128,-1,22
 363 37 363 37 295 102.5 c 128,-1,23
 227 168 227 168 143 235 c 1,24,25
 149 109 149 109 149 42 c 0,26,27
 149 21 149 21 137 7.5 c 128,-1,28
 125 -6 125 -6 106 -6 c 128,-1,29
 87 -6 87 -6 73.5 7.5 c 128,-1,30
 60 21 60 21 60 52 c 128,-1,31
 60 83 60 83 65 199.5 c 128,-1,32
 70 316 70 316 70 380 c 128,-1,33
 70 444 70 444 65 552 c 128,-1,34
 60 660 60 660 60 691 c 128,-1,35
 60 722 60 722 73.5 736 c 128,-1,36
 87 750 87 750 106 750 c 128,-1,37
 125 750 125 750 137 736.5 c 128,-1,38
 149 723 149 723 149 702 c 2,0,-1
EndSplineSet
EndChar

StartChar: l
Encoding: 108 108 79
Width: 215
GlyphClass: 2
Flags: W
LayerCount: 2
Fore
SplineSet
66 73 m 0,0,1
 66 462 66 462 61 538 c 0,2,3
 52 676 52 676 52 699 c 128,-1,4
 52 722 52 722 65.5 736 c 128,-1,5
 79 750 79 750 98 750 c 128,-1,6
 117 750 117 750 129 736 c 128,-1,7
 141 722 141 722 141 701 c 0,8,9
 141 638 141 638 136 530 c 0,10,11
 126 276 126 276 126 152 c 0,12,13
 126 122 126 122 145.5 94.5 c 128,-1,14
 165 67 165 67 165 45 c 128,-1,15
 165 23 165 23 150 8.5 c 128,-1,16
 135 -6 135 -6 116 -6 c 0,17,18
 66 -6 66 -6 66 73 c 0,0,1
EndSplineSet
EndChar

StartChar: m
Encoding: 109 109 80
Width: 754
GlyphClass: 2
Flags: W
LayerCount: 2
Fore
SplineSet
67 240 m 1,0,-1
 60 407 l 2,1,2
 60 428 60 428 73.5 442 c 128,-1,3
 87 456 87 456 106 456 c 128,-1,4
 125 456 125 456 137 442.5 c 128,-1,5
 149 429 149 429 149 409 c 128,-1,6
 149 389 149 389 148 379 c 1,7,8
 206 456 206 456 271 456 c 0,9,10
 347 456 347 456 380 365 c 1,11,12
 444 456 444 456 518 456 c 0,13,14
 613 456 613 456 641 315 c 2,15,-1
 676 143 l 2,16,17
 681 119 681 119 700 92.5 c 128,-1,18
 719 66 719 66 719 42.5 c 128,-1,19
 719 19 719 19 704.5 6.5 c 128,-1,20
 690 -6 690 -6 670 -6 c 0,21,22
 624 -6 624 -6 610 73 c 2,23,-1
 573 282 l 2,24,25
 566 326 566 326 544 354 c 128,-1,26
 522 382 522 382 487 382 c 0,27,28
 440 382 440 382 397 301 c 1,29,-1
 429 143 l 2,30,31
 434 119 434 119 453 92.5 c 128,-1,32
 472 66 472 66 472 42.5 c 128,-1,33
 472 19 472 19 457.5 6.5 c 128,-1,34
 443 -6 443 -6 423 -6 c 0,35,36
 377 -6 377 -6 363 73 c 2,37,-1
 326 282 l 2,38,39
 319 323 319 323 292 352.5 c 128,-1,40
 265 382 265 382 227.5 382 c 128,-1,41
 190 382 190 382 167.5 353 c 128,-1,42
 145 324 145 324 143.5 295.5 c 128,-1,43
 142 267 142 267 142 240 c 2,44,-1
 149 42 l 2,45,46
 149 21 149 21 137 7.5 c 128,-1,47
 125 -6 125 -6 106 -6 c 128,-1,48
 87 -6 87 -6 73.5 7.5 c 128,-1,49
 60 21 60 21 60 42 c 2,50,-1
 67 240 l 1,0,-1
EndSplineSet
EndChar

StartChar: n
Encoding: 110 110 81
Width: 528
GlyphClass: 2
Flags: W
LayerCount: 2
Fore
SplineSet
143 286 m 1,0,-1
 149 42 l 2,1,2
 149 21 149 21 137 7.5 c 128,-1,3
 125 -6 125 -6 106 -6 c 128,-1,4
 87 -6 87 -6 73.5 7.5 c 128,-1,5
 60 21 60 21 60 42 c 2,6,-1
 67 240 l 1,7,8
 67 240 67 240 60 407 c 0,9,10
 60 428 60 428 73.5 442 c 128,-1,11
 87 456 87 456 106 456 c 128,-1,12
 125 456 125 456 137 442.5 c 128,-1,13
 149 429 149 429 149 409 c 128,-1,14
 149 389 149 389 148 379 c 1,15,16
 204 456 204 456 277 456 c 0,17,18
 382 456 382 456 412 315 c 1,19,-1
 450 143 l 2,20,21
 456 120 456 120 474.5 93.5 c 128,-1,22
 493 67 493 67 493 46 c 0,23,24
 493 -6 493 -6 443 -6 c 128,-1,25
 393 -6 393 -6 378 73 c 2,26,-1
 340 282 l 2,27,28
 321 382 321 382 237 382 c 0,29,30
 194 382 194 382 170 353 c 128,-1,31
 146 324 146 324 143 286 c 1,0,-1
EndSplineSet
EndChar

StartChar: o
Encoding: 111 111 82
Width: 484
GlyphClass: 2
Flags: W
LayerCount: 2
Fore
SplineSet
91 225 m 128,-1,1
 91 161 91 161 135.5 116.5 c 128,-1,2
 180 72 180 72 243.5 72 c 128,-1,3
 307 72 307 72 350 116.5 c 128,-1,4
 393 161 393 161 393 225 c 128,-1,5
 393 289 393 289 350 333 c 128,-1,6
 307 377 307 377 243.5 377 c 128,-1,7
 180 377 180 377 135.5 333 c 128,-1,0
 91 289 91 289 91 225 c 128,-1,1
68 44 m 128,-1,9
 25 94 25 94 25 169.5 c 128,-1,10
 25 245 25 245 72 315.5 c 128,-1,11
 119 386 119 386 182 421 c 128,-1,12
 245 456 245 456 309 456 c 128,-1,13
 373 456 373 456 416 406 c 128,-1,14
 459 356 459 356 459 280.5 c 128,-1,15
 459 205 459 205 412 134.5 c 128,-1,16
 365 64 365 64 302 29 c 128,-1,17
 239 -6 239 -6 175 -6 c 128,-1,8
 111 -6 111 -6 68 44 c 128,-1,9
EndSplineSet
EndChar

StartChar: p
Encoding: 112 112 83
Width: 535
GlyphClass: 2
Flags: W
LayerCount: 2
Fore
SplineSet
118 -290 m 0,0,1
 99 -290 99 -290 84.5 -275.5 c 128,-1,2
 70 -261 70 -261 70 -234 c 0,3,4
 70 -229 70 -229 79.5 -168 c 128,-1,5
 89 -107 89 -107 89 36 c 128,-1,6
 89 179 89 179 84 298 c 0,7,8
 83 321 83 321 66.5 351 c 128,-1,9
 50 381 50 381 50 404 c 128,-1,10
 50 427 50 427 65 441.5 c 128,-1,11
 80 456 80 456 99 456 c 0,12,13
 149 456 149 456 149 377 c 2,14,-1
 149 330 l 1,15,16
 191 388 191 388 250.5 422 c 128,-1,17
 310 456 310 456 361 456 c 0,18,19
 428 456 428 456 469 406.5 c 128,-1,20
 510 357 510 357 510 291 c 128,-1,21
 510 225 510 225 484 168 c 128,-1,22
 458 111 458 111 418 74 c 128,-1,23
 378 37 378 37 333 15.5 c 128,-1,24
 288 -6 288 -6 247 -6 c 0,25,26
 199 -6 199 -6 199 41 c 0,27,28
 199 62 199 62 214 72 c 128,-1,29
 229 82 229 82 244 82 c 128,-1,30
 259 82 259 82 275.5 77 c 128,-1,31
 292 72 292 72 306 72 c 0,32,33
 366 72 366 72 407 116.5 c 128,-1,34
 448 161 448 161 448 225 c 128,-1,35
 448 289 448 289 407 333 c 128,-1,36
 366 377 366 377 306 377 c 0,37,38
 228 377 228 377 191.5 314 c 128,-1,39
 155 251 155 251 155 142 c 0,40,41
 155 84 155 84 163 -41 c 128,-1,42
 171 -166 171 -166 171 -211 c 0,43,44
 171 -290 171 -290 118 -290 c 0,0,1
EndSplineSet
EndChar

StartChar: q
Encoding: 113 113 84
Width: 537
GlyphClass: 2
Flags: W
LayerCount: 2
Fore
SplineSet
263 -81 m 1,0,-1
 380 -88 l 1,1,2
 381 -61 381 -61 386 8 c 128,-1,3
 391 77 391 77 392 106 c 1,4,5
 349 54 349 54 290.5 24 c 128,-1,6
 232 -6 232 -6 181 -6 c 0,7,8
 111 -6 111 -6 68 44 c 128,-1,9
 25 94 25 94 25 169.5 c 128,-1,10
 25 245 25 245 72 315.5 c 128,-1,11
 119 386 119 386 182 421 c 128,-1,12
 245 456 245 456 309 456 c 128,-1,13
 373 456 373 456 416 406 c 128,-1,14
 459 356 459 356 459 290 c 1,15,-1
 451 117 l 1,16,17
 451 -90 451 -90 478 -183 c 0,18,19
 487 -214 487 -214 487 -233 c 0,20,21
 487 -290 487 -290 443 -290 c 0,22,23
 383 -290 383 -290 380 -147 c 1,24,-1
 263 -155 l 1,25,26
 224 -155 224 -155 224 -118 c 128,-1,27
 224 -81 224 -81 263 -81 c 1,0,-1
392 225 m 128,-1,29
 392 289 392 289 347.5 333.5 c 128,-1,30
 303 378 303 378 239.5 378 c 128,-1,31
 176 378 176 378 133 333.5 c 128,-1,32
 90 289 90 289 90 225 c 128,-1,33
 90 161 90 161 133 117 c 128,-1,34
 176 73 176 73 239.5 73 c 128,-1,35
 303 73 303 73 347.5 117 c 128,-1,28
 392 161 392 161 392 225 c 128,-1,29
EndSplineSet
EndChar

StartChar: r
Encoding: 114 114 85
Width: 390
GlyphClass: 2
Flags: W
LayerCount: 2
Fore
SplineSet
153 235 m 1,0,-1
 161 54 l 1,1,2
 161 27 161 27 147.5 10.5 c 128,-1,3
 134 -6 134 -6 115 -6 c 128,-1,4
 96 -6 96 -6 84 9.5 c 128,-1,5
 72 25 72 25 72 52 c 128,-1,6
 72 79 72 79 77 129 c 0,7,8
 87 229 87 229 87 298 c 0,9,10
 87 328 87 328 68.5 355.5 c 128,-1,11
 50 383 50 383 50 405 c 128,-1,12
 50 427 50 427 65 441.5 c 128,-1,13
 80 456 80 456 99 456 c 0,14,15
 149 456 149 456 149 377 c 2,16,-1
 149 338 l 1,17,18
 179 392 179 392 221 424 c 128,-1,19
 263 456 263 456 298 456 c 128,-1,20
 333 456 333 456 351.5 438.5 c 128,-1,21
 370 421 370 421 370 392 c 128,-1,22
 370 363 370 363 356 343.5 c 128,-1,23
 342 324 342 324 326 324 c 128,-1,24
 310 324 310 324 301.5 332.5 c 128,-1,25
 293 341 293 341 289 350.5 c 128,-1,26
 285 360 285 360 274 368.5 c 128,-1,27
 263 377 263 377 246 377 c 0,28,29
 217 377 217 377 188 339 c 128,-1,30
 159 301 159 301 153 235 c 1,0,-1
EndSplineSet
EndChar

StartChar: s
Encoding: 115 115 86
Width: 427
GlyphClass: 2
Flags: W
LayerCount: 2
Fore
SplineSet
75 9 m 128,-1,1
 52 24 52 24 52 46.5 c 128,-1,2
 52 69 52 69 65.5 82.5 c 128,-1,3
 79 96 79 96 92.5 96 c 128,-1,4
 106 96 106 96 137 84 c 128,-1,5
 168 72 168 72 201.5 72 c 128,-1,6
 235 72 235 72 269 89.5 c 128,-1,7
 303 107 303 107 303 132.5 c 128,-1,8
 303 158 303 158 277.5 172 c 128,-1,9
 252 186 252 186 216 194.5 c 128,-1,10
 180 203 180 203 144 214 c 128,-1,11
 108 225 108 225 82.5 247.5 c 128,-1,12
 57 270 57 270 57 303 c 0,13,14
 57 357 57 357 126 406.5 c 128,-1,15
 195 456 195 456 278 456 c 0,16,17
 318 456 318 456 339.5 441.5 c 128,-1,18
 361 427 361 427 361 404 c 128,-1,19
 361 381 361 381 347.5 367.5 c 128,-1,20
 334 354 334 354 320.5 354 c 128,-1,21
 307 354 307 354 276 366 c 128,-1,22
 245 378 245 378 211.5 378 c 128,-1,23
 178 378 178 378 153.5 364 c 128,-1,24
 129 350 129 350 129 330 c 128,-1,25
 129 310 129 310 167.5 295 c 128,-1,26
 206 280 206 280 252 271 c 128,-1,27
 298 262 298 262 336.5 235.5 c 128,-1,28
 375 209 375 209 375 167 c 0,29,30
 375 102 375 102 299 48 c 128,-1,31
 223 -6 223 -6 135 -6 c 0,32,0
 98 -6 98 -6 75 9 c 128,-1,1
EndSplineSet
EndChar

StartChar: t
Encoding: 116 116 87
Width: 337
GlyphClass: 2
Flags: W
LayerCount: 2
Fore
SplineSet
278 382 m 0,0,1
 273 382 273 382 153 390 c 1,2,3
 153 377 153 377 149 291 c 128,-1,4
 145 205 145 205 145 163.5 c 128,-1,5
 145 122 145 122 163.5 94.5 c 128,-1,6
 182 67 182 67 182 45 c 128,-1,7
 182 23 182 23 167 8.5 c 128,-1,8
 152 -6 152 -6 133 -6 c 0,9,10
 83 -6 83 -6 83 73 c 1,11,-1
 79 276 l 1,12,13
 79 338 79 338 76 387 c 1,14,-1
 52 387 l 2,15,16
 38 387 38 387 29 395.5 c 128,-1,17
 20 404 20 404 20 419 c 128,-1,18
 20 434 20 434 29 442.5 c 128,-1,19
 38 451 38 451 52 451 c 2,20,-1
 73 451 l 1,21,22
 71 503 71 503 71 530.5 c 128,-1,23
 71 558 71 558 84.5 574.5 c 128,-1,24
 98 591 98 591 117 591 c 128,-1,25
 136 591 136 591 148 575.5 c 128,-1,26
 160 560 160 560 160 525 c 128,-1,27
 160 490 160 490 157 448 c 1,28,-1
 278 456 l 1,29,30
 317 456 317 456 317 419 c 128,-1,31
 317 382 317 382 278 382 c 0,0,1
EndSplineSet
EndChar

StartChar: u
Encoding: 117 117 88
Width: 499
GlyphClass: 2
Flags: W
LayerCount: 2
Fore
SplineSet
349 171 m 1,0,-1
 339 396 l 1,1,2
 339 423 339 423 352.5 439.5 c 128,-1,3
 366 456 366 456 385 456 c 128,-1,4
 404 456 404 456 416 440.5 c 128,-1,5
 428 425 428 425 428 398.5 c 128,-1,6
 428 372 428 372 422 324 c 0,7,8
 410 228 410 228 410 152 c 0,9,10
 410 122 410 122 429.5 94.5 c 128,-1,11
 449 67 449 67 449 45 c 128,-1,12
 449 23 449 23 434 8.5 c 128,-1,13
 419 -6 419 -6 400 -6 c 0,14,15
 350 -6 350 -6 350 73 c 1,16,17
 303 -6 303 -6 232 -6 c 0,18,19
 175 -6 175 -6 141.5 35 c 128,-1,20
 108 76 108 76 95 135 c 2,21,-1
 57 307 l 2,22,23
 51 336 51 336 30.5 358.5 c 128,-1,24
 10 381 10 381 10 404 c 128,-1,25
 10 427 10 427 26 441.5 c 128,-1,26
 42 456 42 456 64 456 c 0,27,28
 114 456 114 456 129 377 c 2,29,-1
 167 168 l 2,30,31
 186 68 186 68 262 68 c 0,32,33
 299 68 299 68 323 97.5 c 128,-1,34
 347 127 347 127 349 171 c 1,0,-1
EndSplineSet
EndChar

StartChar: v
Encoding: 118 118 89
Width: 473
GlyphClass: 2
Flags: W
LayerCount: 2
Fore
SplineSet
43 349 m 0,0,1
 20 390 20 390 20 410.5 c 128,-1,2
 20 431 20 431 32 443.5 c 128,-1,3
 44 456 44 456 67 456 c 128,-1,4
 90 456 90 456 110 418.5 c 128,-1,5
 130 381 130 381 178 262.5 c 128,-1,6
 226 144 226 144 247 84 c 2,7,-1
 255 62 l 1,8,9
 290 84 290 84 332.5 164.5 c 128,-1,10
 375 245 375 245 375 310 c 0,11,12
 375 332 375 332 363 363.5 c 128,-1,13
 351 395 351 395 351 412 c 128,-1,14
 351 429 351 429 364.5 442.5 c 128,-1,15
 378 456 378 456 401 456 c 128,-1,16
 424 456 424 456 438.5 434.5 c 128,-1,17
 453 413 453 413 453 361.5 c 128,-1,18
 453 310 453 310 417 222 c 128,-1,19
 381 134 381 134 328 67 c 0,20,21
 270 -6 270 -6 225 -6 c 0,22,23
 193 -6 193 -6 173 47 c 0,24,25
 104 238 104 238 43 349 c 0,0,1
EndSplineSet
EndChar

StartChar: w
Encoding: 119 119 90
Width: 716
GlyphClass: 2
Flags: W
LayerCount: 2
Fore
SplineSet
200 -6 m 0,0,1
 182 -6 182 -6 168.5 9.5 c 128,-1,2
 155 25 155 25 148 47 c 0,3,4
 86 249 86 249 39 349 c 1,5,6
 20 392 20 392 20 412 c 128,-1,7
 20 432 20 432 31 444 c 128,-1,8
 42 456 42 456 59 456 c 0,9,10
 85 456 85 456 101.5 417 c 128,-1,11
 118 378 118 378 162.5 257.5 c 128,-1,12
 207 137 207 137 216 108.5 c 128,-1,13
 225 80 225 80 228 72 c 2,14,-1
 231 62 l 1,15,16
 259 81 259 81 294.5 141 c 128,-1,17
 330 201 330 201 343 260 c 1,18,19
 324 311 324 311 306 351.5 c 128,-1,20
 288 392 288 392 288 412 c 128,-1,21
 288 432 288 432 299 444 c 128,-1,22
 310 456 310 456 327 456 c 0,23,24
 353 456 353 456 369.5 417 c 128,-1,25
 386 378 386 378 430.5 257.5 c 128,-1,26
 475 137 475 137 484 108.5 c 128,-1,27
 493 80 493 80 496 72 c 2,28,-1
 499 62 l 1,29,30
 535 86 535 86 576.5 166.5 c 128,-1,31
 618 247 618 247 618 312 c 0,32,33
 618 334 618 334 606 364.5 c 128,-1,34
 594 395 594 395 594 412 c 128,-1,35
 594 429 594 429 607.5 442.5 c 128,-1,36
 621 456 621 456 644 456 c 128,-1,37
 667 456 667 456 681.5 434 c 128,-1,38
 696 412 696 412 696 360 c 128,-1,39
 696 308 696 308 661.5 219 c 128,-1,40
 627 130 627 130 572 62 c 128,-1,41
 517 -6 517 -6 468 -6 c 0,42,43
 434 -6 434 -6 416 47 c 0,44,45
 412 58 412 58 398 102 c 1,46,-1
 373 175 l 1,47,48
 336 98 336 98 289 46 c 128,-1,49
 242 -6 242 -6 200 -6 c 0,0,1
EndSplineSet
EndChar

StartChar: x
Encoding: 120 120 91
Width: 462
GlyphClass: 2
Flags: W
LayerCount: 2
Fore
SplineSet
99 4.5 m 128,-1,1
 85 -6 85 -6 69 -6 c 128,-1,2
 53 -6 53 -6 41.5 5.5 c 128,-1,3
 30 17 30 17 30 34.5 c 128,-1,4
 30 52 30 52 44 69 c 128,-1,5
 58 86 58 86 85 108.5 c 128,-1,6
 112 131 112 131 127 147 c 128,-1,7
 142 163 142 163 194 230 c 1,8,9
 132 302 132 302 87 346 c 128,-1,10
 42 390 42 390 42 415 c 0,11,12
 42 431 42 431 53.5 443.5 c 128,-1,13
 65 456 65 456 83 456 c 0,14,15
 113 456 113 456 139 421 c 0,16,17
 181 364 181 364 239 289 c 1,18,19
 338 421 338 421 352.5 438.5 c 128,-1,20
 367 456 367 456 384 456 c 0,21,22
 417 456 417 456 417 423 c 0,23,24
 417 401 417 401 390 378 c 1,25,26
 345 337 345 337 273 245 c 1,27,28
 358 135 358 135 407 84 c 1,29,30
 432 56 432 56 432 37.5 c 128,-1,31
 432 19 432 19 421.5 6.5 c 128,-1,32
 411 -6 411 -6 395 -6 c 0,33,34
 365 -6 365 -6 333 47 c 1,35,36
 297 103 297 103 229 187 c 1,37,38
 186 127 186 127 157 82 c 128,-1,39
 128 37 128 37 120.5 26 c 128,-1,0
 113 15 113 15 99 4.5 c 128,-1,1
EndSplineSet
EndChar

StartChar: y
Encoding: 121 121 92
Width: 490
GlyphClass: 2
Flags: W
LayerCount: 2
Fore
SplineSet
421 127 m 1,0,-1
 419 -13 l 1,1,2
 419 -111 419 -111 333 -200.5 c 128,-1,3
 247 -290 247 -290 141 -290 c 0,4,5
 88 -290 88 -290 49 -260 c 128,-1,6
 10 -230 10 -230 10 -195 c 0,7,8
 10 -177 10 -177 22.5 -163 c 128,-1,9
 35 -149 35 -149 52.5 -149 c 128,-1,10
 70 -149 70 -149 84.5 -159 c 128,-1,11
 99 -169 99 -169 111.5 -181 c 128,-1,12
 124 -193 124 -193 149.5 -203 c 128,-1,13
 175 -213 175 -213 207 -213 c 0,14,15
 270 -213 270 -213 315 -166.5 c 128,-1,16
 360 -120 360 -120 360 -56 c 0,17,18
 360 32 360 32 359 69 c 1,19,20
 313 -6 313 -6 244 -6 c 0,21,22
 187 -6 187 -6 153.5 35 c 128,-1,23
 120 76 120 76 107 135 c 2,24,-1
 69 307 l 2,25,26
 63 336 63 336 42.5 358.5 c 128,-1,27
 22 381 22 381 22 404 c 128,-1,28
 22 427 22 427 38 441.5 c 128,-1,29
 54 456 54 456 73 456 c 128,-1,30
 92 456 92 456 104 449 c 128,-1,31
 116 442 116 442 124 428 c 0,32,33
 135 407 135 407 141 377 c 2,34,-1
 185 168 l 2,35,36
 196 119 196 119 214.5 93.5 c 128,-1,37
 233 68 233 68 272 68 c 128,-1,38
 311 68 311 68 334.5 97.5 c 128,-1,39
 358 127 358 127 358 171 c 1,40,-1
 351 396 l 2,41,42
 351 423 351 423 364.5 439.5 c 128,-1,43
 378 456 378 456 397 456 c 128,-1,44
 416 456 416 456 428 440.5 c 128,-1,45
 440 425 440 425 440 398.5 c 128,-1,46
 440 372 440 372 434 324 c 0,47,48
 421 220 421 220 421 127 c 1,0,-1
EndSplineSet
EndChar

StartChar: z
Encoding: 122 122 93
Width: 455
GlyphClass: 2
Flags: W
LayerCount: 2
Fore
SplineSet
223 387 m 1,0,-1
 99 381 l 2,1,2
 83 381 83 381 71.5 390.5 c 128,-1,3
 60 400 60 400 60 418 c 128,-1,4
 60 436 60 436 72 446 c 128,-1,5
 84 456 84 456 99 456 c 2,6,-1
 223 450 l 1,7,-1
 360 456 l 1,8,9
 399 456 399 456 399 418 c 0,10,11
 399 385 399 385 367 350 c 0,12,13
 186 154 186 154 168 128.5 c 128,-1,14
 150 103 150 103 150 94 c 0,15,16
 150 61 150 61 242 61 c 0,17,18
 305 61 305 61 359 94 c 0,19,20
 377 105 377 105 388 105 c 0,21,22
 407 105 407 105 407 89 c 0,23,24
 407 63 407 63 340 28.5 c 128,-1,25
 273 -6 273 -6 203.5 -6 c 128,-1,26
 134 -6 134 -6 93 20 c 128,-1,27
 52 46 52 46 52 72.5 c 128,-1,28
 52 99 52 99 80 134 c 0,29,30
 88 144 88 144 175.5 243 c 128,-1,31
 263 342 263 342 298 383 c 1,32,33
 248 387 248 387 223 387 c 1,0,-1
EndSplineSet
EndChar

StartChar: braceleft
Encoding: 123 123 94
Width: 358
GlyphClass: 2
Flags: W
LayerCount: 2
Fore
SplineSet
26 212 m 0,0,1
 9 212 9 212 9 230 c 128,-1,2
 9 248 9 248 26 248 c 0,3,4
 62 248 62 248 89 277 c 128,-1,5
 116 306 116 306 116 363 c 0,6,7
 116 391 116 391 103 462 c 128,-1,8
 90 533 90 533 90 557 c 0,9,10
 90 650 90 650 138 700.5 c 128,-1,11
 186 751 186 751 245.5 751 c 128,-1,12
 305 751 305 751 305 698 c 0,13,14
 305 676 305 676 291.5 662.5 c 128,-1,15
 278 649 278 649 266 649 c 128,-1,16
 254 649 254 649 241 660.5 c 128,-1,17
 228 672 228 672 209.5 672 c 128,-1,18
 191 672 191 672 176 653 c 128,-1,19
 161 634 161 634 161 598 c 128,-1,20
 161 562 161 562 174 496 c 128,-1,21
 187 430 187 430 187 403 c 0,22,23
 187 296 187 296 102 233 c 1,24,25
 187 172 187 172 187 57 c 0,26,27
 187 34 187 34 174 -21.5 c 128,-1,28
 161 -77 161 -77 161 -107 c 0,29,30
 161 -159 161 -159 188 -185.5 c 128,-1,31
 215 -212 215 -212 245 -212 c 128,-1,32
 275 -212 275 -212 290 -222.5 c 128,-1,33
 305 -233 305 -233 305 -248 c 0,34,35
 305 -291 305 -291 245.5 -291 c 128,-1,36
 186 -291 186 -291 138 -232.5 c 128,-1,37
 90 -174 90 -174 90 -67 c 0,38,39
 90 -47 90 -47 103 13.5 c 128,-1,40
 116 74 116 74 116 97 c 0,41,42
 116 154 116 154 89 183 c 128,-1,43
 62 212 62 212 26 212 c 0,0,1
EndSplineSet
EndChar

StartChar: bar
Encoding: 124 124 95
Width: 170
GlyphClass: 2
Flags: W
LayerCount: 2
Fore
SplineSet
50 -19 m 2,0,-1
 57 348 l 1,1,2
 57 430 57 430 53.5 567.5 c 128,-1,3
 50 705 50 705 50 714 c 128,-1,4
 50 723 50 723 60 734.5 c 128,-1,5
 70 746 70 746 85 746 c 128,-1,6
 100 746 100 746 110 734.5 c 128,-1,7
 120 723 120 723 120 714 c 128,-1,8
 120 705 120 705 116.5 567.5 c 128,-1,9
 113 430 113 430 113 348 c 1,10,-1
 120 -19 l 2,11,12
 120 -34 120 -34 110 -45 c 128,-1,13
 100 -56 100 -56 85 -56 c 128,-1,14
 70 -56 70 -56 60 -45 c 128,-1,15
 50 -34 50 -34 50 -19 c 2,0,-1
EndSplineSet
EndChar

StartChar: braceright
Encoding: 125 125 96
Width: 358
GlyphClass: 2
Flags: W
LayerCount: 2
Fore
SplineSet
288 248 m 0,0,1
 305 248 305 248 305 230 c 128,-1,2
 305 212 305 212 288 212 c 0,3,4
 252 212 252 212 225 183 c 128,-1,5
 198 154 198 154 198 97 c 0,6,7
 198 69 198 69 211 -2 c 128,-1,8
 224 -73 224 -73 224 -97 c 0,9,10
 224 -190 224 -190 176 -240.5 c 128,-1,11
 128 -291 128 -291 68.5 -291 c 128,-1,12
 9 -291 9 -291 9 -238 c 0,13,14
 9 -216 9 -216 22.5 -202.5 c 128,-1,15
 36 -189 36 -189 48 -189 c 128,-1,16
 60 -189 60 -189 73 -200.5 c 128,-1,17
 86 -212 86 -212 104.5 -212 c 128,-1,18
 123 -212 123 -212 138 -193 c 128,-1,19
 153 -174 153 -174 153 -138 c 128,-1,20
 153 -102 153 -102 140 -36 c 128,-1,21
 127 30 127 30 127 57 c 0,22,23
 127 164 127 164 212 227 c 1,24,25
 127 288 127 288 127 403 c 0,26,27
 127 426 127 426 140 481.5 c 128,-1,28
 153 537 153 537 153 567 c 0,29,30
 153 619 153 619 126 645.5 c 128,-1,31
 99 672 99 672 69 672 c 128,-1,32
 39 672 39 672 24 682.5 c 128,-1,33
 9 693 9 693 9 708 c 0,34,35
 9 751 9 751 68.5 751 c 128,-1,36
 128 751 128 751 176 692.5 c 128,-1,37
 224 634 224 634 224 527 c 0,38,39
 224 507 224 507 211 446.5 c 128,-1,40
 198 386 198 386 198 363 c 0,41,42
 198 306 198 306 225 277 c 128,-1,43
 252 248 252 248 288 248 c 0,0,1
EndSplineSet
EndChar

StartChar: asciitilde
Encoding: 126 126 97
Width: 453
GlyphClass: 2
Flags: W
LayerCount: 2
Fore
SplineSet
418 331 m 0,0,1
 418 289 418 289 375 236.5 c 128,-1,2
 332 184 332 184 283 184 c 0,3,4
 251 184 251 184 209 213 c 128,-1,5
 167 242 167 242 140.5 242 c 128,-1,6
 114 242 114 242 98.5 233 c 128,-1,7
 83 224 83 224 79 213 c 0,8,9
 68 184 68 184 57 184 c 0,10,11
 35 184 35 184 35 206 c 0,12,13
 35 239 35 239 66.5 272.5 c 128,-1,14
 98 306 98 306 147 306 c 128,-1,15
 196 306 196 306 248 286 c 128,-1,16
 300 266 300 266 319.5 266 c 128,-1,17
 339 266 339 266 353.5 279.5 c 128,-1,18
 368 293 368 293 373 308 c 0,19,20
 387 351 387 351 399 351 c 0,21,22
 418 351 418 351 418 331 c 0,0,1
EndSplineSet
EndChar

StartChar: exclamdown
Encoding: 161 161 98
Width: 239
GlyphClass: 2
Flags: W
LayerCount: 2
Fore
SplineSet
164.5 442.5 m 128,-1,1
 179 429 179 429 179 402.5 c 128,-1,2
 179 376 179 376 160.5 356.5 c 128,-1,3
 142 337 142 337 116.5 337 c 128,-1,4
 91 337 91 337 75.5 351.5 c 128,-1,5
 60 366 60 366 60 392.5 c 128,-1,6
 60 419 60 419 79.5 437.5 c 128,-1,7
 99 456 99 456 124.5 456 c 128,-1,0
 150 456 150 456 164.5 442.5 c 128,-1,1
115 -246 m 128,-1,9
 94 -246 94 -246 80 -231 c 128,-1,10
 66 -216 66 -216 66 -199 c 128,-1,11
 66 -182 66 -182 77 -51 c 128,-1,12
 88 80 88 80 88 224 c 0,13,14
 88 236 88 236 96 244.5 c 128,-1,15
 104 253 104 253 115 253 c 128,-1,16
 126 253 126 253 133.5 244.5 c 128,-1,17
 141 236 141 236 141 224 c 0,18,19
 141 80 141 80 152 -51 c 128,-1,20
 163 -182 163 -182 163 -199 c 128,-1,21
 163 -216 163 -216 149.5 -231 c 128,-1,8
 136 -246 136 -246 115 -246 c 128,-1,9
EndSplineSet
EndChar

StartChar: cent
Encoding: 162 162 99
Width: 411
GlyphClass: 2
Flags: W
LayerCount: 2
Fore
SplineSet
381 207 m 0,0,1
 381 186 381 186 338 151.5 c 128,-1,2
 295 117 295 117 239 101 c 1,3,4
 241 51 241 51 241 32 c 128,-1,5
 241 13 241 13 232.5 3.5 c 128,-1,6
 224 -6 224 -6 210 -6 c 128,-1,7
 196 -6 196 -6 186.5 4 c 128,-1,8
 177 14 177 14 177 29 c 0,9,10
 177 69 177 69 178 92 c 1,11,12
 110 92 110 92 65 140.5 c 128,-1,13
 20 189 20 189 20 262.5 c 128,-1,14
 20 336 20 336 65 408.5 c 128,-1,15
 110 481 110 481 180 521 c 1,16,17
 179 550 179 550 179 607 c 0,18,19
 179 622 179 622 188.5 632 c 128,-1,20
 198 642 198 642 211.5 642 c 128,-1,21
 225 642 225 642 233.5 632.5 c 128,-1,22
 242 623 242 623 242 596 c 128,-1,23
 242 569 242 569 241 547 c 1,24,25
 268 554 268 554 298 554 c 0,26,27
 381 554 381 554 381 501 c 0,28,29
 381 481 381 481 368.5 466.5 c 128,-1,30
 356 452 356 452 341.5 452 c 128,-1,31
 327 452 327 452 296 464 c 128,-1,32
 265 476 265 476 235 476 c 0,33,34
 172 476 172 476 129 431.5 c 128,-1,35
 86 387 86 387 86 323 c 128,-1,36
 86 259 86 259 129.5 215 c 128,-1,37
 173 171 173 171 237 171 c 0,38,39
 291 171 291 171 338 212 c 0,40,41
 354 226 354 226 362 226 c 128,-1,42
 370 226 370 226 375.5 220 c 128,-1,43
 381 214 381 214 381 207 c 0,0,1
EndSplineSet
EndChar

StartChar: sterling
Encoding: 163 163 100
Width: 538
GlyphClass: 2
Flags: W
LayerCount: 2
Fore
SplineSet
160 272 m 1,0,-1
 75 263 l 1,1,2
 59 263 59 263 49 273.5 c 128,-1,3
 39 284 39 284 39 300 c 128,-1,4
 39 316 39 316 49 326 c 128,-1,5
 59 336 59 336 71 336 c 128,-1,6
 83 336 83 336 104 332.5 c 128,-1,7
 125 329 125 329 139 328 c 1,8,9
 124 377 124 377 124 408 c 0,10,11
 124 519 124 519 192.5 580.5 c 128,-1,12
 261 642 261 642 342 642 c 128,-1,13
 423 642 423 642 423 589 c 0,14,15
 423 567 423 567 409.5 553.5 c 128,-1,16
 396 540 396 540 380.5 540 c 128,-1,17
 365 540 365 540 342 551.5 c 128,-1,18
 319 563 319 563 287 563 c 128,-1,19
 255 563 255 563 229 534 c 128,-1,20
 203 505 203 505 203 450 c 128,-1,21
 203 395 203 395 233 325 c 1,22,23
 264 326 264 326 294.5 331 c 128,-1,24
 325 336 325 336 337 336 c 128,-1,25
 349 336 349 336 359 326 c 128,-1,26
 369 316 369 316 369 300 c 128,-1,27
 369 284 369 284 359 273.5 c 128,-1,28
 349 263 349 263 336 263 c 128,-1,29
 323 263 323 263 298 266.5 c 128,-1,30
 273 270 273 270 253 271 c 1,31,32
 259 243 259 243 259 228 c 0,33,34
 259 131 259 131 220 67 c 1,35,-1
 467 72 l 2,36,37
 483 72 483 72 495.5 61.5 c 128,-1,38
 508 51 508 51 508 33 c 128,-1,39
 508 15 508 15 495.5 4.5 c 128,-1,40
 483 -6 483 -6 467 -6 c 2,41,-1
 315 0 l 1,42,-1
 104 -6 l 1,43,44
 30 -6 30 -6 30 47 c 0,45,46
 30 67 30 67 43.5 79 c 128,-1,47
 57 91 57 91 70 91 c 128,-1,48
 83 91 83 91 98.5 82 c 128,-1,49
 114 73 114 73 133 73 c 128,-1,50
 152 73 152 73 166 102 c 128,-1,51
 180 131 180 131 180 174 c 128,-1,52
 180 217 180 217 160 272 c 1,0,-1
EndSplineSet
EndChar

StartChar: currency
Encoding: 164 164 101
Width: 504
GlyphClass: 2
Flags: W
LayerCount: 2
Fore
SplineSet
360 131 m 1,0,1
 301 88 301 88 233.5 88 c 128,-1,2
 166 88 166 88 119 118 c 1,3,4
 84 88 84 88 66 88 c 0,5,6
 35 88 35 88 35 119 c 0,7,8
 35 138 35 138 64 170 c 1,9,10
 35 213 35 213 35 264 c 0,11,12
 35 349 35 349 79 411 c 1,13,14
 35 455 35 455 35 478 c 0,15,16
 35 509 35 509 66 509 c 0,17,18
 88 509 88 509 132 465 c 1,19,20
 193 510 193 510 257.5 510 c 128,-1,21
 322 510 322 510 374 480 c 1,22,23
 405 509 405 509 425 509 c 0,24,25
 456 509 456 509 456 478 c 0,26,27
 456 458 456 458 429 428 c 1,28,29
 459 386 459 386 459 334 c 0,30,31
 459 247 459 247 413 185 c 1,32,33
 456 140 456 140 456 119 c 0,34,35
 456 88 456 88 425 88 c 0,36,37
 401 88 401 88 360 131 c 1,0,1
94 299 m 128,-1,39
 94 235 94 235 138.5 190.5 c 128,-1,40
 183 146 183 146 246.5 146 c 128,-1,41
 310 146 310 146 353 190.5 c 128,-1,42
 396 235 396 235 396 299 c 128,-1,43
 396 363 396 363 353 407 c 128,-1,44
 310 451 310 451 246.5 451 c 128,-1,45
 183 451 183 451 138.5 407 c 128,-1,38
 94 363 94 363 94 299 c 128,-1,39
EndSplineSet
EndChar

StartChar: yen
Encoding: 165 165 102
Width: 629
GlyphClass: 2
Flags: W
LayerCount: 2
Fore
SplineSet
355 203 m 1,0,1
 439 210 439 210 475 210 c 128,-1,2
 511 210 511 210 511 178 c 128,-1,3
 511 146 511 146 472 146 c 0,4,5
 449 146 449 146 356 153 c 1,6,-1
 363 46 l 1,7,8
 363 26 363 26 349.5 10 c 128,-1,9
 336 -6 336 -6 315 -6 c 128,-1,10
 294 -6 294 -6 280.5 10 c 128,-1,11
 267 26 267 26 267 46 c 1,12,-1
 273 153 l 1,13,14
 180 146 180 146 156 146 c 0,15,16
 117 146 117 146 117 178 c 128,-1,17
 117 210 117 210 156 210 c 0,18,19
 184 210 184 210 275 203 c 1,20,-1
 276 276 l 1,21,22
 192 269 192 269 154.5 269 c 128,-1,23
 117 269 117 269 117 301 c 128,-1,24
 117 333 117 333 151.5 333 c 128,-1,25
 186 333 186 333 250 327 c 1,26,27
 242 339 242 339 230.5 355 c 128,-1,28
 219 371 219 371 202.5 395 c 128,-1,29
 186 419 186 419 171 440 c 128,-1,30
 156 461 156 461 132.5 490.5 c 128,-1,31
 109 520 109 520 96 536 c 0,32,33
 66 573 66 573 66 598 c 0,34,35
 66 642 66 642 110 642 c 0,36,37
 124 642 124 642 139 628.5 c 128,-1,38
 154 615 154 615 164.5 597.5 c 128,-1,39
 175 580 175 580 195.5 545.5 c 128,-1,40
 216 511 216 511 258.5 449 c 128,-1,41
 301 387 301 387 328 355 c 1,42,43
 382 409 382 409 458 550 c 0,44,45
 486 602 486 602 502 622 c 128,-1,46
 518 642 518 642 534 642 c 0,47,48
 569 642 569 642 569 603 c 0,49,50
 569 586 569 586 560 570 c 128,-1,51
 551 554 551 554 545 544 c 128,-1,52
 539 534 539 534 527 518.5 c 128,-1,53
 515 503 515 503 506.5 492 c 128,-1,54
 498 481 498 481 481.5 460 c 128,-1,55
 465 439 465 439 434.5 399.5 c 128,-1,56
 404 360 404 360 374 327 c 1,57,58
 442 333 442 333 476.5 333 c 128,-1,59
 511 333 511 333 511 301 c 128,-1,60
 511 269 511 269 472 269 c 0,61,62
 447 269 447 269 354 276 c 1,63,64
 354 224 354 224 355 203 c 1,0,1
EndSplineSet
EndChar

StartChar: brokenbar
Encoding: 166 166 103
Width: 170
GlyphClass: 2
Flags: W
LayerCount: 2
Fore
SplineSet
50 -19 m 2,0,-1
 57 100 l 1,1,2
 57 127 57 127 53.5 171.5 c 128,-1,3
 50 216 50 216 50 224.5 c 128,-1,4
 50 233 50 233 60 244.5 c 128,-1,5
 70 256 70 256 85 256 c 128,-1,6
 100 256 100 256 110 244.5 c 128,-1,7
 120 233 120 233 120 224.5 c 128,-1,8
 120 216 120 216 116.5 171.5 c 128,-1,9
 113 127 113 127 113 100 c 1,10,-1
 120 -19 l 2,11,12
 120 -34 120 -34 110 -45 c 128,-1,13
 100 -56 100 -56 85 -56 c 128,-1,14
 70 -56 70 -56 60 -45 c 128,-1,15
 50 -34 50 -34 50 -19 c 2,0,-1
50 471 m 2,16,-1
 57 590 l 1,17,18
 57 617 57 617 53.5 661.5 c 128,-1,19
 50 706 50 706 50 714.5 c 128,-1,20
 50 723 50 723 60 734.5 c 128,-1,21
 70 746 70 746 85 746 c 128,-1,22
 100 746 100 746 110 734.5 c 128,-1,23
 120 723 120 723 120 714.5 c 128,-1,24
 120 706 120 706 116.5 661.5 c 128,-1,25
 113 617 113 617 113 590 c 1,26,-1
 120 471 l 2,27,28
 120 456 120 456 110 445 c 128,-1,29
 100 434 100 434 85 434 c 128,-1,30
 70 434 70 434 60 445 c 128,-1,31
 50 456 50 456 50 471 c 2,16,-1
EndSplineSet
EndChar

StartChar: section
Encoding: 167 167 104
Width: 572
GlyphClass: 2
Flags: W
LayerCount: 2
Fore
SplineSet
487 281 m 0,0,1
 487 180 487 180 400 110 c 1,2,3
 512 59 512 59 512 -54 c 0,4,5
 512 -148 512 -148 433.5 -218 c 128,-1,6
 355 -288 355 -288 236 -288 c 0,7,8
 157 -288 157 -288 108.5 -248.5 c 128,-1,9
 60 -209 60 -209 60 -166 c 0,10,11
 60 -143 60 -143 73 -128.5 c 128,-1,12
 86 -114 86 -114 105.5 -114 c 128,-1,13
 125 -114 125 -114 139 -125.5 c 128,-1,14
 153 -137 153 -137 165.5 -154 c 128,-1,15
 178 -171 178 -171 194 -188 c 0,16,17
 230 -228 230 -228 295.5 -228 c 128,-1,18
 361 -228 361 -228 401 -190 c 128,-1,19
 441 -152 441 -152 441 -97 c 128,-1,20
 441 -42 441 -42 407 -12.5 c 128,-1,21
 373 17 373 17 324.5 33.5 c 128,-1,22
 276 50 276 50 227.5 68 c 128,-1,23
 179 86 179 86 145 122.5 c 128,-1,24
 111 159 111 159 111 219.5 c 128,-1,25
 111 280 111 280 147 323.5 c 128,-1,26
 183 367 183 367 238 390 c 1,27,28
 166 417 166 417 127 451.5 c 128,-1,29
 88 486 88 486 88 544.5 c 128,-1,30
 88 603 88 603 113.5 643.5 c 128,-1,31
 139 684 139 684 178 706 c 0,32,33
 253 749 253 749 320.5 749 c 128,-1,34
 388 749 388 749 439 720.5 c 128,-1,35
 490 692 490 692 490 650 c 0,36,37
 490 629 490 629 478 616 c 128,-1,38
 466 603 466 603 444 603 c 128,-1,39
 422 603 422 603 402.5 616.5 c 128,-1,40
 383 630 383 630 370 646 c 128,-1,41
 357 662 357 662 330.5 675.5 c 128,-1,42
 304 689 304 689 266 689 c 128,-1,43
 228 689 228 689 196.5 661 c 128,-1,44
 165 633 165 633 165 594.5 c 128,-1,45
 165 556 165 556 189 531 c 128,-1,46
 213 506 213 506 248.5 494 c 128,-1,47
 284 482 284 482 326 465.5 c 128,-1,48
 368 449 368 449 403.5 431 c 128,-1,49
 439 413 439 413 463 374.5 c 128,-1,50
 487 336 487 336 487 281 c 0,0,1
416 246 m 0,51,52
 416 283 416 283 395 309 c 1,53,54
 348 354 348 354 299.5 354 c 128,-1,55
 251 354 251 354 219.5 326 c 128,-1,56
 188 298 188 298 188 258 c 0,57,58
 188 221 188 221 204 206 c 1,59,-1
 226 182 l 1,60,61
 241 168 241 168 294.5 149.5 c 128,-1,62
 348 131 348 131 355 128 c 1,63,64
 416 167 416 167 416 246 c 0,51,52
EndSplineSet
EndChar

StartChar: dieresis
Encoding: 168 168 105
Width: 383
GlyphClass: 2
Flags: W
LayerCount: 2
Fore
SplineSet
251.5 558.5 m 128,-1,1
 240 569 240 569 240 590 c 128,-1,2
 240 611 240 611 254.5 626 c 128,-1,3
 269 641 269 641 289 641 c 128,-1,4
 309 641 309 641 321 630 c 128,-1,5
 333 619 333 619 333 598 c 128,-1,6
 333 577 333 577 318 562.5 c 128,-1,7
 303 548 303 548 283 548 c 128,-1,0
 263 548 263 548 251.5 558.5 c 128,-1,1
61.5 558.5 m 128,-1,9
 50 569 50 569 50 590 c 128,-1,10
 50 611 50 611 64.5 626 c 128,-1,11
 79 641 79 641 99 641 c 128,-1,12
 119 641 119 641 131 630 c 128,-1,13
 143 619 143 619 143 598 c 128,-1,14
 143 577 143 577 128 562.5 c 128,-1,15
 113 548 113 548 93 548 c 128,-1,8
 73 548 73 548 61.5 558.5 c 128,-1,9
EndSplineSet
EndChar

StartChar: copyright
Encoding: 169 169 106
Width: 782
GlyphClass: 2
Flags: W
LayerCount: 2
Fore
SplineSet
148 96.5 m 128,-1,1
 50 199 50 199 50 345.5 c 128,-1,2
 50 492 50 492 148.5 594 c 128,-1,3
 247 696 247 696 391 696 c 128,-1,4
 535 696 535 696 633.5 594 c 128,-1,5
 732 492 732 492 732 345.5 c 128,-1,6
 732 199 732 199 634 96.5 c 128,-1,7
 536 -6 536 -6 391 -6 c 128,-1,0
 246 -6 246 -6 148 96.5 c 128,-1,1
182 561 m 128,-1,9
 104 479 104 479 104 355.5 c 128,-1,10
 104 232 104 232 191.5 140.5 c 128,-1,11
 279 49 279 49 400.5 49 c 128,-1,12
 522 49 522 49 600 131 c 128,-1,13
 678 213 678 213 678 336.5 c 128,-1,14
 678 460 678 460 590.5 551.5 c 128,-1,15
 503 643 503 643 381.5 643 c 128,-1,8
 260 643 260 643 182 561 c 128,-1,9
439 572 m 0,16,17
 490 572 490 572 528.5 547 c 128,-1,18
 567 522 567 522 567 488 c 0,19,20
 567 469 567 469 555 456.5 c 128,-1,21
 543 444 543 444 519 444 c 128,-1,22
 495 444 495 444 474 468 c 2,23,-1
 466 477 l 2,24,25
 459 486 459 486 456 488.5 c 128,-1,26
 453 491 453 491 444 498 c 0,27,28
 422 518 422 518 383 518 c 0,29,30
 333 518 333 518 299.5 469 c 128,-1,31
 266 420 266 420 266 352 c 128,-1,32
 266 284 266 284 309 228.5 c 128,-1,33
 352 173 352 173 415 173 c 0,34,35
 448 173 448 173 479.5 191 c 128,-1,36
 511 209 511 209 525 227 c 128,-1,37
 539 245 539 245 547.5 245 c 128,-1,38
 556 245 556 245 560.5 240.5 c 128,-1,39
 565 236 565 236 565 230 c 0,40,41
 565 202 565 202 508 159.5 c 128,-1,42
 451 117 451 117 372.5 117 c 128,-1,43
 294 117 294 117 238 166.5 c 128,-1,44
 182 216 182 216 182 301 c 0,45,46
 182 416 182 416 255.5 494 c 128,-1,47
 329 572 329 572 439 572 c 0,16,17
EndSplineSet
EndChar

StartChar: ordfeminine
Encoding: 170 170 107
Width: 360
GlyphClass: 2
Flags: W
LayerCount: 2
Fore
SplineSet
306.5 440 m 128,-1,1
 327 422 327 422 327 408 c 128,-1,2
 327 394 327 394 315 383 c 128,-1,3
 303 372 303 372 279.5 372 c 128,-1,4
 256 372 256 372 236 411 c 2,5,-1
 225 432 l 1,6,7
 190 372 190 372 118 372 c 0,8,9
 81 372 81 372 57 394.5 c 128,-1,10
 33 417 33 417 33 452 c 0,11,12
 33 505 33 505 70.5 543.5 c 128,-1,13
 108 582 108 582 167 585 c 1,14,15
 151 611 151 611 131 621 c 128,-1,16
 111 631 111 631 102.5 631 c 128,-1,17
 94 631 94 631 84.5 630 c 128,-1,18
 75 629 75 629 63.5 635.5 c 128,-1,19
 52 642 52 642 52 659.5 c 128,-1,20
 52 677 52 677 63.5 686.5 c 128,-1,21
 75 696 75 696 91 696 c 0,22,23
 152 696 152 696 187.5 668 c 128,-1,24
 223 640 223 640 248 567 c 2,25,-1
 281 470 l 2,26,0
 286 458 286 458 306.5 440 c 128,-1,1
107.5 523.5 m 128,-1,28
 89 510 89 510 89 486.5 c 128,-1,29
 89 463 89 463 105.5 446.5 c 128,-1,30
 122 430 122 430 146 430 c 128,-1,31
 170 430 170 430 188.5 446 c 128,-1,32
 207 462 207 462 207 484 c 128,-1,33
 207 506 207 506 197 526 c 1,34,35
 173 537 173 537 149.5 537 c 128,-1,27
 126 537 126 537 107.5 523.5 c 128,-1,28
EndSplineSet
EndChar

StartChar: guillemotleft
Encoding: 171 171 108
Width: 499
GlyphClass: 2
Flags: W
LayerCount: 2
Fore
SplineSet
255 484 m 128,-1,1
 269 484 269 484 269 470 c 0,2,3
 269 460 269 460 257 447.5 c 128,-1,4
 245 435 245 435 218 412 c 0,5,6
 125 329 125 329 125 286 c 0,7,8
 125 246 125 246 218 164 c 0,9,10
 245 140 245 140 257 127.5 c 128,-1,11
 269 115 269 115 269 105 c 0,12,13
 269 91 269 91 255 91 c 128,-1,14
 241 91 241 91 204 117.5 c 128,-1,15
 167 144 167 144 135 176 c 0,16,17
 50 261 50 261 50 287.5 c 128,-1,18
 50 314 50 314 135 399 c 0,19,20
 167 431 167 431 204 457.5 c 128,-1,0
 241 484 241 484 255 484 c 128,-1,1
435 484 m 128,-1,22
 449 484 449 484 449 470 c 0,23,24
 449 460 449 460 437 447.5 c 128,-1,25
 425 435 425 435 398 412 c 0,26,27
 305 329 305 329 305 286 c 0,28,29
 305 246 305 246 398 164 c 0,30,31
 425 140 425 140 437 127.5 c 128,-1,32
 449 115 449 115 449 105 c 0,33,34
 449 91 449 91 435 91 c 128,-1,35
 421 91 421 91 384 117.5 c 128,-1,36
 347 144 347 144 315 176 c 0,37,38
 230 261 230 261 230 287.5 c 128,-1,39
 230 314 230 314 315 399 c 0,40,41
 347 431 347 431 384 457.5 c 128,-1,21
 421 484 421 484 435 484 c 128,-1,22
EndSplineSet
EndChar

StartChar: logicalnot
Encoding: 172 172 109
Width: 533
GlyphClass: 2
Flags: W
LayerCount: 2
Fore
SplineSet
400 193 m 1,0,-1
 406 268 l 1,1,2
 295 271 295 271 267 271 c 2,3,-1
 83 267 l 2,4,5
 69 267 69 267 59.5 276.5 c 128,-1,6
 50 286 50 286 50 300 c 128,-1,7
 50 314 50 314 59.5 323 c 128,-1,8
 69 332 69 332 83 332 c 2,9,-1
 267 327 l 1,10,-1
 451 332 l 2,11,12
 480 332 480 332 483 300 c 0,13,14
 490 235 490 235 490 193 c 0,15,16
 490 174 490 174 477.5 160 c 128,-1,17
 465 146 465 146 445 146 c 128,-1,18
 425 146 425 146 412.5 160 c 128,-1,19
 400 174 400 174 400 193 c 1,0,-1
EndSplineSet
EndChar

StartChar: uni00AD
Encoding: 173 173 110
Width: 370
GlyphClass: 2
Flags: W
LayerCount: 2
Fore
SplineSet
185 330 m 128,-1,1
 217 330 217 330 248.5 333 c 128,-1,2
 280 336 280 336 290 336 c 128,-1,3
 300 336 300 336 310 326 c 128,-1,4
 320 316 320 316 320 300 c 128,-1,5
 320 284 320 284 310 273.5 c 128,-1,6
 300 263 300 263 290 263 c 128,-1,7
 280 263 280 263 248.5 265.5 c 128,-1,8
 217 268 217 268 185 268 c 128,-1,9
 153 268 153 268 121.5 265.5 c 128,-1,10
 90 263 90 263 80 263 c 128,-1,11
 70 263 70 263 60 273.5 c 128,-1,12
 50 284 50 284 50 300 c 128,-1,13
 50 316 50 316 60 326 c 128,-1,14
 70 336 70 336 80 336 c 128,-1,15
 90 336 90 336 121.5 333 c 128,-1,0
 153 330 153 330 185 330 c 128,-1,1
EndSplineSet
EndChar

StartChar: registered
Encoding: 174 174 111
Width: 782
GlyphClass: 2
Flags: W
LayerCount: 2
Fore
SplineSet
148 96.5 m 128,-1,1
 50 199 50 199 50 345.5 c 128,-1,2
 50 492 50 492 148.5 594 c 128,-1,3
 247 696 247 696 391 696 c 128,-1,4
 535 696 535 696 633.5 594 c 128,-1,5
 732 492 732 492 732 345.5 c 128,-1,6
 732 199 732 199 634 96.5 c 128,-1,7
 536 -6 536 -6 391 -6 c 128,-1,0
 246 -6 246 -6 148 96.5 c 128,-1,1
260 160 m 2,8,-1
 266 346 l 1,9,10
 266 418 266 418 263 461 c 128,-1,11
 260 504 260 504 260 513 c 1,12,-1
 249 513 l 2,13,14
 238 513 238 513 230 521.5 c 128,-1,15
 222 530 222 530 222 543 c 128,-1,16
 222 556 222 556 230 564 c 128,-1,17
 238 572 238 572 249 572 c 2,18,-1
 316 568 l 1,19,-1
 412 572 l 1,20,21
 470 572 470 572 512.5 544 c 128,-1,22
 555 516 555 516 555 459.5 c 128,-1,23
 555 403 555 403 524 366.5 c 128,-1,24
 493 330 493 330 448 312 c 1,25,26
 482 295 482 295 523.5 245 c 128,-1,27
 565 195 565 195 565 160 c 0,28,29
 565 142 565 142 555 131 c 128,-1,30
 545 120 545 120 527 120 c 128,-1,31
 509 120 509 120 498.5 136.5 c 128,-1,32
 488 153 488 153 471.5 186.5 c 128,-1,33
 455 220 455 220 432 246 c 0,34,35
 383 299 383 299 332 314 c 1,36,-1
 338 160 l 2,37,38
 338 142 338 142 327 131 c 128,-1,39
 316 120 316 120 300 120 c 128,-1,40
 284 120 284 120 272 131 c 128,-1,41
 260 142 260 142 260 160 c 2,8,-1
380 517 m 0,42,43
 352 517 352 517 338 516 c 1,44,45
 338 509 338 509 336 482 c 0,46,47
 332 428 332 428 332 360 c 1,48,49
 360 345 360 345 393.5 345 c 128,-1,50
 427 345 427 345 458 368 c 128,-1,51
 489 391 489 391 489 434 c 0,52,53
 489 517 489 517 380 517 c 0,42,43
182 561 m 128,-1,55
 104 479 104 479 104 355.5 c 128,-1,56
 104 232 104 232 191.5 140.5 c 128,-1,57
 279 49 279 49 400.5 49 c 128,-1,58
 522 49 522 49 600 131 c 128,-1,59
 678 213 678 213 678 336.5 c 128,-1,60
 678 460 678 460 590.5 551.5 c 128,-1,61
 503 643 503 643 381.5 643 c 128,-1,54
 260 643 260 643 182 561 c 128,-1,55
EndSplineSet
EndChar

StartChar: macron
Encoding: 175 175 112
Width: 353
GlyphClass: 2
Flags: W
LayerCount: 2
Fore
SplineSet
78 608 m 2,0,-1
 177 604 l 1,1,-1
 276 608 l 2,2,3
 290 608 290 608 298 600 c 128,-1,4
 306 592 306 592 306 578 c 128,-1,5
 306 564 306 564 297.5 555.5 c 128,-1,6
 289 547 289 547 276 547 c 2,7,-1
 177 550 l 1,8,-1
 78 547 l 2,9,10
 64 547 64 547 55.5 555.5 c 128,-1,11
 47 564 47 564 47 577.5 c 128,-1,12
 47 591 47 591 55.5 599.5 c 128,-1,13
 64 608 64 608 78 608 c 2,0,-1
EndSplineSet
EndChar

StartChar: degree
Encoding: 176 176 113
Width: 334
GlyphClass: 2
Flags: W
LayerCount: 2
Fore
SplineSet
77.5 428 m 128,-1,1
 45 458 45 458 45 507 c 128,-1,2
 45 556 45 556 85.5 599 c 128,-1,3
 126 642 126 642 174.5 642 c 128,-1,4
 223 642 223 642 256 611 c 128,-1,5
 289 580 289 580 289 532 c 128,-1,6
 289 484 289 484 248.5 441 c 128,-1,7
 208 398 208 398 159 398 c 128,-1,0
 110 398 110 398 77.5 428 c 128,-1,1
122 562 m 128,-1,9
 103 544 103 544 103 519 c 128,-1,10
 103 494 103 494 122 475 c 128,-1,11
 141 456 141 456 166 456 c 128,-1,12
 191 456 191 456 209 475 c 128,-1,13
 227 494 227 494 227 519 c 128,-1,14
 227 544 227 544 209 562 c 128,-1,15
 191 580 191 580 166 580 c 128,-1,8
 141 580 141 580 122 562 c 128,-1,9
EndSplineSet
EndChar

StartChar: plusminus
Encoding: 177 177 114
Width: 470
GlyphClass: 2
Flags: W
LayerCount: 2
Fore
SplineSet
202 319 m 1,0,-1
 86 314 l 2,1,2
 70 314 70 314 60 324.5 c 128,-1,3
 50 335 50 335 50 351 c 128,-1,4
 50 367 50 367 60 377 c 128,-1,5
 70 387 70 387 86 387 c 2,6,-1
 202 381 l 1,7,-1
 197 470 l 2,8,9
 197 486 197 486 207 496 c 128,-1,10
 217 506 217 506 233 506 c 128,-1,11
 249 506 249 506 259.5 496 c 128,-1,12
 270 486 270 486 270 470 c 2,13,-1
 265 381 l 1,14,15
 265 381 265 381 384 387 c 0,16,17
 400 387 400 387 410 377 c 128,-1,18
 420 367 420 367 420 351 c 128,-1,19
 420 335 420 335 410 324.5 c 128,-1,20
 400 314 400 314 384 314 c 2,21,-1
 265 319 l 1,22,-1
 270 232 l 2,23,24
 270 216 270 216 259.5 206 c 128,-1,25
 249 196 249 196 233 196 c 128,-1,26
 217 196 217 196 207 206 c 128,-1,27
 197 216 197 216 197 232 c 2,28,-1
 202 319 l 1,0,-1
235 99 m 1,29,-1
 86 94 l 2,30,31
 70 94 70 94 60 104.5 c 128,-1,32
 50 115 50 115 50 131 c 128,-1,33
 50 147 50 147 60 157 c 128,-1,34
 70 167 70 167 80.5 167 c 128,-1,35
 91 167 91 167 143.5 164 c 128,-1,36
 196 161 196 161 235 161 c 128,-1,37
 274 161 274 161 326.5 164 c 128,-1,38
 379 167 379 167 389.5 167 c 128,-1,39
 400 167 400 167 410 157 c 128,-1,40
 420 147 420 147 420 131 c 128,-1,41
 420 115 420 115 410 104.5 c 128,-1,42
 400 94 400 94 384 94 c 2,43,-1
 235 99 l 1,29,-1
EndSplineSet
EndChar

StartChar: twosuperior
Encoding: 178 178 115
Width: 387
GlyphClass: 2
Flags: W
LayerCount: 2
Fore
SplineSet
187 289 m 1,0,-1
 94 286 l 2,1,2
 81 286 81 286 70.5 296.5 c 128,-1,3
 60 307 60 307 60 327 c 128,-1,4
 60 347 60 347 85 368 c 0,5,6
 93 375 93 375 121 395.5 c 128,-1,7
 149 416 149 416 161 426 c 128,-1,8
 173 436 173 436 189.5 449.5 c 128,-1,9
 206 463 206 463 212.5 469 c 128,-1,10
 219 475 219 475 229 486 c 0,11,12
 247 506 247 506 247 527 c 128,-1,13
 247 548 247 548 231.5 560.5 c 128,-1,14
 216 573 216 573 189 573 c 0,15,16
 143 573 143 573 120 527 c 0,17,18
 118 523 118 523 117 521.5 c 128,-1,19
 116 520 116 520 114 516.5 c 128,-1,20
 112 513 112 513 111 512 c 128,-1,21
 110 511 110 511 108 509 c 0,22,23
 104 506 104 506 96 506 c 128,-1,24
 88 506 88 506 81 513.5 c 128,-1,25
 74 521 74 521 74 532 c 0,26,27
 74 572 74 572 119.5 607 c 128,-1,28
 165 642 165 642 213.5 642 c 128,-1,29
 262 642 262 642 291 616.5 c 128,-1,30
 320 591 320 591 320 555 c 0,31,32
 320 492 320 492 212 404 c 0,33,34
 186 383 186 383 167 368 c 2,35,-1
 148 354 l 1,36,37
 187 354 187 354 230.5 362 c 128,-1,38
 274 370 274 370 287 370 c 128,-1,39
 300 370 300 370 313.5 359.5 c 128,-1,40
 327 349 327 349 327 329.5 c 128,-1,41
 327 310 327 310 314.5 298 c 128,-1,42
 302 286 302 286 281 286 c 2,43,-1
 187 289 l 1,0,-1
EndSplineSet
EndChar

StartChar: threesuperior
Encoding: 179 179 116
Width: 372
GlyphClass: 2
Flags: W
LayerCount: 2
Fore
SplineSet
193 468 m 1,0,-1
 163 463 l 1,1,2
 145 463 145 463 145 482 c 0,3,4
 145 498 145 498 164 515 c 1,5,6
 208 551 208 551 233 579 c 1,7,8
 189 579 189 579 154.5 568.5 c 128,-1,9
 120 558 120 558 105.5 558 c 128,-1,10
 91 558 91 558 78 568.5 c 128,-1,11
 65 579 65 579 65 599 c 0,12,13
 65 642 65 642 112 642 c 1,14,-1
 192 639 l 1,15,-1
 271 642 l 2,16,17
 286 642 286 642 297.5 631.5 c 128,-1,18
 309 621 309 621 309 605 c 128,-1,19
 309 589 309 589 294 571.5 c 128,-1,20
 279 554 279 554 240 523 c 1,21,22
 270 511 270 511 291 483.5 c 128,-1,23
 312 456 312 456 312 421 c 0,24,25
 312 364 312 364 273 325 c 128,-1,26
 234 286 234 286 181.5 286 c 128,-1,27
 129 286 129 286 94.5 311.5 c 128,-1,28
 60 337 60 337 60 368 c 0,29,30
 60 387 60 387 72.5 401 c 128,-1,31
 85 415 85 415 100 415 c 128,-1,32
 115 415 115 415 124 405.5 c 128,-1,33
 133 396 133 396 139 384 c 128,-1,34
 145 372 145 372 160 362.5 c 128,-1,35
 175 353 175 353 197 353 c 128,-1,36
 219 353 219 353 236.5 368 c 128,-1,37
 254 383 254 383 254 410.5 c 128,-1,38
 254 438 254 438 232.5 453 c 128,-1,39
 211 468 211 468 193 468 c 1,0,-1
EndSplineSet
EndChar

StartChar: acute
Encoding: 180 180 117
Width: 296
GlyphClass: 2
Flags: W
LayerCount: 2
Fore
SplineSet
50 525 m 0,0,1
 50 531 50 531 58 539 c 0,2,3
 161 642 161 642 208 642 c 0,4,5
 223 642 223 642 234.5 631.5 c 128,-1,6
 246 621 246 621 246 606 c 0,7,8
 246 573 246 573 209 566 c 0,9,10
 131 552 131 552 74 518 c 0,11,12
 66 513 66 513 62 513 c 0,13,14
 50 513 50 513 50 525 c 0,0,1
EndSplineSet
EndChar

StartChar: mu
Encoding: 181 181 118
AltUni2: 0003bc.ffffffff.0
Width: 499
GlyphClass: 2
Flags: W
LayerCount: 2
Fore
SplineSet
349 171 m 1,0,-1
 339 396 l 1,1,2
 339 423 339 423 352.5 439.5 c 128,-1,3
 366 456 366 456 385 456 c 128,-1,4
 404 456 404 456 416 440.5 c 128,-1,5
 428 425 428 425 428 398.5 c 128,-1,6
 428 372 428 372 422 324 c 0,7,8
 410 228 410 228 410 152 c 0,9,10
 410 122 410 122 429.5 94.5 c 128,-1,11
 449 67 449 67 449 45 c 128,-1,12
 449 23 449 23 434 8.5 c 128,-1,13
 419 -6 419 -6 400 -6 c 0,14,15
 350 -6 350 -6 350 73 c 1,16,17
 303 -6 303 -6 232 -6 c 0,18,19
 186 -6 186 -6 157 20 c 1,20,-1
 164 -234 l 1,21,22
 164 -292 164 -292 115 -292 c 0,23,24
 94 -292 94 -292 80 -277.5 c 128,-1,25
 66 -263 66 -263 66 -239.5 c 128,-1,26
 66 -216 66 -216 78 -188 c 128,-1,27
 90 -160 90 -160 90 -115 c 128,-1,28
 90 -70 90 -70 95 135 c 1,29,-1
 57 307 l 2,30,31
 51 336 51 336 30.5 358.5 c 128,-1,32
 10 381 10 381 10 404 c 128,-1,33
 10 427 10 427 26 441.5 c 128,-1,34
 42 456 42 456 64 456 c 0,35,36
 114 456 114 456 129 377 c 2,37,-1
 167 168 l 2,38,39
 186 68 186 68 262 68 c 0,40,41
 299 68 299 68 323 97.5 c 128,-1,42
 347 127 347 127 349 171 c 1,0,-1
EndSplineSet
EndChar

StartChar: paragraph
Encoding: 182 182 119
Width: 494
GlyphClass: 2
Flags: W
LayerCount: 2
Fore
SplineSet
324 690 m 1,0,-1
 385 696 l 1,1,2
 399 696 399 696 409.5 686.5 c 128,-1,3
 420 677 420 677 420 662.5 c 128,-1,4
 420 648 420 648 409.5 638.5 c 128,-1,5
 399 629 399 629 382.5 629 c 128,-1,6
 366 629 366 629 358 630 c 1,7,8
 321 592 321 592 321 499.5 c 128,-1,9
 321 407 321 407 322 369 c 1,10,11
 360 385 360 385 364 429 c 1,12,-1
 364 434 l 2,13,14
 364 454 364 454 374.5 469 c 128,-1,15
 385 484 385 484 401 484 c 128,-1,16
 417 484 417 484 427.5 470.5 c 128,-1,17
 438 457 438 457 438 430.5 c 128,-1,18
 438 404 438 404 431 325.5 c 128,-1,19
 424 247 424 247 424 184.5 c 128,-1,20
 424 122 424 122 436.5 91 c 128,-1,21
 449 60 449 60 449 42.5 c 128,-1,22
 449 25 449 25 438.5 9.5 c 128,-1,23
 428 -6 428 -6 410.5 -6 c 128,-1,24
 393 -6 393 -6 383.5 13.5 c 128,-1,25
 374 33 374 33 374 61 c 0,26,27
 374 239 374 239 366 367 c 1,28,29
 349 347 349 347 323 330 c 1,30,31
 326 233 326 233 332 119 c 128,-1,32
 338 5 338 5 338 -128 c 0,33,34
 338 -290 338 -290 275 -290 c 0,35,36
 231 -290 231 -290 231 -233 c 0,37,38
 231 -213 231 -213 241 -174 c 0,39,40
 270 -59 270 -59 270 127 c 0,41,42
 270 167 270 167 265 305 c 1,43,44
 242 300 242 300 222 300 c 0,45,46
 139 300 139 300 84.5 346 c 128,-1,47
 30 392 30 392 30 477.5 c 128,-1,48
 30 563 30 563 95 629.5 c 128,-1,49
 160 696 160 696 243 696 c 1,50,-1
 324 690 l 1,0,-1
268 636 m 128,-1,52
 231 636 231 636 201 601 c 128,-1,53
 171 566 171 566 171 499 c 0,54,55
 171 374 171 374 262 363 c 1,56,57
 260 392 260 392 260 446 c 0,58,59
 260 578 260 578 327 633 c 1,60,51
 305 636 305 636 268 636 c 128,-1,52
EndSplineSet
EndChar

StartChar: periodcentered
Encoding: 183 183 120
Width: 262
GlyphClass: 2
Flags: W
LayerCount: 2
Fore
SplineSet
89 182 m 128,-1,1
 75 195 75 195 75 220.5 c 128,-1,2
 75 246 75 246 92.5 264 c 128,-1,3
 110 282 110 282 134.5 282 c 128,-1,4
 159 282 159 282 173.5 268.5 c 128,-1,5
 188 255 188 255 188 229.5 c 128,-1,6
 188 204 188 204 170 186.5 c 128,-1,7
 152 169 152 169 127.5 169 c 128,-1,0
 103 169 103 169 89 182 c 128,-1,1
EndSplineSet
EndChar

StartChar: cedilla
Encoding: 184 184 121
Width: 263
GlyphClass: 2
Flags: W
LayerCount: 2
Fore
SplineSet
129 -130 m 1,0,-1
 77 -137 l 1,1,2
 68 -137 68 -137 62 -131 c 128,-1,3
 56 -125 56 -125 56 -112.5 c 128,-1,4
 56 -100 56 -100 84.5 -77.5 c 128,-1,5
 113 -55 113 -55 113 -32 c 0,6,7
 113 -6 113 -6 83 -6 c 1,8,-1
 83 11 l 1,9,-1
 130 11 l 1,10,-1
 128 0 l 1,11,12
 132 0 132 0 137 -10.5 c 128,-1,13
 142 -21 142 -21 142 -29 c 0,14,15
 142 -56 142 -56 129 -66 c 1,16,17
 166 -66 166 -66 189.5 -87.5 c 128,-1,18
 213 -109 213 -109 213 -146 c 0,19,20
 213 -206 213 -206 171 -248 c 128,-1,21
 129 -290 129 -290 93 -290 c 0,22,23
 75 -290 75 -290 62.5 -278 c 128,-1,24
 50 -266 50 -266 50 -247 c 128,-1,25
 50 -228 50 -228 64 -213 c 128,-1,26
 78 -198 78 -198 91 -198 c 128,-1,27
 104 -198 104 -198 114 -205 c 128,-1,28
 124 -212 124 -212 135 -212 c 128,-1,29
 146 -212 146 -212 157 -198.5 c 128,-1,30
 168 -185 168 -185 168 -168.5 c 128,-1,31
 168 -152 168 -152 157.5 -141 c 128,-1,32
 147 -130 147 -130 129 -130 c 1,0,-1
EndSplineSet
EndChar

StartChar: onesuperior
Encoding: 185 185 122
Width: 312
GlyphClass: 2
Flags: W
LayerCount: 2
Fore
SplineSet
229 471 m 1,0,-1
 232 342 l 2,1,2
 232 319 232 319 220.5 303 c 128,-1,3
 209 287 209 287 188.5 287 c 128,-1,4
 168 287 168 287 155.5 300.5 c 128,-1,5
 143 314 143 314 143 329 c 128,-1,6
 143 344 143 344 151 359.5 c 128,-1,7
 159 375 159 375 162 387.5 c 128,-1,8
 165 400 165 400 165 471.5 c 128,-1,9
 165 543 165 543 161 567 c 1,10,11
 161 574 161 574 151.5 574 c 128,-1,12
 142 574 142 574 124.5 567.5 c 128,-1,13
 107 561 107 561 96 561 c 128,-1,14
 85 561 85 561 72.5 572 c 128,-1,15
 60 583 60 583 60 600 c 128,-1,16
 60 617 60 617 73 628 c 128,-1,17
 86 639 86 639 101 639 c 2,18,-1
 209 642 l 2,19,20
 231 642 231 642 231 623 c 2,21,-1
 229 471 l 1,0,-1
EndSplineSet
EndChar

StartChar: ordmasculine
Encoding: 186 186 123
Width: 353
GlyphClass: 2
Flags: W
LayerCount: 2
Fore
SplineSet
30 497 m 0,0,1
 30 578 30 578 80.5 637 c 128,-1,2
 131 696 131 696 206 696 c 0,3,4
 259 696 259 696 291 659 c 128,-1,5
 323 622 323 622 323 571 c 0,6,7
 323 489 323 489 272.5 430.5 c 128,-1,8
 222 372 222 372 147 372 c 0,9,10
 94 372 94 372 62 408.5 c 128,-1,11
 30 445 30 445 30 497 c 0,0,1
240 460.5 m 128,-1,13
 266 490 266 490 266 533.5 c 128,-1,14
 266 577 266 577 240 607.5 c 128,-1,15
 214 638 214 638 176.5 638 c 128,-1,16
 139 638 139 638 113 607.5 c 128,-1,17
 87 577 87 577 87 533.5 c 128,-1,18
 87 490 87 490 113 460.5 c 128,-1,19
 139 431 139 431 176.5 431 c 128,-1,12
 214 431 214 431 240 460.5 c 128,-1,13
EndSplineSet
EndChar

StartChar: guillemotright
Encoding: 187 187 124
Width: 499
GlyphClass: 2
Flags: W
LayerCount: 2
Fore
SplineSet
184 399 m 0,0,1
 269 314 269 314 269 287.5 c 128,-1,2
 269 261 269 261 184 176 c 0,3,4
 152 144 152 144 115 117.5 c 128,-1,5
 78 91 78 91 64 91 c 128,-1,6
 50 91 50 91 50 105 c 0,7,8
 50 115 50 115 62 127.5 c 128,-1,9
 74 140 74 140 100 164 c 0,10,11
 194 246 194 246 194 286 c 0,12,13
 194 329 194 329 100 412 c 0,14,15
 74 435 74 435 62 447.5 c 128,-1,16
 50 460 50 460 50 470 c 0,17,18
 50 484 50 484 64 484 c 128,-1,19
 78 484 78 484 115 457.5 c 128,-1,20
 152 431 152 431 184 399 c 0,0,1
364 399 m 0,21,22
 449 314 449 314 449 287.5 c 128,-1,23
 449 261 449 261 364 176 c 0,24,25
 332 144 332 144 295 117.5 c 128,-1,26
 258 91 258 91 244 91 c 128,-1,27
 230 91 230 91 230 105 c 0,28,29
 230 115 230 115 242 127.5 c 128,-1,30
 254 140 254 140 280 164 c 0,31,32
 374 246 374 246 374 286 c 0,33,34
 374 329 374 329 280 412 c 0,35,36
 254 435 254 435 242 447.5 c 128,-1,37
 230 460 230 460 230 470 c 0,38,39
 230 484 230 484 244 484 c 128,-1,40
 258 484 258 484 295 457.5 c 128,-1,41
 332 431 332 431 364 399 c 0,21,22
EndSplineSet
EndChar

StartChar: onequarter
Encoding: 188 188 125
Width: 742
GlyphClass: 2
Flags: W
LayerCount: 2
Fore
SplineSet
647 170 m 2,0,1
 663 170 663 170 672.5 160.5 c 128,-1,2
 682 151 682 151 682 135.5 c 128,-1,3
 682 120 682 120 672 110 c 128,-1,4
 662 100 662 100 653.5 100 c 128,-1,5
 645 100 645 100 615 102 c 1,6,7
 616 86 616 86 626 66 c 128,-1,8
 636 46 636 46 636 32.5 c 128,-1,9
 636 19 636 19 623.5 6.5 c 128,-1,10
 611 -6 611 -6 590.5 -6 c 128,-1,11
 570 -6 570 -6 558.5 6 c 128,-1,12
 547 18 547 18 547 35 c 128,-1,13
 547 52 547 52 550 103 c 1,14,-1
 530 103 l 1,15,-1
 430 100 l 2,16,17
 415 100 415 100 405 110 c 128,-1,18
 395 120 395 120 395 136.5 c 128,-1,19
 395 153 395 153 439.5 216.5 c 128,-1,20
 484 280 484 280 530.5 316.5 c 128,-1,21
 577 353 577 353 613.5 353 c 128,-1,22
 650 353 650 353 650 313 c 0,23,24
 650 298 650 298 642 288.5 c 128,-1,25
 634 279 634 279 621 279 c 2,26,-1
 617 279 l 1,27,28
 614 252 614 252 614 168 c 1,29,-1
 647 170 l 2,0,1
548 274 m 1,30,31
 501 250 501 250 459 170 c 1,32,33
 504 167 504 167 530 167 c 2,34,-1
 550 167 l 1,35,-1
 548 274 l 1,30,31
229 471 m 1,36,-1
 232 342 l 2,37,38
 232 319 232 319 220.5 303 c 128,-1,39
 209 287 209 287 188.5 287 c 128,-1,40
 168 287 168 287 155.5 300.5 c 128,-1,41
 143 314 143 314 143 329 c 128,-1,42
 143 344 143 344 151 359.5 c 128,-1,43
 159 375 159 375 162 387.5 c 128,-1,44
 165 400 165 400 165 471.5 c 128,-1,45
 165 543 165 543 161 567 c 1,46,47
 161 574 161 574 151.5 574 c 128,-1,48
 142 574 142 574 124.5 567.5 c 128,-1,49
 107 561 107 561 96 561 c 128,-1,50
 85 561 85 561 72.5 572 c 128,-1,51
 60 583 60 583 60 600 c 128,-1,52
 60 617 60 617 73 628 c 128,-1,53
 86 639 86 639 101 639 c 2,54,-1
 209 642 l 2,55,56
 231 642 231 642 231 623 c 2,57,-1
 229 471 l 1,36,-1
618 598 m 0,58,59
 618 577 618 577 596.5 548.5 c 128,-1,60
 575 520 575 520 514.5 450 c 128,-1,61
 454 380 454 380 410.5 323 c 128,-1,62
 367 266 367 266 329 212 c 128,-1,63
 291 158 291 158 267.5 123 c 128,-1,64
 244 88 244 88 220 56 c 0,65,66
 174 -6 174 -6 143 -6 c 0,67,68
 105 -6 105 -6 105 33 c 0,69,70
 105 51 105 51 134.5 88.5 c 128,-1,71
 164 126 164 126 230.5 202.5 c 128,-1,72
 297 279 297 279 344 343 c 128,-1,73
 391 407 391 407 446.5 492 c 128,-1,74
 502 577 502 577 529.5 609.5 c 128,-1,75
 557 642 557 642 580 642 c 0,76,77
 618 642 618 642 618 598 c 0,58,59
EndSplineSet
EndChar

StartChar: onehalf
Encoding: 189 189 126
Width: 766
GlyphClass: 2
Flags: W
LayerCount: 2
Fore
SplineSet
229 471 m 1,0,-1
 232 342 l 2,1,2
 232 319 232 319 220.5 303 c 128,-1,3
 209 287 209 287 188.5 287 c 128,-1,4
 168 287 168 287 155.5 300.5 c 128,-1,5
 143 314 143 314 143 329 c 128,-1,6
 143 344 143 344 151 359.5 c 128,-1,7
 159 375 159 375 162 387.5 c 128,-1,8
 165 400 165 400 165 471.5 c 128,-1,9
 165 543 165 543 161 567 c 1,10,11
 161 574 161 574 151.5 574 c 128,-1,12
 142 574 142 574 124.5 567.5 c 128,-1,13
 107 561 107 561 96 561 c 128,-1,14
 85 561 85 561 72.5 572 c 128,-1,15
 60 583 60 583 60 600 c 128,-1,16
 60 617 60 617 73 628 c 128,-1,17
 86 639 86 639 101 639 c 2,18,-1
 209 642 l 2,19,20
 231 642 231 642 231 623 c 2,21,-1
 229 471 l 1,0,-1
618 598 m 0,22,23
 618 577 618 577 596.5 548.5 c 128,-1,24
 575 520 575 520 514.5 450 c 128,-1,25
 454 380 454 380 410.5 323 c 128,-1,26
 367 266 367 266 329 212 c 128,-1,27
 291 158 291 158 267.5 123 c 128,-1,28
 244 88 244 88 220 56 c 0,29,30
 174 -6 174 -6 143 -6 c 0,31,32
 105 -6 105 -6 105 33 c 0,33,34
 105 51 105 51 134.5 88.5 c 128,-1,35
 164 126 164 126 230.5 202.5 c 128,-1,36
 297 279 297 279 344 343 c 128,-1,37
 391 407 391 407 446.5 492 c 128,-1,38
 502 577 502 577 529.5 609.5 c 128,-1,39
 557 642 557 642 580 642 c 0,40,41
 618 642 618 642 618 598 c 0,22,23
566 -3 m 1,42,-1
 473 -6 l 2,43,44
 460 -6 460 -6 449.5 4.5 c 128,-1,45
 439 15 439 15 439 35 c 128,-1,46
 439 55 439 55 464 76 c 0,47,48
 472 83 472 83 500 103.5 c 128,-1,49
 528 124 528 124 540 134 c 128,-1,50
 552 144 552 144 568.5 157.5 c 128,-1,51
 585 171 585 171 591.5 177 c 128,-1,52
 598 183 598 183 608 194 c 0,53,54
 626 214 626 214 626 235 c 128,-1,55
 626 256 626 256 610.5 268.5 c 128,-1,56
 595 281 595 281 568 281 c 0,57,58
 522 281 522 281 499 235 c 0,59,60
 497 231 497 231 496 229.5 c 128,-1,61
 495 228 495 228 493 224.5 c 128,-1,62
 491 221 491 221 490 220 c 128,-1,63
 489 219 489 219 486 217 c 0,64,65
 483 214 483 214 475 214 c 128,-1,66
 467 214 467 214 460 221.5 c 128,-1,67
 453 229 453 229 453 240 c 0,68,69
 453 280 453 280 498.5 315 c 128,-1,70
 544 350 544 350 592.5 350 c 128,-1,71
 641 350 641 350 670 324.5 c 128,-1,72
 699 299 699 299 699 263 c 0,73,74
 699 200 699 200 592 112 c 0,75,76
 565 91 565 91 546 76 c 2,77,-1
 527 62 l 1,78,79
 566 62 566 62 609.5 70 c 128,-1,80
 653 78 653 78 666 78 c 128,-1,81
 679 78 679 78 692.5 67.5 c 128,-1,82
 706 57 706 57 706 37.5 c 128,-1,83
 706 18 706 18 693.5 6 c 128,-1,84
 681 -6 681 -6 660 -6 c 2,85,-1
 566 -3 l 1,42,-1
EndSplineSet
EndChar

StartChar: threequarters
Encoding: 190 190 127
Width: 772
GlyphClass: 2
Flags: W
LayerCount: 2
Fore
SplineSet
677 170 m 2,0,1
 693 170 693 170 702.5 160.5 c 128,-1,2
 712 151 712 151 712 135.5 c 128,-1,3
 712 120 712 120 702 110 c 128,-1,4
 692 100 692 100 683.5 100 c 128,-1,5
 675 100 675 100 645 102 c 1,6,7
 646 86 646 86 656 66 c 128,-1,8
 666 46 666 46 666 32.5 c 128,-1,9
 666 19 666 19 653.5 6.5 c 128,-1,10
 641 -6 641 -6 620.5 -6 c 128,-1,11
 600 -6 600 -6 588.5 6 c 128,-1,12
 577 18 577 18 577 35 c 128,-1,13
 577 52 577 52 580 103 c 1,14,-1
 560 103 l 1,15,-1
 460 100 l 2,16,17
 445 100 445 100 435 110 c 128,-1,18
 425 120 425 120 425 136.5 c 128,-1,19
 425 153 425 153 469.5 216.5 c 128,-1,20
 514 280 514 280 560.5 316.5 c 128,-1,21
 607 353 607 353 643.5 353 c 128,-1,22
 680 353 680 353 680 313 c 0,23,24
 680 298 680 298 672 288.5 c 128,-1,25
 664 279 664 279 651 279 c 2,26,-1
 647 279 l 1,27,28
 644 252 644 252 644 168 c 1,29,-1
 677 170 l 2,0,1
578 274 m 1,30,31
 531 250 531 250 489 170 c 1,32,33
 534 167 534 167 560 167 c 2,34,-1
 580 167 l 1,35,-1
 578 274 l 1,30,31
648 598 m 0,36,37
 648 577 648 577 626.5 548.5 c 128,-1,38
 605 520 605 520 544.5 450 c 128,-1,39
 484 380 484 380 440.5 323 c 128,-1,40
 397 266 397 266 359 212 c 128,-1,41
 321 158 321 158 297.5 123 c 128,-1,42
 274 88 274 88 250 56 c 0,43,44
 204 -6 204 -6 173 -6 c 0,45,46
 135 -6 135 -6 135 33 c 0,47,48
 135 51 135 51 164.5 88.5 c 128,-1,49
 194 126 194 126 260.5 202.5 c 128,-1,50
 327 279 327 279 374 343 c 128,-1,51
 421 407 421 407 476.5 492 c 128,-1,52
 532 577 532 577 559.5 609.5 c 128,-1,53
 587 642 587 642 610 642 c 0,54,55
 648 642 648 642 648 598 c 0,36,37
192 639 m 1,56,-1
 271 642 l 2,57,58
 286 642 286 642 297.5 631.5 c 128,-1,59
 309 621 309 621 309 605 c 128,-1,60
 309 589 309 589 294 571.5 c 128,-1,61
 279 554 279 554 240 523 c 1,62,63
 270 511 270 511 291 483.5 c 128,-1,64
 312 456 312 456 312 421 c 0,65,66
 312 364 312 364 273 325 c 128,-1,67
 234 286 234 286 181.5 286 c 128,-1,68
 129 286 129 286 94.5 311.5 c 128,-1,69
 60 337 60 337 60 368 c 0,70,71
 60 387 60 387 72.5 401 c 128,-1,72
 85 415 85 415 104.5 415 c 128,-1,73
 124 415 124 415 139 384 c 0,74,75
 145 372 145 372 160 362.5 c 128,-1,76
 175 353 175 353 197 353 c 128,-1,77
 219 353 219 353 236.5 368 c 128,-1,78
 254 383 254 383 254 410.5 c 128,-1,79
 254 438 254 438 232.5 453 c 128,-1,80
 211 468 211 468 193 468 c 1,81,-1
 163 463 l 1,82,83
 145 463 145 463 145 482 c 0,84,85
 145 498 145 498 164 515 c 1,86,87
 208 551 208 551 233 579 c 1,88,89
 189 579 189 579 154.5 568.5 c 128,-1,90
 120 558 120 558 105.5 558 c 128,-1,91
 91 558 91 558 78 568.5 c 128,-1,92
 65 579 65 579 65 599 c 0,93,94
 65 642 65 642 112 642 c 1,95,-1
 192 639 l 1,56,-1
EndSplineSet
EndChar

StartChar: questiondown
Encoding: 191 191 128
Width: 454
GlyphClass: 2
Flags: W
LayerCount: 2
Fore
SplineSet
308.5 442.5 m 128,-1,1
 323 429 323 429 323 402.5 c 128,-1,2
 323 376 323 376 304.5 356.5 c 128,-1,3
 286 337 286 337 260.5 337 c 128,-1,4
 235 337 235 337 219.5 351.5 c 128,-1,5
 204 366 204 366 204 392.5 c 128,-1,6
 204 419 204 419 223.5 437.5 c 128,-1,7
 243 456 243 456 268.5 456 c 128,-1,0
 294 456 294 456 308.5 442.5 c 128,-1,1
244 230 m 0,8,9
 244 240 244 240 250.5 246.5 c 128,-1,10
 257 253 257 253 265 253 c 128,-1,11
 273 253 273 253 279.5 246.5 c 128,-1,12
 286 240 286 240 286 230 c 0,13,14
 286 154 286 154 231 102 c 0,15,16
 208 81 208 81 185 60.5 c 128,-1,17
 162 40 162 40 146 10.5 c 128,-1,18
 130 -19 130 -19 130 -64.5 c 128,-1,19
 130 -110 130 -110 158 -145 c 128,-1,20
 186 -180 186 -180 227 -180 c 128,-1,21
 268 -180 268 -180 297 -161 c 128,-1,22
 326 -142 326 -142 340 -119.5 c 128,-1,23
 354 -97 354 -97 366.5 -78 c 128,-1,24
 379 -59 379 -59 386 -59 c 0,25,26
 404 -59 404 -59 404 -77 c 0,27,28
 404 -110 404 -110 356 -173 c 0,29,30
 333 -203 333 -203 291 -224.5 c 128,-1,31
 249 -246 249 -246 196.5 -246 c 128,-1,32
 144 -246 144 -246 97 -198.5 c 128,-1,33
 50 -151 50 -151 50 -92 c 128,-1,34
 50 -33 50 -33 70 6.5 c 128,-1,35
 90 46 90 46 118.5 70 c 128,-1,36
 147 94 147 94 176 116 c 0,37,38
 244 169 244 169 244 230 c 0,8,9
EndSplineSet
EndChar

StartChar: Aacute
Encoding: 193 193 130
Width: 679
GlyphClass: 2
Flags: W
LayerCount: 2
Fore
SplineSet
507 300 m 1,0,-1
 339 305 l 2,1,2
 311 305 311 305 179 301 c 1,3,4
 159 259 159 259 126 186 c 0,5,6
 29 -30 29 -30 -66 -174 c 0,7,8
 -143 -290 -143 -290 -182 -290 c 0,9,10
 -199 -290 -199 -290 -210 -278.5 c 128,-1,11
 -221 -267 -221 -267 -221 -247 c 128,-1,12
 -221 -227 -221 -227 -199.5 -200 c 128,-1,13
 -178 -173 -178 -173 -145.5 -141.5 c 128,-1,14
 -113 -110 -113 -110 -60.5 -37 c 128,-1,15
 -8 36 -8 36 40 131 c 0,16,17
 48 146 48 146 121 300 c 1,18,-1
 116 300 l 2,19,20
 100 300 100 300 88.5 309.5 c 128,-1,21
 77 319 77 319 77 336 c 128,-1,22
 77 353 77 353 89 364 c 128,-1,23
 101 375 101 375 120.5 375 c 128,-1,24
 140 375 140 375 158 374 c 1,25,26
 250 562 250 562 326 634 c 1,27,28
 148 620 148 620 133.5 620 c 128,-1,29
 119 620 119 620 106.5 630 c 128,-1,30
 94 640 94 640 94 656.5 c 128,-1,31
 94 673 94 673 106.5 684.5 c 128,-1,32
 119 696 119 696 134 696 c 2,33,-1
 352 690 l 1,34,-1
 589 696 l 2,35,36
 607 696 607 696 618 685 c 128,-1,37
 629 674 629 674 629 656.5 c 128,-1,38
 629 639 629 639 617.5 629.5 c 128,-1,39
 606 620 606 620 588 620 c 2,40,-1
 564 620 l 1,41,42
 564 460 564 460 577 331 c 128,-1,43
 590 202 590 202 603 132 c 128,-1,44
 616 62 616 62 616 43.5 c 128,-1,45
 616 25 616 25 604.5 9.5 c 128,-1,46
 593 -6 593 -6 574 -6 c 128,-1,47
 555 -6 555 -6 541 8 c 128,-1,48
 527 22 527 22 525 48 c 2,49,-1
 507 300 l 1,0,-1
489 632 m 1,50,-1
 459 633 l 1,51,52
 340 618 340 618 215 373 c 1,53,54
 321 371 321 371 349.5 371 c 128,-1,55
 378 371 378 371 502 375 c 1,56,57
 489 547 489 547 489 632 c 1,50,-1
364 762 m 0,58,59
 364 768 364 768 372 776 c 0,60,61
 475 879 475 879 522 879 c 0,62,63
 537 879 537 879 548.5 868.5 c 128,-1,64
 560 858 560 858 560 843 c 0,65,66
 560 810 560 810 523 803 c 0,67,68
 445 789 445 789 388 755 c 0,69,70
 380 750 380 750 376 750 c 0,71,72
 364 750 364 750 364 762 c 0,58,59
EndSplineSet
EndChar

StartChar: Atilde
Encoding: 195 195 132
Width: 679
GlyphClass: 2
Flags: W
LayerCount: 2
Fore
SplineSet
352 690 m 1,0,-1
 589 696 l 2,1,2
 607 696 607 696 618 685 c 128,-1,3
 629 674 629 674 629 656.5 c 128,-1,4
 629 639 629 639 617.5 629.5 c 128,-1,5
 606 620 606 620 588 620 c 2,6,-1
 564 620 l 1,7,8
 564 460 564 460 577 331 c 128,-1,9
 590 202 590 202 603 132 c 128,-1,10
 616 62 616 62 616 43.5 c 128,-1,11
 616 25 616 25 604.5 9.5 c 128,-1,12
 593 -6 593 -6 574 -6 c 128,-1,13
 555 -6 555 -6 541 8 c 128,-1,14
 527 22 527 22 525 48 c 2,15,-1
 507 300 l 1,16,-1
 339 305 l 2,17,18
 311 305 311 305 179 301 c 1,19,20
 159 259 159 259 126 186 c 0,21,22
 29 -30 29 -30 -66 -174 c 0,23,24
 -143 -290 -143 -290 -182 -290 c 0,25,26
 -199 -290 -199 -290 -210 -278.5 c 128,-1,27
 -221 -267 -221 -267 -221 -247 c 128,-1,28
 -221 -227 -221 -227 -199.5 -200 c 128,-1,29
 -178 -173 -178 -173 -145.5 -141.5 c 128,-1,30
 -113 -110 -113 -110 -60.5 -37 c 128,-1,31
 -8 36 -8 36 40 131 c 0,32,33
 48 146 48 146 121 300 c 1,34,-1
 116 300 l 2,35,36
 100 300 100 300 88.5 309.5 c 128,-1,37
 77 319 77 319 77 336 c 128,-1,38
 77 353 77 353 89 364 c 128,-1,39
 101 375 101 375 120.5 375 c 128,-1,40
 140 375 140 375 158 374 c 1,41,42
 250 562 250 562 326 634 c 1,43,44
 147 620 147 620 133 620 c 128,-1,45
 119 620 119 620 106.5 630 c 128,-1,46
 94 640 94 640 94 656.5 c 128,-1,47
 94 673 94 673 106.5 684.5 c 128,-1,48
 119 696 119 696 134 696 c 2,49,-1
 352 690 l 1,0,-1
459 633 m 1,50,51
 340 618 340 618 215 373 c 1,52,53
 321 371 321 371 349.5 371 c 128,-1,54
 378 371 378 371 502 375 c 1,55,56
 489 547 489 547 489 632 c 1,57,-1
 459 633 l 1,50,51
569 863 m 0,58,59
 569 831 569 831 536 790.5 c 128,-1,60
 503 750 503 750 465 750 c 0,61,62
 440 750 440 750 408 772.5 c 128,-1,63
 376 795 376 795 355.5 795 c 128,-1,64
 335 795 335 795 323 788 c 128,-1,65
 311 781 311 781 308 772 c 0,66,67
 300 750 300 750 291 750 c 0,68,69
 274 750 274 750 274 771.5 c 128,-1,70
 274 793 274 793 298.5 818.5 c 128,-1,71
 323 844 323 844 360.5 844 c 128,-1,72
 398 844 398 844 438 828.5 c 128,-1,73
 478 813 478 813 495.5 813 c 128,-1,74
 513 813 513 813 524 829.5 c 128,-1,75
 535 846 535 846 541 862.5 c 128,-1,76
 547 879 547 879 554 879 c 0,77,78
 569 879 569 879 569 863 c 0,58,59
EndSplineSet
EndChar

StartChar: Adieresis
Encoding: 196 196 133
Width: 679
GlyphClass: 2
Flags: W
LayerCount: 2
Fore
SplineSet
352 690 m 1,0,-1
 589 696 l 2,1,2
 607 696 607 696 618 685 c 128,-1,3
 629 674 629 674 629 656.5 c 128,-1,4
 629 639 629 639 617.5 629.5 c 128,-1,5
 606 620 606 620 588 620 c 2,6,-1
 564 620 l 1,7,8
 564 460 564 460 577 331 c 128,-1,9
 590 202 590 202 603 132 c 128,-1,10
 616 62 616 62 616 43.5 c 128,-1,11
 616 25 616 25 604.5 9.5 c 128,-1,12
 593 -6 593 -6 574 -6 c 128,-1,13
 555 -6 555 -6 541 8 c 128,-1,14
 527 22 527 22 525 48 c 2,15,-1
 507 300 l 1,16,-1
 339 305 l 2,17,18
 311 305 311 305 179 301 c 1,19,20
 159 259 159 259 126 186 c 0,21,22
 29 -30 29 -30 -66 -174 c 0,23,24
 -143 -290 -143 -290 -182 -290 c 0,25,26
 -199 -290 -199 -290 -210 -278.5 c 128,-1,27
 -221 -267 -221 -267 -221 -247 c 128,-1,28
 -221 -227 -221 -227 -199.5 -200 c 128,-1,29
 -178 -173 -178 -173 -145.5 -141.5 c 128,-1,30
 -113 -110 -113 -110 -60.5 -37 c 128,-1,31
 -8 36 -8 36 40 131 c 0,32,33
 48 146 48 146 121 300 c 1,34,-1
 116 300 l 2,35,36
 100 300 100 300 88.5 309.5 c 128,-1,37
 77 319 77 319 77 336 c 128,-1,38
 77 353 77 353 89 364 c 128,-1,39
 101 375 101 375 120.5 375 c 128,-1,40
 140 375 140 375 158 374 c 1,41,42
 250 562 250 562 326 634 c 1,43,44
 147 620 147 620 133 620 c 128,-1,45
 119 620 119 620 106.5 630 c 128,-1,46
 94 640 94 640 94 656.5 c 128,-1,47
 94 673 94 673 106.5 684.5 c 128,-1,48
 119 696 119 696 134 696 c 2,49,-1
 352 690 l 1,0,-1
459 633 m 1,50,51
 340 618 340 618 215 373 c 1,52,53
 321 371 321 371 349.5 371 c 128,-1,54
 378 371 378 371 502 375 c 1,55,56
 489 547 489 547 489 632 c 1,57,-1
 459 633 l 1,50,51
461.5 798.5 m 128,-1,59
 450 809 450 809 450 830 c 128,-1,60
 450 851 450 851 464.5 866 c 128,-1,61
 479 881 479 881 499 881 c 128,-1,62
 519 881 519 881 531 870 c 128,-1,63
 543 859 543 859 543 838 c 128,-1,64
 543 817 543 817 528 802.5 c 128,-1,65
 513 788 513 788 493 788 c 128,-1,58
 473 788 473 788 461.5 798.5 c 128,-1,59
271.5 798.5 m 128,-1,67
 260 809 260 809 260 830 c 128,-1,68
 260 851 260 851 274.5 866 c 128,-1,69
 289 881 289 881 309 881 c 128,-1,70
 329 881 329 881 341 870 c 128,-1,71
 353 859 353 859 353 838 c 128,-1,72
 353 817 353 817 338 802.5 c 128,-1,73
 323 788 323 788 303 788 c 128,-1,66
 283 788 283 788 271.5 798.5 c 128,-1,67
EndSplineSet
EndChar

StartChar: Aring
Encoding: 197 197 134
Width: 679
GlyphClass: 2
Flags: W
LayerCount: 2
Fore
SplineSet
352 690 m 1,0,-1
 589 696 l 2,1,2
 607 696 607 696 618 685 c 128,-1,3
 629 674 629 674 629 656.5 c 128,-1,4
 629 639 629 639 617.5 629.5 c 128,-1,5
 606 620 606 620 588 620 c 2,6,-1
 564 620 l 1,7,8
 564 460 564 460 577 331 c 128,-1,9
 590 202 590 202 603 132 c 128,-1,10
 616 62 616 62 616 43.5 c 128,-1,11
 616 25 616 25 604.5 9.5 c 128,-1,12
 593 -6 593 -6 574 -6 c 128,-1,13
 555 -6 555 -6 541 8 c 128,-1,14
 527 22 527 22 525 48 c 2,15,-1
 507 300 l 1,16,-1
 339 305 l 2,17,18
 311 305 311 305 179 301 c 1,19,20
 159 259 159 259 126 186 c 0,21,22
 29 -30 29 -30 -66 -174 c 0,23,24
 -143 -290 -143 -290 -182 -290 c 0,25,26
 -199 -290 -199 -290 -210 -278.5 c 128,-1,27
 -221 -267 -221 -267 -221 -247 c 128,-1,28
 -221 -227 -221 -227 -199.5 -200 c 128,-1,29
 -178 -173 -178 -173 -145.5 -141.5 c 128,-1,30
 -113 -110 -113 -110 -60.5 -37 c 128,-1,31
 -8 36 -8 36 40 131 c 0,32,33
 48 146 48 146 121 300 c 1,34,-1
 116 300 l 2,35,36
 100 300 100 300 88.5 309.5 c 128,-1,37
 77 319 77 319 77 336 c 128,-1,38
 77 353 77 353 89 364 c 128,-1,39
 101 375 101 375 120.5 375 c 128,-1,40
 140 375 140 375 158 374 c 1,41,42
 250 562 250 562 326 634 c 1,43,44
 147 620 147 620 133 620 c 128,-1,45
 119 620 119 620 106.5 630 c 128,-1,46
 94 640 94 640 94 656.5 c 128,-1,47
 94 673 94 673 106.5 684.5 c 128,-1,48
 119 696 119 696 134 696 c 2,49,-1
 352 690 l 1,0,-1
459 633 m 1,50,51
 340 618 340 618 215 373 c 1,52,53
 321 371 321 371 349.5 371 c 128,-1,54
 378 371 378 371 502 375 c 1,55,56
 489 547 489 547 489 632 c 1,57,-1
 459 633 l 1,50,51
391.5 767 m 128,-1,59
 373 784 373 784 373 811.5 c 128,-1,60
 373 839 373 839 396 863.5 c 128,-1,61
 419 888 419 888 446.5 888 c 128,-1,62
 474 888 474 888 492.5 871 c 128,-1,63
 511 854 511 854 511 826.5 c 128,-1,64
 511 799 511 799 488 774.5 c 128,-1,65
 465 750 465 750 437.5 750 c 128,-1,58
 410 750 410 750 391.5 767 c 128,-1,59
417 843 m 128,-1,67
 407 833 407 833 407 818.5 c 128,-1,68
 407 804 407 804 417 794 c 128,-1,69
 427 784 427 784 441.5 784 c 128,-1,70
 456 784 456 784 466 794 c 128,-1,71
 476 804 476 804 476 818.5 c 128,-1,72
 476 833 476 833 466 843 c 128,-1,73
 456 853 456 853 441.5 853 c 128,-1,66
 427 853 427 853 417 843 c 128,-1,67
EndSplineSet
EndChar

StartChar: AE
Encoding: 198 198 135
Width: 993
GlyphClass: 2
Flags: W
LayerCount: 2
Fore
SplineSet
164 696 m 2,0,-1
 527 690 l 1,1,-1
 899 696 l 2,2,3
 915 696 915 696 927.5 685.5 c 128,-1,4
 940 675 940 675 940 657 c 128,-1,5
 940 639 940 639 927.5 628.5 c 128,-1,6
 915 618 915 618 899 618 c 0,7,8
 857 618 857 618 753 625 c 128,-1,9
 649 632 649 632 613 633 c 1,10,11
 613 621 613 621 611 588 c 0,12,13
 605 491 605 491 605 405 c 1,14,15
 625 403 625 403 673 401 c 1,16,17
 700 458 700 458 753 493.5 c 128,-1,18
 806 529 806 529 853 529 c 0,19,20
 913 529 913 529 913 480 c 0,21,22
 913 464 913 464 901.5 452.5 c 128,-1,23
 890 441 890 441 877.5 441 c 128,-1,24
 865 441 865 441 846.5 453 c 128,-1,25
 828 465 828 465 801 465 c 128,-1,26
 774 465 774 465 747 447 c 128,-1,27
 720 429 720 429 707 401 c 1,28,29
 747 401 747 401 795 404 c 128,-1,30
 843 407 843 407 853.5 407 c 128,-1,31
 864 407 864 407 874 397 c 128,-1,32
 884 387 884 387 884 371 c 128,-1,33
 884 355 884 355 874 344.5 c 128,-1,34
 864 334 864 334 848 334 c 2,35,-1
 709 339 l 1,36,-1
 699 339 l 1,37,38
 706 300 706 300 736 274.5 c 128,-1,39
 766 249 766 249 801 249 c 128,-1,40
 836 249 836 249 866 270.5 c 128,-1,41
 896 292 896 292 899 292 c 0,42,43
 913 292 913 292 913 278 c 0,44,45
 913 268 913 268 896.5 249.5 c 128,-1,46
 880 231 880 231 843.5 213 c 128,-1,47
 807 195 807 195 761 195 c 128,-1,48
 715 195 715 195 683.5 230.5 c 128,-1,49
 652 266 652 266 652 310 c 0,50,51
 652 320 652 320 654 338 c 1,52,-1
 605 335 l 1,53,54
 605 213 605 213 609.5 144 c 128,-1,55
 614 75 614 75 614 66 c 1,56,-1
 912 72 l 2,57,58
 928 72 928 72 940.5 61.5 c 128,-1,59
 953 51 953 51 953 33 c 128,-1,60
 953 15 953 15 940.5 4.5 c 128,-1,61
 928 -6 928 -6 912 -6 c 2,62,-1
 720 0 l 1,63,64
 680 0 680 0 625 -3 c 128,-1,65
 570 -6 570 -6 566 -6 c 0,66,67
 545 -6 545 -6 531.5 10 c 128,-1,68
 518 26 518 26 518 44.5 c 128,-1,69
 518 63 518 63 522 143 c 128,-1,70
 526 223 526 223 527 300 c 1,71,-1
 369 305 l 2,72,73
 341 305 341 305 209 301 c 1,74,75
 189 259 189 259 156 186 c 0,76,77
 59 -30 59 -30 -36 -174 c 0,78,79
 -113 -290 -113 -290 -152 -290 c 0,80,81
 -169 -290 -169 -290 -180 -278.5 c 128,-1,82
 -191 -267 -191 -267 -191 -247 c 128,-1,83
 -191 -227 -191 -227 -169.5 -200 c 128,-1,84
 -148 -173 -148 -173 -115.5 -141.5 c 128,-1,85
 -83 -110 -83 -110 -30.5 -37 c 128,-1,86
 22 36 22 36 70 131 c 0,87,88
 78 146 78 146 151 300 c 1,89,-1
 146 300 l 2,90,91
 130 300 130 300 118.5 309.5 c 128,-1,92
 107 319 107 319 107 336 c 128,-1,93
 107 353 107 353 119 364 c 128,-1,94
 131 375 131 375 150.5 375 c 128,-1,95
 170 375 170 375 188 374 c 1,96,97
 278 558 278 558 356 632 c 1,98,99
 177 618 177 618 163 618 c 128,-1,100
 149 618 149 618 136.5 629 c 128,-1,101
 124 640 124 640 124 656.5 c 128,-1,102
 124 673 124 673 136.5 684.5 c 128,-1,103
 149 696 149 696 164 696 c 2,0,-1
518 634 m 1,104,-1
 506 635 l 1,105,106
 472 635 472 635 437 615.5 c 128,-1,107
 402 596 402 596 377.5 572 c 128,-1,108
 353 548 353 548 325 507 c 0,109,110
 261 414 261 414 245 373 c 1,111,112
 351 371 351 371 363 371 c 128,-1,113
 375 371 375 371 527 375 c 1,114,115
 526 452 526 452 518 634 c 1,104,-1
EndSplineSet
EndChar

StartChar: Ccedilla
Encoding: 199 199 136
Width: 656
GlyphClass: 2
Flags: W
LayerCount: 2
Fore
SplineSet
352 -130 m 1,0,-1
 300 -137 l 1,1,2
 291 -137 291 -137 285 -131 c 128,-1,3
 279 -125 279 -125 279 -112.5 c 128,-1,4
 279 -100 279 -100 307.5 -77.5 c 128,-1,5
 336 -55 336 -55 336 -31 c 128,-1,6
 336 -7 336 -7 306 -5 c 0,7,8
 184 5 184 5 104.5 97 c 128,-1,9
 25 189 25 189 25 334 c 128,-1,10
 25 479 25 479 125.5 587.5 c 128,-1,11
 226 696 226 696 376 696 c 0,12,13
 481 696 481 696 548.5 641.5 c 128,-1,14
 616 587 616 587 616 504 c 0,15,16
 616 438 616 438 575.5 394.5 c 128,-1,17
 535 351 535 351 490 351 c 0,18,19
 466 351 466 351 454.5 364 c 128,-1,20
 443 377 443 377 443 394 c 128,-1,21
 443 411 443 411 456.5 424.5 c 128,-1,22
 470 438 470 438 487 438 c 1,23,-1
 529 429 l 1,24,25
 561 429 561 429 561 475.5 c 128,-1,26
 561 522 561 522 501.5 575 c 128,-1,27
 442 628 442 628 351 628 c 0,28,29
 237 628 237 628 172 556.5 c 128,-1,30
 107 485 107 485 107 362.5 c 128,-1,31
 107 240 107 240 179 151 c 128,-1,32
 251 62 251 62 363 62 c 128,-1,33
 475 62 475 62 563 168 c 0,34,35
 582 192 582 192 592 192 c 128,-1,36
 602 192 602 192 607.5 185.5 c 128,-1,37
 613 179 613 179 613 170 c 0,38,39
 613 130 613 130 537.5 66.5 c 128,-1,40
 462 3 462 3 357 -5 c 1,41,42
 365 -17 365 -17 365 -36.5 c 128,-1,43
 365 -56 365 -56 352 -66 c 1,44,45
 389 -66 389 -66 412.5 -87.5 c 128,-1,46
 436 -109 436 -109 436 -146 c 0,47,48
 436 -206 436 -206 394 -248 c 128,-1,49
 352 -290 352 -290 316 -290 c 0,50,51
 298 -290 298 -290 285.5 -278 c 128,-1,52
 273 -266 273 -266 273 -247 c 128,-1,53
 273 -228 273 -228 287 -213 c 128,-1,54
 301 -198 301 -198 314 -198 c 128,-1,55
 327 -198 327 -198 337 -205 c 128,-1,56
 347 -212 347 -212 358 -212 c 128,-1,57
 369 -212 369 -212 380 -198.5 c 128,-1,58
 391 -185 391 -185 391 -168.5 c 128,-1,59
 391 -152 391 -152 380.5 -141 c 128,-1,60
 370 -130 370 -130 352 -130 c 1,0,-1
EndSplineSet
EndChar

StartChar: Eacute
Encoding: 201 201 138
Width: 599
GlyphClass: 2
Flags: W
LayerCount: 2
Fore
SplineSet
101 696 m 2,0,-1
 303 690 l 1,1,-1
 505 696 l 2,2,3
 521 696 521 696 533.5 685.5 c 128,-1,4
 546 675 546 675 546 657 c 128,-1,5
 546 639 546 639 533.5 628.5 c 128,-1,6
 521 618 521 618 505 618 c 2,7,-1
 303 624 l 2,8,9
 277 624 277 624 219 622 c 1,10,11
 219 610 219 610 217 579 c 0,12,13
 211 486 211 486 211 405 c 1,14,15
 231 403 231 403 279 401 c 1,16,17
 306 458 306 458 359 493.5 c 128,-1,18
 412 529 412 529 459 529 c 0,19,20
 519 529 519 529 519 480 c 0,21,22
 519 464 519 464 507.5 452.5 c 128,-1,23
 496 441 496 441 483.5 441 c 128,-1,24
 471 441 471 441 452.5 453 c 128,-1,25
 434 465 434 465 407 465 c 128,-1,26
 380 465 380 465 353 447 c 128,-1,27
 326 429 326 429 313 401 c 1,28,29
 353 401 353 401 401 404 c 128,-1,30
 449 407 449 407 459.5 407 c 128,-1,31
 470 407 470 407 480 397 c 128,-1,32
 490 387 490 387 490 371 c 128,-1,33
 490 355 490 355 480 344.5 c 128,-1,34
 470 334 470 334 454 334 c 2,35,-1
 315 339 l 1,36,-1
 305 339 l 1,37,38
 312 300 312 300 342 274.5 c 128,-1,39
 372 249 372 249 407 249 c 128,-1,40
 442 249 442 249 472 270.5 c 128,-1,41
 502 292 502 292 505 292 c 0,42,43
 519 292 519 292 519 278 c 0,44,45
 519 268 519 268 502.5 249.5 c 128,-1,46
 486 231 486 231 449.5 213 c 128,-1,47
 413 195 413 195 367 195 c 128,-1,48
 321 195 321 195 289.5 230.5 c 128,-1,49
 258 266 258 266 258 310 c 0,50,51
 258 320 258 320 260 338 c 1,52,-1
 211 335 l 1,53,54
 211 213 211 213 215.5 144 c 128,-1,55
 220 75 220 75 220 66 c 1,56,-1
 518 72 l 2,57,58
 534 72 534 72 546.5 61.5 c 128,-1,59
 559 51 559 51 559 33 c 128,-1,60
 559 15 559 15 546.5 4.5 c 128,-1,61
 534 -6 534 -6 518 -6 c 2,62,-1
 326 0 l 1,63,64
 286 0 286 0 231 -3 c 128,-1,65
 176 -6 176 -6 172 -6 c 0,66,67
 151 -6 151 -6 137.5 10 c 128,-1,68
 124 26 124 26 124 42 c 128,-1,69
 124 58 124 58 128.5 153 c 128,-1,70
 133 248 133 248 133 336.5 c 128,-1,71
 133 425 133 425 124 618 c 1,72,-1
 101 618 l 2,73,74
 85 618 85 618 72.5 628.5 c 128,-1,75
 60 639 60 639 60 657 c 128,-1,76
 60 675 60 675 72.5 685.5 c 128,-1,77
 85 696 85 696 101 696 c 2,0,-1
254 762 m 0,78,79
 254 768 254 768 262 776 c 0,80,81
 365 879 365 879 412 879 c 0,82,83
 427 879 427 879 438.5 868.5 c 128,-1,84
 450 858 450 858 450 843 c 0,85,86
 450 810 450 810 413 803 c 0,87,88
 335 789 335 789 278 755 c 0,89,90
 270 750 270 750 266 750 c 0,91,92
 254 750 254 750 254 762 c 0,78,79
EndSplineSet
EndChar

StartChar: Edieresis
Encoding: 203 203 140
Width: 599
GlyphClass: 2
Flags: W
LayerCount: 2
Fore
SplineSet
101 696 m 2,0,-1
 303 690 l 1,1,-1
 505 696 l 2,2,3
 521 696 521 696 533.5 685.5 c 128,-1,4
 546 675 546 675 546 657 c 128,-1,5
 546 639 546 639 533.5 628.5 c 128,-1,6
 521 618 521 618 505 618 c 2,7,-1
 303 624 l 2,8,9
 277 624 277 624 219 622 c 1,10,11
 219 610 219 610 217 579 c 0,12,13
 211 486 211 486 211 405 c 1,14,15
 231 403 231 403 279 401 c 1,16,17
 306 458 306 458 359 493.5 c 128,-1,18
 412 529 412 529 459 529 c 0,19,20
 519 529 519 529 519 480 c 0,21,22
 519 464 519 464 507.5 452.5 c 128,-1,23
 496 441 496 441 483.5 441 c 128,-1,24
 471 441 471 441 452.5 453 c 128,-1,25
 434 465 434 465 407 465 c 128,-1,26
 380 465 380 465 353 447 c 128,-1,27
 326 429 326 429 313 401 c 1,28,29
 353 401 353 401 401 404 c 128,-1,30
 449 407 449 407 459.5 407 c 128,-1,31
 470 407 470 407 480 397 c 128,-1,32
 490 387 490 387 490 371 c 128,-1,33
 490 355 490 355 480 344.5 c 128,-1,34
 470 334 470 334 454 334 c 2,35,-1
 315 339 l 1,36,-1
 305 339 l 1,37,38
 312 300 312 300 342 274.5 c 128,-1,39
 372 249 372 249 407 249 c 128,-1,40
 442 249 442 249 472 270.5 c 128,-1,41
 502 292 502 292 505 292 c 0,42,43
 519 292 519 292 519 278 c 0,44,45
 519 268 519 268 502.5 249.5 c 128,-1,46
 486 231 486 231 449.5 213 c 128,-1,47
 413 195 413 195 367 195 c 128,-1,48
 321 195 321 195 289.5 230.5 c 128,-1,49
 258 266 258 266 258 310 c 0,50,51
 258 320 258 320 260 338 c 1,52,-1
 211 335 l 1,53,54
 211 213 211 213 215.5 144 c 128,-1,55
 220 75 220 75 220 66 c 1,56,-1
 518 72 l 2,57,58
 534 72 534 72 546.5 61.5 c 128,-1,59
 559 51 559 51 559 33 c 128,-1,60
 559 15 559 15 546.5 4.5 c 128,-1,61
 534 -6 534 -6 518 -6 c 2,62,-1
 326 0 l 1,63,64
 286 0 286 0 231 -3 c 128,-1,65
 176 -6 176 -6 172 -6 c 0,66,67
 151 -6 151 -6 137.5 10 c 128,-1,68
 124 26 124 26 124 42 c 128,-1,69
 124 58 124 58 128.5 153 c 128,-1,70
 133 248 133 248 133 336.5 c 128,-1,71
 133 425 133 425 124 618 c 1,72,-1
 101 618 l 2,73,74
 85 618 85 618 72.5 628.5 c 128,-1,75
 60 639 60 639 60 657 c 128,-1,76
 60 675 60 675 72.5 685.5 c 128,-1,77
 85 696 85 696 101 696 c 2,0,-1
391.5 798.5 m 128,-1,79
 380 809 380 809 380 830 c 128,-1,80
 380 851 380 851 394.5 866 c 128,-1,81
 409 881 409 881 429 881 c 128,-1,82
 449 881 449 881 461 870 c 128,-1,83
 473 859 473 859 473 838 c 128,-1,84
 473 817 473 817 458 802.5 c 128,-1,85
 443 788 443 788 423 788 c 128,-1,78
 403 788 403 788 391.5 798.5 c 128,-1,79
201.5 798.5 m 128,-1,87
 190 809 190 809 190 830 c 128,-1,88
 190 851 190 851 204.5 866 c 128,-1,89
 219 881 219 881 239 881 c 128,-1,90
 259 881 259 881 271 870 c 128,-1,91
 283 859 283 859 283 838 c 128,-1,92
 283 817 283 817 268 802.5 c 128,-1,93
 253 788 253 788 233 788 c 128,-1,86
 213 788 213 788 201.5 798.5 c 128,-1,87
EndSplineSet
EndChar

StartChar: Iacute
Encoding: 205 205 142
Width: 494
GlyphClass: 2
Flags: W
LayerCount: 2
Fore
SplineSet
202 70 m 1,0,-1
 258 65 l 1,1,2
 266 142 266 142 266 346.5 c 128,-1,3
 266 551 266 551 258 627 c 1,4,5
 236 630 236 630 197.5 630 c 128,-1,6
 159 630 159 630 124.5 611.5 c 128,-1,7
 90 593 90 593 90 561 c 0,8,9
 90 509 90 509 127 509 c 0,10,11
 142 509 142 509 151 499 c 128,-1,12
 160 489 160 489 160 474 c 128,-1,13
 160 459 160 459 149 449.5 c 128,-1,14
 138 440 138 440 119 440 c 0,15,16
 84 440 84 440 59.5 469.5 c 128,-1,17
 35 499 35 499 35 543 c 128,-1,18
 35 587 35 587 61.5 620.5 c 128,-1,19
 88 654 88 654 132 669 c 0,20,21
 213 696 213 696 293.5 696 c 128,-1,22
 374 696 374 696 411.5 686 c 128,-1,23
 449 676 449 676 449 647 c 0,24,25
 449 630 449 630 436.5 620 c 128,-1,26
 424 610 424 610 408 610 c 1,27,-1
 350 618 l 1,28,29
 344 551 344 551 344 346.5 c 128,-1,30
 344 142 344 142 352 65 c 1,31,-1
 408 70 l 1,32,33
 424 70 424 70 436.5 60 c 128,-1,34
 449 50 449 50 449 32 c 128,-1,35
 449 14 449 14 436 4 c 128,-1,36
 423 -6 423 -6 406 -6 c 1,37,-1
 305 1 l 1,38,-1
 204 -6 l 1,39,40
 187 -6 187 -6 174 4 c 128,-1,41
 161 14 161 14 161 32 c 128,-1,42
 161 50 161 50 173.5 60 c 128,-1,43
 186 70 186 70 202 70 c 1,0,-1
210 762 m 0,44,45
 210 768 210 768 218 776 c 0,46,47
 321 879 321 879 368 879 c 0,48,49
 383 879 383 879 394.5 868.5 c 128,-1,50
 406 858 406 858 406 843 c 0,51,52
 406 810 406 810 369 803 c 0,53,54
 291 789 291 789 234 755 c 0,55,56
 226 750 226 750 222 750 c 0,57,58
 210 750 210 750 210 762 c 0,44,45
EndSplineSet
EndChar

StartChar: Idieresis
Encoding: 207 207 144
Width: 494
GlyphClass: 2
Flags: W
LayerCount: 2
Fore
SplineSet
350 618 m 1,0,1
 344 551 344 551 344 346.5 c 128,-1,2
 344 142 344 142 352 65 c 1,3,-1
 408 70 l 1,4,5
 424 70 424 70 436.5 60 c 128,-1,6
 449 50 449 50 449 32 c 128,-1,7
 449 14 449 14 436 4 c 128,-1,8
 423 -6 423 -6 406 -6 c 1,9,-1
 305 1 l 1,10,-1
 204 -6 l 1,11,12
 187 -6 187 -6 174 4 c 128,-1,13
 161 14 161 14 161 32 c 128,-1,14
 161 50 161 50 173.5 60 c 128,-1,15
 186 70 186 70 202 70 c 1,16,-1
 258 65 l 1,17,18
 266 142 266 142 266 346.5 c 128,-1,19
 266 551 266 551 258 627 c 1,20,21
 236 630 236 630 197.5 630 c 128,-1,22
 159 630 159 630 124.5 611.5 c 128,-1,23
 90 593 90 593 90 561 c 0,24,25
 90 509 90 509 127 509 c 0,26,27
 142 509 142 509 151 499 c 128,-1,28
 160 489 160 489 160 474 c 128,-1,29
 160 459 160 459 149 449.5 c 128,-1,30
 138 440 138 440 119 440 c 0,31,32
 84 440 84 440 59.5 469.5 c 128,-1,33
 35 499 35 499 35 543 c 128,-1,34
 35 587 35 587 61.5 620.5 c 128,-1,35
 88 654 88 654 132.5 669 c 128,-1,36
 177 684 177 684 216.5 690 c 128,-1,37
 256 696 256 696 315 696 c 128,-1,38
 374 696 374 696 411.5 686 c 128,-1,39
 449 676 449 676 449 647 c 0,40,41
 449 630 449 630 436.5 620 c 128,-1,42
 424 610 424 610 408 610 c 1,43,-1
 350 618 l 1,0,1
340.5 798.5 m 128,-1,45
 329 809 329 809 329 830 c 128,-1,46
 329 851 329 851 343.5 866 c 128,-1,47
 358 881 358 881 378 881 c 128,-1,48
 398 881 398 881 410 870 c 128,-1,49
 422 859 422 859 422 838 c 128,-1,50
 422 817 422 817 407 802.5 c 128,-1,51
 392 788 392 788 372 788 c 128,-1,44
 352 788 352 788 340.5 798.5 c 128,-1,45
150.5 798.5 m 128,-1,53
 139 809 139 809 139 830 c 128,-1,54
 139 851 139 851 153.5 866 c 128,-1,55
 168 881 168 881 188 881 c 128,-1,56
 208 881 208 881 220 870 c 128,-1,57
 232 859 232 859 232 838 c 128,-1,58
 232 817 232 817 217 802.5 c 128,-1,59
 202 788 202 788 182 788 c 128,-1,52
 162 788 162 788 150.5 798.5 c 128,-1,53
EndSplineSet
EndChar

StartChar: Eth
Encoding: 208 208 145
Width: 686
GlyphClass: 2
Flags: W
LayerCount: 2
Fore
SplineSet
206 307 m 1,0,1
 206 307 206 307 108 302 c 0,2,3
 92 302 92 302 82 312.5 c 128,-1,4
 72 323 72 323 72 339 c 128,-1,5
 72 355 72 355 82 365 c 128,-1,6
 92 375 92 375 108 375 c 2,7,-1
 208 369 l 1,8,9
 207 450 207 450 203.5 526.5 c 128,-1,10
 200 603 200 603 200 609.5 c 128,-1,11
 200 616 200 616 203 625 c 1,12,13
 103 620 103 620 94 620 c 128,-1,14
 85 620 85 620 72.5 630.5 c 128,-1,15
 60 641 60 641 60 658 c 128,-1,16
 60 675 60 675 72.5 685.5 c 128,-1,17
 85 696 85 696 101 696 c 2,18,-1
 204 690 l 1,19,-1
 360 696 l 1,20,21
 434 696 434 696 508 660 c 0,22,23
 552 639 552 639 586 608 c 128,-1,24
 620 577 620 577 643 523.5 c 128,-1,25
 666 470 666 470 666 393 c 128,-1,26
 666 316 666 316 633 237.5 c 128,-1,27
 600 159 600 159 547 107 c 128,-1,28
 494 55 494 55 428.5 24.5 c 128,-1,29
 363 -6 363 -6 297 -6 c 0,30,31
 203 -6 203 -6 133 49 c 128,-1,32
 63 104 63 104 63 196 c 0,33,34
 63 211 63 211 73.5 223 c 128,-1,35
 84 235 84 235 101 235 c 0,36,37
 136 235 136 235 138 197 c 0,38,39
 142 138 142 138 190.5 101.5 c 128,-1,40
 239 65 239 65 322 65 c 0,41,42
 437 65 437 65 515 151.5 c 128,-1,43
 593 238 593 238 593 362 c 128,-1,44
 593 486 593 486 516 556.5 c 128,-1,45
 439 627 439 627 297 627 c 2,46,-1
 292 627 l 1,47,48
 296 613 296 613 296 607 c 128,-1,49
 296 601 296 601 292 520.5 c 128,-1,50
 288 440 288 440 287 369 c 1,51,-1
 386 375 l 2,52,53
 402 375 402 375 412 365 c 128,-1,54
 422 355 422 355 422 339 c 128,-1,55
 422 323 422 323 412 312.5 c 128,-1,56
 402 302 402 302 386 302 c 2,57,-1
 288 306 l 1,58,-1
 296 205 l 1,59,60
 296 186 296 186 282.5 171 c 128,-1,61
 269 156 269 156 248 156 c 128,-1,62
 227 156 227 156 213.5 171 c 128,-1,63
 200 186 200 186 200 205 c 1,64,-1
 206 307 l 1,0,1
EndSplineSet
EndChar

StartChar: Ograve
Encoding: 210 210 147
Width: 712
GlyphClass: 2
Flags: W
LayerCount: 2
Fore
SplineSet
292 345 m 128,-1,1
 292 373 292 373 311 393.5 c 128,-1,2
 330 414 330 414 356.5 414 c 128,-1,3
 383 414 383 414 401.5 394 c 128,-1,4
 420 374 420 374 420 345.5 c 128,-1,5
 420 317 420 317 401.5 296.5 c 128,-1,6
 383 276 383 276 356.5 276 c 128,-1,7
 330 276 330 276 311 296.5 c 128,-1,0
 292 317 292 317 292 345 c 128,-1,1
178.5 152 m 128,-1,9
 250 62 250 62 362 62 c 128,-1,10
 474 62 474 62 539.5 133.5 c 128,-1,11
 605 205 605 205 605 326.5 c 128,-1,12
 605 448 605 448 533.5 538 c 128,-1,13
 462 628 462 628 349.5 628 c 128,-1,14
 237 628 237 628 172 556.5 c 128,-1,15
 107 485 107 485 107 363.5 c 128,-1,8
 107 242 107 242 178.5 152 c 128,-1,9
332 -6 m 0,16,17
 202 -6 202 -6 113.5 87.5 c 128,-1,18
 25 181 25 181 25 314 c 0,19,20
 25 480 25 480 125 588 c 128,-1,21
 225 696 225 696 380 696 c 0,22,23
 510 696 510 696 598.5 602.5 c 128,-1,24
 687 509 687 509 687 376 c 0,25,26
 687 210 687 210 587 102 c 128,-1,27
 487 -6 487 -6 332 -6 c 0,16,17
433 762 m 0,28,29
 433 750 433 750 421 750 c 0,30,31
 417 750 417 750 409 755 c 0,32,33
 352 789 352 789 274 803 c 0,34,35
 237 810 237 810 237 843 c 0,36,37
 237 858 237 858 248.5 868.5 c 128,-1,38
 260 879 260 879 275 879 c 0,39,40
 322 879 322 879 425 776 c 0,41,42
 433 768 433 768 433 762 c 0,28,29
EndSplineSet
EndChar

StartChar: Odieresis
Encoding: 214 214 151
Width: 712
GlyphClass: 2
Flags: W
LayerCount: 2
Fore
SplineSet
292 345 m 128,-1,1
 292 373 292 373 311 393.5 c 128,-1,2
 330 414 330 414 356.5 414 c 128,-1,3
 383 414 383 414 401.5 394 c 128,-1,4
 420 374 420 374 420 345.5 c 128,-1,5
 420 317 420 317 401.5 296.5 c 128,-1,6
 383 276 383 276 356.5 276 c 128,-1,7
 330 276 330 276 311 296.5 c 128,-1,0
 292 317 292 317 292 345 c 128,-1,1
178.5 152 m 128,-1,9
 250 62 250 62 362 62 c 128,-1,10
 474 62 474 62 539.5 133.5 c 128,-1,11
 605 205 605 205 605 326.5 c 128,-1,12
 605 448 605 448 533.5 538 c 128,-1,13
 462 628 462 628 349.5 628 c 128,-1,14
 237 628 237 628 172 556.5 c 128,-1,15
 107 485 107 485 107 363.5 c 128,-1,8
 107 242 107 242 178.5 152 c 128,-1,9
332 -6 m 0,16,17
 202 -6 202 -6 113.5 87.5 c 128,-1,18
 25 181 25 181 25 314 c 0,19,20
 25 480 25 480 125 588 c 128,-1,21
 225 696 225 696 380 696 c 0,22,23
 510 696 510 696 598.5 602.5 c 128,-1,24
 687 509 687 509 687 376 c 0,25,26
 687 210 687 210 587 102 c 128,-1,27
 487 -6 487 -6 332 -6 c 0,16,17
428.5 798.5 m 128,-1,29
 417 809 417 809 417 830 c 128,-1,30
 417 851 417 851 431.5 866 c 128,-1,31
 446 881 446 881 466 881 c 128,-1,32
 486 881 486 881 498 870 c 128,-1,33
 510 859 510 859 510 838 c 128,-1,34
 510 817 510 817 495 802.5 c 128,-1,35
 480 788 480 788 460 788 c 128,-1,28
 440 788 440 788 428.5 798.5 c 128,-1,29
238.5 798.5 m 128,-1,37
 227 809 227 809 227 830 c 128,-1,38
 227 851 227 851 241.5 866 c 128,-1,39
 256 881 256 881 276 881 c 128,-1,40
 296 881 296 881 308 870 c 128,-1,41
 320 859 320 859 320 838 c 128,-1,42
 320 817 320 817 305 802.5 c 128,-1,43
 290 788 290 788 270 788 c 128,-1,36
 250 788 250 788 238.5 798.5 c 128,-1,37
EndSplineSet
EndChar

StartChar: multiply
Encoding: 215 215 152
Width: 470
GlyphClass: 2
Flags: W
LayerCount: 2
Fore
SplineSet
53 448 m 0,0,1
 53 479 53 479 84 479 c 0,2,3
 104 479 104 479 129.5 453.5 c 128,-1,4
 155 428 155 428 169 412.5 c 128,-1,5
 183 397 183 397 204 373 c 128,-1,6
 225 349 225 349 235 338 c 1,7,8
 333 454 333 454 360 470 c 1,9,10
 373 479 373 479 383 479 c 0,11,12
 414 479 414 479 414 448 c 0,13,14
 414 421 414 421 348 364 c 0,15,16
 287 310 287 310 274 298 c 1,17,18
 285 288 285 288 309.5 267 c 128,-1,19
 334 246 334 246 348.5 233 c 128,-1,20
 363 220 363 220 380 203 c 0,21,22
 414 169 414 169 414 149 c 0,23,24
 414 118 414 118 383 118 c 0,25,26
 362 118 362 118 330 152 c 0,27,28
 286 199 286 199 235 259 c 1,29,30
 225 248 225 248 204 224 c 128,-1,31
 183 200 183 200 169 184.5 c 128,-1,32
 155 169 155 169 138 152 c 0,33,34
 104 118 104 118 84 118 c 0,35,36
 53 118 53 118 53 149 c 0,37,38
 53 169 53 169 79 194 c 128,-1,39
 105 219 105 219 121 233 c 0,40,41
 174 280 174 280 196 298 c 1,42,43
 184 309 184 309 160.5 329 c 128,-1,44
 137 349 137 349 121 363.5 c 128,-1,45
 105 378 105 378 88 394 c 0,46,47
 53 428 53 428 53 448 c 0,0,1
EndSplineSet
EndChar

StartChar: Oslash
Encoding: 216 216 153
Width: 712
GlyphClass: 2
Flags: W
LayerCount: 2
Fore
SplineSet
332 -6 m 0,0,1
 272 -6 272 -6 219 15 c 1,2,3
 187 -46 187 -46 159.5 -46 c 128,-1,4
 132 -46 132 -46 132 -17 c 0,5,6
 132 5 132 5 159 48 c 1,7,8
 97 92 97 92 61 162 c 128,-1,9
 25 232 25 232 25 314 c 0,10,11
 25 480 25 480 125 588 c 128,-1,12
 225 696 225 696 380 696 c 0,13,14
 438 696 438 696 493 674 c 1,15,16
 525 736 525 736 553 736 c 128,-1,17
 581 736 581 736 581 707 c 0,18,19
 581 687 581 687 554 641 c 1,20,21
 616 597 616 597 651.5 527 c 128,-1,22
 687 457 687 457 687 376 c 0,23,24
 687 210 687 210 587 102 c 128,-1,25
 487 -6 487 -6 332 -6 c 0,0,1
312 295 m 1,26,27
 292 315 292 315 292 344 c 128,-1,28
 292 373 292 373 311 393.5 c 128,-1,29
 330 414 330 414 356 414 c 0,30,31
 365 414 365 414 374 411 c 1,32,33
 404 472 404 472 459 600 c 1,34,35
 405 628 405 628 347 628 c 0,36,37
 237 628 237 628 172 556.5 c 128,-1,38
 107 485 107 485 107 356 c 0,39,40
 107 290 107 290 133 227.5 c 128,-1,41
 159 165 159 165 206 123 c 1,42,43
 265 213 265 213 312 295 c 1,26,27
365 62 m 0,44,45
 474 62 474 62 539.5 133.5 c 128,-1,46
 605 205 605 205 605 334 c 0,47,48
 605 399 605 399 579 461.5 c 128,-1,49
 553 524 553 524 506 566 c 1,50,51
 449 481 449 481 401 394 c 1,52,53
 420 375 420 375 420 346 c 128,-1,54
 420 317 420 317 401.5 296.5 c 128,-1,55
 383 276 383 276 356 276 c 0,56,57
 349 276 349 276 339 278 c 1,58,59
 316 233 316 233 254 89 c 1,60,61
 305 62 305 62 365 62 c 0,44,45
EndSplineSet
EndChar

StartChar: Uacute
Encoding: 218 218 155
Width: 676
GlyphClass: 2
Flags: W
LayerCount: 2
Fore
SplineSet
262.5 659.5 m 128,-1,1
 296 623 296 623 296 579.5 c 128,-1,2
 296 536 296 536 272.5 491.5 c 128,-1,3
 249 447 249 447 221.5 411 c 128,-1,4
 194 375 194 375 170.5 325 c 128,-1,5
 147 275 147 275 147 228 c 0,6,7
 147 145 147 145 202 104 c 128,-1,8
 257 63 257 63 340 63 c 0,9,10
 383 63 383 63 431.5 82.5 c 128,-1,11
 480 102 480 102 508 125 c 1,12,13
 514 275 514 275 514 368.5 c 128,-1,14
 514 462 514 462 509.5 550.5 c 128,-1,15
 505 639 505 639 505 642 c 0,16,17
 505 663 505 663 518.5 679.5 c 128,-1,18
 532 696 532 696 553 696 c 128,-1,19
 574 696 574 696 587.5 679.5 c 128,-1,20
 601 663 601 663 601 642 c 0,21,22
 601 639 601 639 596.5 550.5 c 128,-1,23
 592 462 592 462 592 355 c 128,-1,24
 592 248 592 248 596.5 153 c 128,-1,25
 601 58 601 58 601 42 c 128,-1,26
 601 26 601 26 587.5 10 c 128,-1,27
 574 -6 574 -6 553 -6 c 128,-1,28
 532 -6 532 -6 518.5 10 c 128,-1,29
 505 26 505 26 505 46 c 2,30,-1
 505 73 l 1,31,32
 410 -6 410 -6 305.5 -6 c 128,-1,33
 201 -6 201 -6 132.5 48 c 128,-1,34
 64 102 64 102 64 194 c 0,35,36
 64 254 64 254 88.5 311 c 128,-1,37
 113 368 113 368 142 404 c 0,38,39
 220 499 220 499 220 552 c 0,40,41
 220 620 220 620 149 620 c 0,42,43
 121 620 121 620 103.5 598 c 128,-1,44
 86 576 86 576 86 538 c 0,45,46
 86 525 86 525 77.5 515.5 c 128,-1,47
 69 506 69 506 57 506 c 128,-1,48
 45 506 45 506 37.5 515.5 c 128,-1,49
 30 525 30 525 30 538 c 0,50,51
 30 605 30 605 72 650.5 c 128,-1,52
 114 696 114 696 171.5 696 c 128,-1,0
 229 696 229 696 262.5 659.5 c 128,-1,1
272 762 m 0,53,54
 272 768 272 768 280 776 c 0,55,56
 383 879 383 879 430 879 c 0,57,58
 445 879 445 879 456.5 868.5 c 128,-1,59
 468 858 468 858 468 843 c 0,60,61
 468 810 468 810 431 803 c 0,62,63
 353 789 353 789 296 755 c 0,64,65
 288 750 288 750 284 750 c 0,66,67
 272 750 272 750 272 762 c 0,53,54
EndSplineSet
EndChar

StartChar: Udieresis
Encoding: 220 220 157
Width: 676
GlyphClass: 2
Flags: W
LayerCount: 2
Fore
SplineSet
262.5 659.5 m 128,-1,1
 296 623 296 623 296 579.5 c 128,-1,2
 296 536 296 536 272.5 491.5 c 128,-1,3
 249 447 249 447 221.5 411 c 128,-1,4
 194 375 194 375 170.5 325 c 128,-1,5
 147 275 147 275 147 228 c 0,6,7
 147 145 147 145 202 104 c 128,-1,8
 257 63 257 63 340 63 c 0,9,10
 383 63 383 63 431.5 82.5 c 128,-1,11
 480 102 480 102 508 125 c 1,12,13
 514 275 514 275 514 368.5 c 128,-1,14
 514 462 514 462 509.5 550.5 c 128,-1,15
 505 639 505 639 505 642 c 0,16,17
 505 663 505 663 518.5 679.5 c 128,-1,18
 532 696 532 696 553 696 c 128,-1,19
 574 696 574 696 587.5 679.5 c 128,-1,20
 601 663 601 663 601 642 c 0,21,22
 601 639 601 639 596.5 550.5 c 128,-1,23
 592 462 592 462 592 355 c 128,-1,24
 592 248 592 248 596.5 153 c 128,-1,25
 601 58 601 58 601 42 c 128,-1,26
 601 26 601 26 587.5 10 c 128,-1,27
 574 -6 574 -6 553 -6 c 128,-1,28
 532 -6 532 -6 518.5 10 c 128,-1,29
 505 26 505 26 505 46 c 2,30,-1
 505 73 l 1,31,32
 410 -6 410 -6 305.5 -6 c 128,-1,33
 201 -6 201 -6 132.5 48 c 128,-1,34
 64 102 64 102 64 194 c 0,35,36
 64 254 64 254 88.5 311 c 128,-1,37
 113 368 113 368 142 404 c 0,38,39
 220 499 220 499 220 552 c 0,40,41
 220 620 220 620 149 620 c 0,42,43
 121 620 121 620 103.5 598 c 128,-1,44
 86 576 86 576 86 538 c 0,45,46
 86 525 86 525 77.5 515.5 c 128,-1,47
 69 506 69 506 57 506 c 128,-1,48
 45 506 45 506 37.5 515.5 c 128,-1,49
 30 525 30 525 30 538 c 0,50,51
 30 605 30 605 72 650.5 c 128,-1,52
 114 696 114 696 171.5 696 c 128,-1,0
 229 696 229 696 262.5 659.5 c 128,-1,1
397.5 798.5 m 128,-1,54
 386 809 386 809 386 830 c 128,-1,55
 386 851 386 851 400.5 866 c 128,-1,56
 415 881 415 881 435 881 c 128,-1,57
 455 881 455 881 467 870 c 128,-1,58
 479 859 479 859 479 838 c 128,-1,59
 479 817 479 817 464 802.5 c 128,-1,60
 449 788 449 788 429 788 c 128,-1,53
 409 788 409 788 397.5 798.5 c 128,-1,54
207.5 798.5 m 128,-1,62
 196 809 196 809 196 830 c 128,-1,63
 196 851 196 851 210.5 866 c 128,-1,64
 225 881 225 881 245 881 c 128,-1,65
 265 881 265 881 277 870 c 128,-1,66
 289 859 289 859 289 838 c 128,-1,67
 289 817 289 817 274 802.5 c 128,-1,68
 259 788 259 788 239 788 c 128,-1,61
 219 788 219 788 207.5 798.5 c 128,-1,62
EndSplineSet
EndChar

StartChar: Thorn
Encoding: 222 222 159
Width: 562
GlyphClass: 2
Flags: W
LayerCount: 2
Fore
SplineSet
184 646 m 1,0,1
 184 646 184 646 176 549 c 1,2,3
 221 549 221 549 258.5 552.5 c 128,-1,4
 296 556 296 556 328 556 c 0,5,6
 404 556 404 556 463 503 c 128,-1,7
 522 450 522 450 522 368 c 0,8,9
 522 306 522 306 483.5 250 c 128,-1,10
 445 194 445 194 390.5 163 c 128,-1,11
 336 132 336 132 290 132 c 128,-1,12
 244 132 244 132 222.5 146.5 c 128,-1,13
 201 161 201 161 201 184 c 128,-1,14
 201 207 201 207 214.5 220.5 c 128,-1,15
 228 234 228 234 241.5 234 c 128,-1,16
 255 234 255 234 286 222 c 128,-1,17
 317 210 317 210 353 210 c 128,-1,18
 389 210 389 210 422.5 239.5 c 128,-1,19
 456 269 456 269 456 336 c 128,-1,20
 456 403 456 403 404 445 c 128,-1,21
 352 487 352 487 293.5 487 c 128,-1,22
 235 487 235 487 173 485 c 1,23,24
 169 325 169 325 169 81 c 0,25,26
 169 -6 169 -6 114 -6 c 0,27,28
 93 -6 93 -6 76.5 10 c 128,-1,29
 60 26 60 26 60 50.5 c 128,-1,30
 60 75 60 75 81.5 105 c 128,-1,31
 103 135 103 135 103 170.5 c 128,-1,32
 103 206 103 206 100 307 c 128,-1,33
 97 408 97 408 92.5 510 c 128,-1,34
 88 612 88 612 88 639 c 128,-1,35
 88 666 88 666 101.5 681.5 c 128,-1,36
 115 697 115 697 136 697 c 128,-1,37
 157 697 157 697 170.5 681.5 c 128,-1,38
 184 666 184 666 184 646 c 1,0,1
EndSplineSet
EndChar

StartChar: germandbls
Encoding: 223 223 160
Width: 613
GlyphClass: 2
Flags: W
LayerCount: 2
Fore
SplineSet
95 281 m 1,0,-1
 89 446 l 1,1,2
 89 511 89 511 116.5 569.5 c 128,-1,3
 144 628 144 628 185.5 666.5 c 128,-1,4
 227 705 227 705 274.5 727.5 c 128,-1,5
 322 750 322 750 370.5 750 c 128,-1,6
 419 750 419 750 449 716 c 128,-1,7
 479 682 479 682 479 637.5 c 128,-1,8
 479 593 479 593 464.5 560 c 128,-1,9
 450 527 450 527 429 507.5 c 128,-1,10
 408 488 408 488 387 473 c 0,11,12
 337 437 337 437 337 412.5 c 128,-1,13
 337 388 337 388 362.5 373 c 128,-1,14
 388 358 388 358 424 346 c 128,-1,15
 460 334 460 334 496 318.5 c 128,-1,16
 532 303 532 303 557.5 273.5 c 128,-1,17
 583 244 583 244 583 203 c 0,18,19
 583 125 583 125 507 59.5 c 128,-1,20
 431 -6 431 -6 343 -6 c 0,21,22
 306 -6 306 -6 283 9 c 128,-1,23
 260 24 260 24 260 46.5 c 128,-1,24
 260 69 260 69 273.5 82.5 c 128,-1,25
 287 96 287 96 300.5 96 c 128,-1,26
 314 96 314 96 345 84 c 128,-1,27
 376 72 376 72 414 72 c 128,-1,28
 452 72 452 72 481.5 97 c 128,-1,29
 511 122 511 122 511 159.5 c 128,-1,30
 511 197 511 197 486.5 220.5 c 128,-1,31
 462 244 462 244 427.5 256.5 c 128,-1,32
 393 269 393 269 358.5 281 c 128,-1,33
 324 293 324 293 299.5 315 c 128,-1,34
 275 337 275 337 275 369.5 c 128,-1,35
 275 402 275 402 289 427 c 128,-1,36
 303 452 303 452 322.5 468.5 c 128,-1,37
 342 485 342 485 362 500 c 0,38,39
 410 536 410 536 410 581.5 c 128,-1,40
 410 627 410 627 382.5 654.5 c 128,-1,41
 355 682 355 682 310 682 c 0,42,43
 248 682 248 682 199 622 c 128,-1,44
 150 562 150 562 150 486 c 1,45,-1
 159 73 l 2,46,47
 159 43 159 43 144 18.5 c 128,-1,48
 129 -6 129 -6 104.5 -6 c 128,-1,49
 80 -6 80 -6 65 8.5 c 128,-1,50
 50 23 50 23 50 46 c 128,-1,51
 50 69 50 69 67.5 96 c 128,-1,52
 85 123 85 123 90 161.5 c 128,-1,53
 95 200 95 200 95 281 c 1,0,-1
EndSplineSet
EndChar

StartChar: agrave
Encoding: 224 224 161
Width: 459
GlyphClass: 2
Flags: W
LayerCount: 2
Fore
SplineSet
411.5 85.5 m 128,-1,1
 434 55 434 55 434 36 c 128,-1,2
 434 17 434 17 424 5.5 c 128,-1,3
 414 -6 414 -6 397 -6 c 0,4,5
 356 -6 356 -6 324 79 c 1,6,-1
 316 101 l 1,7,8
 265 -6 265 -6 163 -6 c 0,9,10
 112 -6 112 -6 78.5 26.5 c 128,-1,11
 45 59 45 59 45 108 c 0,12,13
 45 184 45 184 97 239 c 128,-1,14
 149 294 149 294 233 298 c 1,15,16
 213 333 213 333 188.5 350.5 c 128,-1,17
 164 368 164 368 144 371 c 128,-1,18
 124 374 124 374 106.5 374.5 c 128,-1,19
 89 375 89 375 79 382 c 128,-1,20
 69 389 69 389 69 409.5 c 128,-1,21
 69 430 69 430 85.5 443 c 128,-1,22
 102 456 102 456 125 456 c 0,23,24
 190 456 190 456 253 391 c 128,-1,25
 316 326 316 326 363 187 c 1,26,-1
 382 134 l 2,27,0
 389 116 389 116 411.5 85.5 c 128,-1,1
143.5 221 m 128,-1,29
 115 197 115 197 115 159 c 128,-1,30
 115 121 115 121 140.5 95.5 c 128,-1,31
 166 70 166 70 202 70 c 128,-1,32
 238 70 238 70 264 95.5 c 128,-1,33
 290 121 290 121 290 156 c 0,34,35
 290 181 290 181 281 202.5 c 128,-1,36
 272 224 272 224 270 229 c 1,37,38
 244 245 244 245 208 245 c 128,-1,28
 172 245 172 245 143.5 221 c 128,-1,29
275 525 m 0,39,40
 275 513 275 513 263 513 c 0,41,42
 259 513 259 513 251 518 c 0,43,44
 194 552 194 552 116 566 c 0,45,46
 79 573 79 573 79 606 c 0,47,48
 79 621 79 621 90.5 631.5 c 128,-1,49
 102 642 102 642 117 642 c 0,50,51
 164 642 164 642 267 539 c 0,52,53
 275 531 275 531 275 525 c 0,39,40
EndSplineSet
EndChar

StartChar: acircumflex
Encoding: 226 226 163
Width: 459
GlyphClass: 2
Flags: W
LayerCount: 2
Fore
SplineSet
411.5 85.5 m 128,-1,1
 434 55 434 55 434 36 c 128,-1,2
 434 17 434 17 424 5.5 c 128,-1,3
 414 -6 414 -6 397 -6 c 0,4,5
 356 -6 356 -6 324 79 c 1,6,-1
 316 101 l 1,7,8
 265 -6 265 -6 163 -6 c 0,9,10
 112 -6 112 -6 78.5 26.5 c 128,-1,11
 45 59 45 59 45 108 c 0,12,13
 45 184 45 184 97 239 c 128,-1,14
 149 294 149 294 233 298 c 1,15,16
 213 333 213 333 188.5 350.5 c 128,-1,17
 164 368 164 368 144 371 c 128,-1,18
 124 374 124 374 106.5 374.5 c 128,-1,19
 89 375 89 375 79 382 c 128,-1,20
 69 389 69 389 69 409.5 c 128,-1,21
 69 430 69 430 85.5 443 c 128,-1,22
 102 456 102 456 125 456 c 0,23,24
 190 456 190 456 253 391 c 128,-1,25
 316 326 316 326 363 187 c 1,26,-1
 382 134 l 2,27,0
 389 116 389 116 411.5 85.5 c 128,-1,1
143.5 221 m 128,-1,29
 115 197 115 197 115 159 c 128,-1,30
 115 121 115 121 140.5 95.5 c 128,-1,31
 166 70 166 70 202 70 c 128,-1,32
 238 70 238 70 264 95.5 c 128,-1,33
 290 121 290 121 290 156 c 0,34,35
 290 181 290 181 281 202.5 c 128,-1,36
 272 224 272 224 270 229 c 1,37,38
 244 245 244 245 208 245 c 128,-1,28
 172 245 172 245 143.5 221 c 128,-1,29
322 539 m 0,39,40
 328 532 328 532 328 522.5 c 128,-1,41
 328 513 328 513 319 513 c 0,42,43
 316 513 316 513 309 518 c 0,44,45
 257 558 257 558 204 570 c 1,46,47
 151 558 151 558 99 518 c 0,48,49
 92 513 92 513 89 513 c 0,50,51
 80 513 80 513 80 522.5 c 128,-1,52
 80 532 80 532 86 539 c 0,53,54
 165 642 165 642 202.5 642 c 128,-1,55
 240 642 240 642 322 539 c 0,39,40
EndSplineSet
EndChar

StartChar: adieresis
Encoding: 228 228 165
Width: 459
GlyphClass: 2
Flags: W
LayerCount: 2
Fore
SplineSet
411.5 85.5 m 128,-1,1
 434 55 434 55 434 36 c 128,-1,2
 434 17 434 17 424 5.5 c 128,-1,3
 414 -6 414 -6 397 -6 c 0,4,5
 356 -6 356 -6 324 79 c 1,6,-1
 316 101 l 1,7,8
 265 -6 265 -6 163 -6 c 0,9,10
 112 -6 112 -6 78.5 26.5 c 128,-1,11
 45 59 45 59 45 108 c 0,12,13
 45 184 45 184 97 239 c 128,-1,14
 149 294 149 294 233 298 c 1,15,16
 213 333 213 333 188.5 350.5 c 128,-1,17
 164 368 164 368 144 371 c 128,-1,18
 124 374 124 374 106.5 374.5 c 128,-1,19
 89 375 89 375 79 382 c 128,-1,20
 69 389 69 389 69 409.5 c 128,-1,21
 69 430 69 430 85.5 443 c 128,-1,22
 102 456 102 456 125 456 c 0,23,24
 190 456 190 456 253 391 c 128,-1,25
 316 326 316 326 363 187 c 1,26,-1
 382 134 l 2,27,0
 389 116 389 116 411.5 85.5 c 128,-1,1
143.5 221 m 128,-1,29
 115 197 115 197 115 159 c 128,-1,30
 115 121 115 121 140.5 95.5 c 128,-1,31
 166 70 166 70 202 70 c 128,-1,32
 238 70 238 70 264 95.5 c 128,-1,33
 290 121 290 121 290 156 c 0,34,35
 290 181 290 181 281 202.5 c 128,-1,36
 272 224 272 224 270 229 c 1,37,38
 244 245 244 245 208 245 c 128,-1,28
 172 245 172 245 143.5 221 c 128,-1,29
286.5 558.5 m 128,-1,40
 275 569 275 569 275 590 c 128,-1,41
 275 611 275 611 289.5 626 c 128,-1,42
 304 641 304 641 324 641 c 128,-1,43
 344 641 344 641 356 630 c 128,-1,44
 368 619 368 619 368 598 c 128,-1,45
 368 577 368 577 353 562.5 c 128,-1,46
 338 548 338 548 318 548 c 128,-1,39
 298 548 298 548 286.5 558.5 c 128,-1,40
96.5 558.5 m 128,-1,48
 85 569 85 569 85 590 c 128,-1,49
 85 611 85 611 99.5 626 c 128,-1,50
 114 641 114 641 134 641 c 128,-1,51
 154 641 154 641 166 630 c 128,-1,52
 178 619 178 619 178 598 c 128,-1,53
 178 577 178 577 163 562.5 c 128,-1,54
 148 548 148 548 128 548 c 128,-1,47
 108 548 108 548 96.5 558.5 c 128,-1,48
EndSplineSet
EndChar

StartChar: ae
Encoding: 230 230 167
Width: 667
GlyphClass: 2
Flags: W
LayerCount: 2
Fore
SplineSet
491 199 m 1,0,-1
 353 207 l 2,1,2
 346 207 346 207 343 206 c 1,3,4
 349 149 349 149 391.5 111 c 128,-1,5
 434 73 434 73 493 73 c 0,6,7
 547 73 547 73 594 114 c 0,8,9
 610 128 610 128 618 128 c 128,-1,10
 626 128 626 128 631.5 122 c 128,-1,11
 637 116 637 116 637 109 c 0,12,13
 637 81 637 81 570.5 37.5 c 128,-1,14
 504 -6 504 -6 442 -6 c 128,-1,15
 380 -6 380 -6 342.5 22 c 128,-1,16
 305 50 305 50 288 95 c 1,17,18
 228 -6 228 -6 138 -6 c 0,19,20
 87 -6 87 -6 58.5 21.5 c 128,-1,21
 30 49 30 49 30 98 c 0,22,23
 30 175 30 175 82.5 234 c 128,-1,24
 135 293 135 293 218 298 c 1,25,26
 194 330 194 330 162.5 345.5 c 128,-1,27
 131 361 131 361 108 362 c 0,28,29
 54 366 54 366 54 408 c 0,30,31
 54 428 54 428 69.5 442 c 128,-1,32
 85 456 85 456 110 456 c 0,33,34
 161 456 161 456 212 415 c 128,-1,35
 263 374 263 374 306 287 c 1,36,37
 344 363 344 363 416 409.5 c 128,-1,38
 488 456 488 456 554 456 c 0,39,40
 594 456 594 456 615.5 441.5 c 128,-1,41
 637 427 637 427 637 404 c 128,-1,42
 637 381 637 381 623.5 367.5 c 128,-1,43
 610 354 610 354 596.5 354 c 128,-1,44
 583 354 583 354 552 366 c 128,-1,45
 521 378 521 378 491 378 c 0,46,47
 439 378 439 378 399 346.5 c 128,-1,48
 359 315 359 315 346 265 c 1,49,-1
 353 265 l 1,50,-1
 491 273 l 1,51,52
 530 273 530 273 530 236 c 128,-1,53
 530 199 530 199 491 199 c 1,0,-1
125.5 219 m 128,-1,55
 100 193 100 193 100 157 c 128,-1,56
 100 121 100 121 125.5 95.5 c 128,-1,57
 151 70 151 70 187 70 c 128,-1,58
 223 70 223 70 249 95.5 c 128,-1,59
 275 121 275 121 275 157 c 128,-1,60
 275 193 275 193 249 219 c 128,-1,61
 223 245 223 245 187 245 c 128,-1,54
 151 245 151 245 125.5 219 c 128,-1,55
EndSplineSet
EndChar

StartChar: ccedilla
Encoding: 231 231 168
Width: 406
GlyphClass: 2
Flags: W
LayerCount: 2
Fore
SplineSet
224 -130 m 1,0,-1
 172 -137 l 1,1,2
 163 -137 163 -137 157 -131 c 128,-1,3
 151 -125 151 -125 151 -112.5 c 128,-1,4
 151 -100 151 -100 179.5 -77.5 c 128,-1,5
 208 -55 208 -55 208 -34 c 128,-1,6
 208 -13 208 -13 191 -5 c 1,7,8
 120 0 120 0 72.5 57 c 128,-1,9
 25 114 25 114 25 196 c 0,10,11
 25 306 25 306 108 381 c 128,-1,12
 191 456 191 456 291 456 c 0,13,14
 333 456 333 456 359.5 441.5 c 128,-1,15
 386 427 386 427 386 404.5 c 128,-1,16
 386 382 386 382 372.5 368 c 128,-1,17
 359 354 359 354 346 354 c 128,-1,18
 333 354 333 354 301.5 366 c 128,-1,19
 270 378 270 378 240 378 c 0,20,21
 174 378 174 378 132.5 332.5 c 128,-1,22
 91 287 91 287 91 224 c 128,-1,23
 91 161 91 161 134.5 117 c 128,-1,24
 178 73 178 73 241 73 c 0,25,26
 297 73 297 73 342 114 c 0,27,28
 358 128 358 128 366 128 c 128,-1,29
 374 128 374 128 380 122 c 128,-1,30
 386 116 386 116 386 109 c 0,31,32
 386 83 386 83 337.5 43.5 c 128,-1,33
 289 4 289 4 229 -4 c 1,34,35
 237 -16 237 -16 237 -36 c 128,-1,36
 237 -56 237 -56 224 -66 c 1,37,38
 261 -66 261 -66 284.5 -87.5 c 128,-1,39
 308 -109 308 -109 308 -146 c 0,40,41
 308 -206 308 -206 266 -248 c 128,-1,42
 224 -290 224 -290 188 -290 c 0,43,44
 170 -290 170 -290 157.5 -278 c 128,-1,45
 145 -266 145 -266 145 -247 c 128,-1,46
 145 -228 145 -228 159 -213 c 128,-1,47
 173 -198 173 -198 186 -198 c 128,-1,48
 199 -198 199 -198 209 -205 c 128,-1,49
 219 -212 219 -212 230 -212 c 128,-1,50
 241 -212 241 -212 252 -198.5 c 128,-1,51
 263 -185 263 -185 263 -168.5 c 128,-1,52
 263 -152 263 -152 252.5 -141 c 128,-1,53
 242 -130 242 -130 224 -130 c 1,0,-1
EndSplineSet
EndChar

StartChar: eacute
Encoding: 233 233 170
Width: 406
GlyphClass: 2
Flags: W
LayerCount: 2
Fore
SplineSet
238 199 m 1,0,-1
 119 209 l 1,1,2
 102 209 102 209 92 206 c 1,3,4
 98 149 98 149 140.5 111 c 128,-1,5
 183 73 183 73 241 73 c 0,6,7
 297 73 297 73 342 114 c 0,8,9
 358 128 358 128 366 128 c 128,-1,10
 374 128 374 128 380 122 c 128,-1,11
 386 116 386 116 386 109 c 0,12,13
 386 80 386 80 329.5 37 c 128,-1,14
 273 -6 273 -6 201.5 -6 c 128,-1,15
 130 -6 130 -6 77.5 52 c 128,-1,16
 25 110 25 110 25 196 c 0,17,18
 25 306 25 306 108 381 c 128,-1,19
 191 456 191 456 291 456 c 0,20,21
 333 456 333 456 359.5 441.5 c 128,-1,22
 386 427 386 427 386 404.5 c 128,-1,23
 386 382 386 382 372.5 368 c 128,-1,24
 359 354 359 354 346 354 c 128,-1,25
 333 354 333 354 301.5 366 c 128,-1,26
 270 378 270 378 241 378 c 0,27,28
 187 378 187 378 147.5 345.5 c 128,-1,29
 108 313 108 313 95 265 c 1,30,-1
 233 273 l 1,31,32
 279 273 279 273 279 237 c 0,33,34
 279 199 279 199 238 199 c 1,0,-1
175 525 m 0,35,36
 175 531 175 531 183 539 c 0,37,38
 286 642 286 642 333 642 c 0,39,40
 348 642 348 642 359.5 631.5 c 128,-1,41
 371 621 371 621 371 606 c 0,42,43
 371 573 371 573 334 566 c 0,44,45
 256 552 256 552 199 518 c 0,46,47
 191 513 191 513 187 513 c 0,48,49
 175 513 175 513 175 525 c 0,35,36
EndSplineSet
EndChar

StartChar: igrave
Encoding: 236 236 173
Width: 208
GlyphClass: 2
Flags: W
LayerCount: 2
Fore
SplineSet
191 525 m 0,0,1
 191 513 191 513 179 513 c 0,2,3
 175 513 175 513 167 518 c 0,4,5
 110 552 110 552 32 566 c 0,6,7
 -5 573 -5 573 -5 606 c 0,8,9
 -5 621 -5 621 6.5 631.5 c 128,-1,10
 18 642 18 642 33 642 c 0,11,12
 80 642 80 642 183 539 c 0,13,14
 191 531 191 531 191 525 c 0,0,1
68 73 m 0,15,16
 68 199 68 199 63 294 c 128,-1,17
 58 389 58 389 58 406 c 128,-1,18
 58 423 58 423 71.5 439.5 c 128,-1,19
 85 456 85 456 104 456 c 128,-1,20
 123 456 123 456 135 440.5 c 128,-1,21
 147 425 147 425 147 395.5 c 128,-1,22
 147 366 147 366 140 296.5 c 128,-1,23
 133 227 133 227 133 152 c 0,24,25
 133 122 133 122 145.5 94.5 c 128,-1,26
 158 67 158 67 158 44.5 c 128,-1,27
 158 22 158 22 145.5 8 c 128,-1,28
 133 -6 133 -6 111.5 -6 c 128,-1,29
 90 -6 90 -6 79 18 c 128,-1,30
 68 42 68 42 68 73 c 0,15,16
EndSplineSet
EndChar

